<svg xmlns="http://www.w3.org/2000/svg" xmlns:xlink="http://www.w3.org/1999/xlink" version="1.1" width="792pt" height="612pt" viewBox="0 0 792 612">
<defs>
<path id="font_0_34" d="M.47399903 .21899414 .548996 0H.6529999L.39698792 .72898867H.2769928L.016998291 0H.115997318L.19299317 .21899414H.47399903M.44799806 .29699708H.21598816L.33599855 .6289978 .44799806 .29699708Z"/>
<path id="font_0_35" d="M.07899475 0H.4079895C.47698976 0 .5279999 .018997193 .5669861 .06098938 .6029968 .09899902 .6230011 .15098572 .6230011 .20799256 .6230011 .29599 .58299258 .34899903 .48999024 .3849945 .5569916 .41600038 .59098818 .46899415 .59098818 .5439911 .59098818 .59799197 .57099917 .6439972 .5329895 .6779938 .49398805 .71299746 .44499208 .72898867 .375 .72898867H.07899475V0M.17199707 .4149933V.6469879H.35198976C.4039917 .6469879 .43299867 .6399994 .45799256 .62098696 .48399354 .6009979 .49798585 .57099917 .49798585 .5309906 .49798585 .4909973 .48399354 .46099855 .45799256 .44099427 .43299867 .42199708 .4039917 .4149933 .35198976 .4149933H.17199707M.17199707 .08198547V.33299256H.39898683C.48098756 .33299256 .5299988 .28599549 .5299988 .20698548 .5299988 .1289978 .48098756 .08198547 .39898683 .08198547H.17199707Z"/>
<path id="font_0_36" d="M.6619873 .5029907C.6329956 .6629944 .54100039 .7409973 .3809967 .7409973 .2829895 .7409973 .20399475 .70999148 .1499939 .6499939 .083999637 .5779877 .04798889 .47399903 .04798889 .35598756 .04798889 .23599243 .084991458 .1329956 .15299988 .06199646 .20999146 .0039978029 .28199769-.023010254 .3769989-.023010254 .5549927-.023010254 .6549988 .07299805 .6769867 .2659912H.58099368C.57299807 .21598816 .5629883 .18199158 .5479889 .15299988 .5179901 .09298706 .45599366 .05899048 .37799073 .05899048 .23298645 .05899048 .14099121 .1749878 .14099121 .35699464 .14099121 .5439911 .22799683 .6589966 .36999513 .6589966 .42900086 .6589966 .48399354 .6419983 .5139923 .61299136 .54100039 .58799746 .55599978 .55799868 .5669861 .5029907H.6619873Z"/>
<path id="font_0_37" d="M.08898926 0H.36999513C.55400088 0 .6669922 .13798523 .6669922 .36499024 .6669922 .59098818 .5549927 .72898867 .36999513 .72898867H.08898926V0M.18199158 .08198547V.6469879H.35398866C.49798585 .6469879 .57398989 .5499878 .57398989 .3639984 .57398989 .1789856 .49798585 .08198547 .35398866 .08198547H.18199158Z"/>
<path id="font_0_38" d="M.18299866 .33198548H.5799866V.4139862H.18299866V.6469879H.59498599V.72898867H.08999634V0H.61299136V.08198547H.18299866V.33198548Z"/>
<path id="font_0_18" d="M.25898744 .5149994V0H.34700013V.72299197H.2889862C.2579956 .6119995 .23799134 .5970001 .101989749 .57899478V.5149994H.25898744Z"/>
<path id="font_0_19" d="M.5059967 .08699036H.1329956C.14199829 .14698792 .17399597 .18499756 .26098634 .23799134L.36099244 .2939911C.45999146 .34899903 .5109863 .4229889 .5109863 .5119934 .5109863 .57199099 .4869995 .6279907 .44499208 .6669922 .40299989 .7049866 .35099793 .72299197 .28399659 .72299197 .19400025 .72299197 .1269989 .69099429 .08799744 .6289978 .06298828 .59098818 .051986696 .54599 .049987794 .47299195H.13798523C.14099121 .5219879 .14698792 .5509949 .15899658 .57499697 .18199158 .61898806 .22799683 .6459961 .2809906 .6459961 .36099244 .6459961 .42099 .58799746 .42099 .5099945 .42099 .45199586 .3880005 .4019928 .32499696 .3659973L.23298645 .31199647C.084991458 .22698975 .041992189 .15899658 .033996583 .0009918213H.5059967V.08699036Z"/>
<path id="font_0_20" d="M.22099304 .33299256H.23199463 .2689972C.36499024 .33299256 .41600038 .28799439 .41600038 .20098877 .41600038 .10998535 .36099244 .054992677 .269989 .054992677 .17298889 .054992677 .12599182 .10398865 .11999512 .20999146H.03199768C.035995485 .1519928 .04598999 .11399841 .06298828 .08198547 .099990848 .011993408 .16899109-.023010254 .2659912-.023010254 .4119873-.023010254 .5059967 .06498718 .5059967 .20199585 .5059967 .2939911 .47099305 .34399415 .38598634 .37399293 .45199586 .40098573 .4850006 .45098878 .4850006 .5239868 .4850006 .647995 .4039917 .72299197 .2689972 .72299197 .12599182 .72299197 .049987794 .6429901 .04699707 .48999024H.1349945C.13598633 .5339966 .13999939 .5589905 .15098572 .58099368 .17098999 .621994 .21499634 .6459961 .269989 .6459961 .34799195 .6459961 .394989 .598999 .394989 .5209961 .394989 .46998597 .3769989 .43899537 .33799745 .42199708 .31399537 .4119873 .28199769 .4079895 .22099304 .40699769V.33299256Z"/>
<path id="font_0_21" d="M.32699586 .1749878V0H.4149933V.1749878H.519989V.2539978H.4149933V.72299197H.34999085L.027999878 .2679901V.1749878H.32699586M.32699586 .2539978H.10499573L.32699586 .57299807V.2539978Z"/>
<path id="font_0_22" d="M.47599793 .70899966H.10998535L.056991579 .32299806H.13798523C.1789856 .37199403 .21299744 .3889923 .2689972 .3889923 .3639984 .3889923 .4229889 .32398988 .4229889 .21899414 .4229889 .116989139 .3639984 .054992677 .2679901 .054992677 .19099427 .054992677 .14399719 .09399414 .12298584 .17399597H.034988405C.04699707 .115997318 .056991579 .08799744 .07798767 .06199646 .117996219 .0079956059 .18998719-.023010254 .269989-.023010254 .41299439-.023010254 .5130005 .08099365 .5130005 .23098755 .5130005 .37098695 .41999818 .46699525 .28399659 .46699525 .23399353 .46699525 .19400025 .45399476 .15299988 .42399598L.18099976 .621994H.47599793V.70899966Z"/>
<path id="font_0_23" d="M.49798585 .5349884C.48098756 .6529999 .40499879 .72299197 .29699708 .72299197 .21899414 .72299197 .14898682 .68499758 .10699463 .6199951 .06199646 .548996 .042999269 .46099855 .042999269 .32998658 .042999269 .20799256 .05999756 .1309967 .102996829 .066986087 .14099121 .0079956059 .20298767-.023010254 .2809906-.023010254 .41600038-.023010254 .5130005 .07798767 .5130005 .21899414 .5130005 .35198976 .4229889 .44599916 .29599 .44599916 .22599793 .44599916 .17098999 .41999818 .1329956 .36698915 .13398743 .54599 .18998719 .644989 .29100038 .644989 .35299684 .644989 .3959961 .6049957 .4099884 .5349884H.49798585M.2849884 .36799623C.36999513 .36799623 .4229889 .30799867 .4229889 .21199036 .4229889 .12098694 .36299134 .054992677 .28199769 .054992677 .19999695 .054992677 .13798523 .12399292 .13798523 .21598816 .13798523 .30599977 .19799805 .36799623 .2849884 .36799623Z"/>
<path id="font_0_46" d="M.46798707 0 .6729889 .61099246V0H.7609863V.72898867H.6319885L.41999818 .09399414 .20399475 .72898867H.07499695V0H.16299439V.61099246L.36999513 0H.46798707Z"/>
<path id="font_0_66" d="M.5349884 .04899597C.526001 .04699707 .5219879 .04699707 .5169983 .04699707 .48799134 .04699707 .47200013 .06199646 .47200013 .08799744V.3959961C.47200013 .4889984 .4039917 .5389862 .2749939 .5389862 .19799805 .5389862 .13699341 .5169983 .100997928 .47799684 .07699585 .45098878 .066986087 .42099 .06498718 .36898805H.14898682C.1559906 .43299867 .19400025 .46199037 .27198792 .46199037 .34799195 .46199037 .3889923 .43399049 .3889923 .38398744V.3619995C.3880005 .32598878 .36999513 .31298829 .3019867 .3039856 .18399048 .2889862 .1659851 .2849884 .13398743 .27198792 .07299805 .24598694 .041992189 .19999695 .041992189 .13198853 .041992189 .036987306 .10798645-.023010254 .21398926-.023010254 .27999879-.023010254 .33299256 0 .3919983 .053985597 .397995 0 .42399598-.023010254 .47799684-.023010254 .49598695-.023010254 .5069885-.021011353 .5349884-.014007568V.04899597M.3889923 .16499329C.3889923 .13699341 .3809967 .11999512 .35598756 .09700012 .32199098 .06599426 .2809906 .049987794 .23199463 .049987794 .16699219 .049987794 .1289978 .08099365 .1289978 .13398743 .1289978 .18899536 .16499329 .21699524 .25498963 .22999573 .34399415 .24198914 .36099244 .24598694 .3889923 .25898744V.16499329Z"/>
<path id="font_0_69" d="M.49499513 .72898867H.4119873V.45799256C.3769989 .5109863 .32099916 .5389862 .25099183 .5389862 .114990238 .5389862 .025985718 .42999269 .025985718 .2630005 .025985718 .085998538 .11199951-.023010254 .2539978-.023010254 .32598878-.023010254 .37599183 .0039978029 .42099 .068984989V0H.49499513V.72898867M.2649994 .46099855C.35499574 .46099855 .4119873 .38198854 .4119873 .2559967 .4119873 .1349945 .35398866 .054992677 .2659912 .054992677 .17399597 .054992677 .11299133 .13598633 .11299133 .2579956 .11299133 .37998963 .17399597 .46099855 .2649994 .46099855Z"/>
<path id="font_0_70" d="M.5130005 .23399353C.5130005 .31399537 .5069885 .3619995 .49198915 .40098573 .45799256 .4869995 .37799073 .5389862 .27999879 .5389862 .13398743 .5389862 .039993287 .42799378 .039993287 .25498963 .039993287 .08198547 .12998963-.023010254 .27799989-.023010254 .397995-.023010254 .48098756 .04499817 .5019989 .15899658H.41799928C.394989 .08999634 .34799195 .053985597 .2809906 .053985597 .22799683 .053985597 .18299866 .07798767 .15499878 .12199402 .1349945 .1519928 .12799073 .18199158 .1269989 .23399353H.5130005M.1289978 .3019867C.13598633 .39898683 .19499207 .46199037 .2789917 .46199037 .3639984 .46199037 .4229889 .3959961 .4229889 .3019867H.1289978Z"/>
<path id="font_0_1" d="M0 0Z"/>
<path id="font_0_88" d="M.55400088 0 .70799258 .5239868H.6139984L.5099945 .115997318 .40699769 .5239868H.30499269L.20498657 .115997318 .09799194 .5239868H.005996704L.1579895 0H.2519989L.35299684 .41099549 .45899964 0H.55400088Z"/>
<path id="font_0_74" d="M.1499939 .5239868H.066986087V0H.1499939V.5239868M.1499939 .72898867H.06599426V.6239929H.1499939V.72898867Z"/>
<path id="font_0_85" d="M.2539978 .5239868H.16799927V.66799929H.084991458V.5239868H.01399231V.45599366H.084991458V.05999756C.084991458 .005996704 .12098694-.023010254 .18598938-.023010254 .20799256-.023010254 .22599793-.021011353 .2539978-.01600647V.053985597C.24198914 .050994874 .23098755 .049987794 .21398926 .049987794 .17799378 .049987794 .16799927 .05999756 .16799927 .09700012V.45599366H.2539978V.5239868Z"/>
<path id="font_0_73" d="M.069992069 .72898867V0H.15299988V.2889862C.15299988 .3959961 .20899964 .46598817 .29499818 .46598817 .32299806 .46598817 .34899903 .45799256 .36898805 .44299317 .3929901 .4249878 .40299989 .3999939 .40299989 .36299134V0H.48599244V.3959961C.48599244 .48399354 .4229889 .5389862 .32099916 .5389862 .24699402 .5389862 .20199585 .5159912 .15299988 .45199586V.72898867H.069992069Z"/>
<path id="font_0_53" d="M.35398866 .6469879H.59298709V.72898867H.020996094V.6469879H.26098634V0H.35398866V.6469879Z"/>
<path id="font_0_79" d="M.069992069 .5239868V0H.1539917V.2889862C.1539917 .3959961 .20999146 .46598817 .29599 .46598817 .3619995 .46598817 .4039917 .42599488 .4039917 .36299134V0H.4869995V.3959961C.4869995 .48298646 .42199708 .5389862 .32099916 .5389862 .24299622 .5389862 .19299317 .5089874 .14698792 .43598939V.5239868H.069992069Z"/>
<path id="font_0_76" d="M.14099121 .72898867H.057998659V0H.14099121V.20399475L.22200012 .28399659 .39898683 0H.5019989L.28799439 .34298707 .46998597 .5239868H.36299134L.14099121 .3019867V.72898867Z"/>
<path id="font_0_83" d="M.068984989 .5239868V0H.15299988V.27198792C.1539917 .397995 .20599365 .45399476 .32099916 .45098878V.5359955C.30699159 .5379944 .29899598 .5389862 .2889862 .5389862 .23498535 .5389862 .19400025 .5069885 .1459961 .42900086V.5239868H.068984989Z"/>
<path id="font_0_68" d="M.47099305 .34799195C.46699525 .39898683 .45599366 .43199159 .43598939 .46099855 .3999939 .5099945 .33699037 .5389862 .2639923 .5389862 .12199402 .5389862 .0309906 .4269867 .0309906 .25299073 .0309906 .083999637 .12098694-.023010254 .2630005-.023010254 .3880005-.023010254 .46699525 .051986696 .47698976 .17999268H.3929901C.3789978 .09599304 .33599855 .053985597 .2649994 .053985597 .17298889 .053985597 .117996219 .1289978 .117996219 .25299073 .117996219 .38398744 .17199707 .46199037 .2630005 .46199037 .33299256 .46199037 .3769989 .42099 .3869934 .34799195H.47099305Z"/>
<path id="font_0_165" d="M.27198792 .32499696H.4059906C.45098878 .32499696 .46998597 .30499269 .46998597 .25698854L.46899415 .21699524C.46899415 .18899536 .47499085 .16099549 .48399354 .13999939H.5629883V.16499329C.54499819 .17799378 .54100039 .18998719 .5399933 .24798584 .5389862 .31900025 .5319977 .33599855 .49499513 .3600006 .5369873 .3899994 .548996 .41299439 .548996 .45899964 .548996 .5439911 .5029907 .58499148 .4079895 .58499148H.20199585V.13999939H.27198792V.32499696M.27198792 .3880005V.5219879H.40098573C.45399476 .5219879 .47599793 .5019989 .47599793 .45498658 .47599793 .4079895 .45298768 .3880005 .40098573 .3880005H.27198792M.36898805 .74198916C.1579895 .74198916-.013000488 .57099917-.013000488 .3600006-.013000488 .1519928 .15899658-.022003174 .3639984-.022003174 .58099368-.022003174 .7509918 .14698792 .7509918 .36099244 .7509918 .57099917 .5799866 .74198916 .36898805 .74198916M.36898805 .6799927C.5419922 .6799927 .68299868 .5369873 .68299868 .36099244 .68299868 .18199158 .54299929 .039993287 .36499024 .039993287 .19599915 .039993287 .054992677 .18598938 .054992677 .3600006 .054992677 .5369873 .19599915 .6799927 .36898805 .6799927Z"/>
<path id="font_0_77" d="M.1519928 .72898867H.067993167V0H.1519928V.72898867Z"/>
<path id="font_0_27" d="M.21398926 .10398865H.10998535V0H.21398926V.10398865M.21398926 .5239868H.10998535V.41999818H.21398926V.5239868Z"/>
<path id="font_0_80" d="M.27198792 .5389862C.12399292 .5389862 .035995485 .43399049 .035995485 .2579956 .035995485 .08099365 .12399292-.023010254 .272995-.023010254 .42099-.023010254 .5099945 .08198547 .5099945 .2539978 .5099945 .43598939 .42399598 .5389862 .27198792 .5389862M.272995 .46199037C.36698915 .46199037 .4229889 .3849945 .4229889 .25498963 .4229889 .1309967 .36499024 .053985597 .272995 .053985597 .17999268 .053985597 .12298584 .1309967 .12298584 .2579956 .12298584 .3849945 .17999268 .46199037 .272995 .46199037Z"/>
<path id="font_0_42" d="M.19400025 .72898867H.099990848V0H.19400025V.72898867Z"/>
<path id="font_0_16" d="M.22898865 .72898867-.008010864-.020004273H.04699707L.28399659 .72898867H.22898865Z"/>
<path id="font_0_17" d="M.2749939 .72299197C.20899964 .72299197 .14898682 .69299319 .11199951 .6439972 .06599426 .5799866 .042999269 .48399354 .042999269 .34999085 .042999269 .10598755 .12298584-.023010254 .2749939-.023010254 .4249878-.023010254 .5069885 .10598755 .5069885 .34399415 .5069885 .48399354 .4850006 .5779877 .43798829 .6439972 .40098573 .69400027 .34199525 .72299197 .2749939 .72299197M.2749939 .644989C.36999513 .644989 .4169922 .5479889 .4169922 .35198976 .4169922 .1459961 .37098695 .049987794 .272995 .049987794 .17999268 .049987794 .1329956 .1499939 .1329956 .34899903 .1329956 .5479889 .17999268 .644989 .2749939 .644989Z"/>
<path id="font_0_13" d="M.08699036 .10398865V0H.14698792V-.018005372C.14698792-.087005618 .13398743-.10700989 .08699036-.10900879V-.14700318C.15299988-.14900208 .19198609-.10101318 .19198609-.01600647V.10398865H.08699036Z"/>
<path id="font_0_25" d="M.3909912 .3809967C.46499635 .42599488 .48799134 .46199037 .48799134 .5299988 .48799134 .6439972 .40098573 .72299197 .2749939 .72299197 .1499939 .72299197 .06199646 .6439972 .06199646 .5309906 .06199646 .46199037 .084991458 .4269867 .1579895 .3809967 .07699585 .33999635 .036987306 .2809906 .036987306 .20098877 .036987306 .068984989 .13398743-.023010254 .2749939-.023010254 .4149933-.023010254 .5130005 .068984989 .5130005 .20098877 .5130005 .2809906 .47299195 .33999635 .3909912 .3809967M.2749939 .644989C.34999085 .644989 .397995 .59999087 .397995 .5279999 .397995 .45999146 .34899903 .4149933 .2749939 .4149933 .19999695 .4149933 .1519928 .45999146 .1519928 .5299988 .1519928 .59999087 .19999695 .644989 .2749939 .644989M.2749939 .34098817C.36299134 .34098817 .4229889 .2829895 .4229889 .19898987 .4229889 .11199951 .3639984 .054992677 .272995 .054992677 .18699646 .054992677 .1269989 .11399841 .1269989 .19799805 .1269989 .28399659 .18598938 .34098817 .2749939 .34098817Z"/>
<path id="font_0_52" d="M.59599307 .5149994C.59599307 .5649872 .59298709 .57899478 .57699587 .61299136 .5369873 .69699099 .45199586 .7409973 .32899476 .7409973 .16899109 .7409973 .069992069 .6589966 .069992069 .5269928 .069992069 .43798829 .116989139 .38198854 .21299744 .35699464L.3939972 .30899049C.4869995 .2849884 .5279999 .24798584 .5279999 .19099427 .5279999 .1519928 .5069885 .11199951 .47599793 .08999634 .44699098 .068984989 .40098573 .05899048 .34199525 .05899048 .2619934 .05899048 .20899964 .07798767 .17399597 .11999512 .14698792 .1519928 .1349945 .18699646 .13598633 .23199463H.04798889C.04899597 .16499329 .06199646 .12098694 .09098816 .08099365 .14099121 .011993408 .22499085-.023010254 .33599855-.023010254 .4229889-.023010254 .49398805-.0030059815 .54100039 .032989503 .58999636 .07199097 .62098696 .13699341 .62098696 .19999695 .62098696 .2899933 .5649872 .35598756 .46598817 .3829956L.2829895 .43199159C.19499207 .45599366 .16299439 .48399354 .16299439 .5399933 .16299439 .6139984 .22799683 .6629944 .32598878 .6629944 .44198609 .6629944 .5069885 .61099246 .5079956 .5149994H.59599307Z"/>
<path id="font_0_48" d="M.3889923 .7409973C.17999268 .7409973 .037994386 .58699038 .037994386 .35899354 .037994386 .12998963 .1789856-.023010254 .3899994-.023010254 .47898866-.023010254 .5569916 .0039978029 .6159973 .053985597 .69499209 .12098694 .74198916 .23399353 .74198916 .35299684 .74198916 .58799746 .6029968 .7409973 .3889923 .7409973M.3889923 .6589966C.5469971 .6589966 .6489868 .5399933 .6489868 .35499574 .6489868 .1789856 .5439911 .05899048 .3899994 .05899048 .23399353 .05899048 .1309967 .1789856 .1309967 .35899354 .1309967 .5389862 .23399353 .6589966 .3889923 .6589966Z"/>
<path id="font_0_51" d="M.18598938 .31399537H.42599488C.5089874 .31399537 .54599 .27398683 .54599 .18399048L.54499819 .11898804C.54499819 .07398987 .5529938 .02999878 .56599429 0H.67900088V.022994996C.6439972 .04699707 .6369934 .07299805 .6349945 .16999817 .6339874 .2899933 .61499026 .32598878 .5359955 .3600006 .6179962 .40098573 .651001 .44999696 .651001 .5339966 .651001 .6599884 .57299807 .72898867 .42900086 .72898867H.09298706V0H.18598938V.31399537M.18598938 .3959961V.6469879H.41099549C.46299745 .6469879 .49299623 .6389923 .5159912 .61898806 .54100039 .59799197 .55400088 .5649872 .55400088 .5219879 .55400088 .43499757 .5099945 .3959961 .41099549 .3959961H.18598938Z"/>
<path id="font_0_39" d="M.18299866 .33198548H.5309906V.4139862H.18299866V.6469879H.57899478V.72898867H.08999634V0H.18299866V.33198548Z"/>
<path id="font_0_55" d="M.3919983 0 .644989 .72898867H.54599L.34399415 .11199951 .12998963 .72898867H.02999878L.2919922 0H.3919983Z"/>
<path id="font_0_47" d="M.6459961 .72898867H.55799868V.1329956L.1769867 .72898867H.07598877V0H.1639862V.59098818L.54100039 0H.6459961V.72898867Z"/>
<path id="font_0_15" d="M.19099427 .10398865H.08699036V0H.19099427V.10398865Z"/>
<path id="font_0_40" d="M.70899966 .3849945H.40499879V.30299378H.6269989V.2829895C.6269989 .15299988 .5309906 .05899048 .397995 .05899048 .32398988 .05899048 .25698854 .085998538 .21398926 .1329956 .1659851 .18499756 .13699341 .27198792 .13699341 .3619995 .13699341 .54100039 .23899842 .6589966 .3929901 .6589966 .5039978 .6589966 .58399966 .60198977 .60398867 .5079956H.69898989C.6729889 .6559906 .5609894 .7409973 .3939972 .7409973 .30499269 .7409973 .23298645 .71798709 .17599488 .67099 .09098816 .6009979 .04399109 .48799134 .04399109 .35699464 .04399109 .1329956 .18099976-.023010254 .37799073-.023010254 .47698976-.023010254 .5549927 .01399231 .6269989 .09298706L.6499939-.0040130617H.70899966V.3849945Z"/>
<path id="font_0_57" d="M.3909912 .37399293 .6369934 .72898867H.526001L.33799745 .44299317 .15098572 .72898867H.037994386L.27999879 .37399293 .021987915 0H.1349945L.33499146 .3039856 .5339966 0H.6489868L.3909912 .37399293Z"/>
<path id="font_0_24" d="M.519989 .70899966H.04598999V.621994H.42900086C.2599945 .3809967 .19099427 .23298645 .13798523 0H.23199463C.2709961 .22698975 .3600006 .42199708 .519989 .6349945V.70899966Z"/>
<path id="font_0_26" d="M.052993776 .16499329C.069992069 .04699707 .1459961-.023010254 .2539978-.023010254 .33299256-.023010254 .40299989 .01499939 .44499208 .07998657 .4889984 .15098572 .5089874 .23899842 .5089874 .36999513 .5089874 .49198915 .4909973 .56900027 .44898988 .6329956 .4099884 .69200137 .34799195 .72299197 .269989 .72299197 .1349945 .72299197 .037994386 .621994 .037994386 .48199464 .037994386 .34899903 .12799073 .25498963 .2559967 .25498963 .32299806 .25498963 .37298585 .2789917 .41799928 .33399964 .4169922 .1539917 .36099244 .054992677 .2599945 .054992677 .19799805 .054992677 .15499878 .09498596 .14099121 .16499329H.052993776M.2689972 .6459961C.35099793 .6459961 .41299439 .57699587 .41299439 .48399354 .41299439 .394989 .35299684 .33299256 .2659912 .33299256 .18099976 .33299256 .12799073 .3929901 .12799073 .4889984 .12799073 .5799866 .18699646 .6459961 .2689972 .6459961Z"/>
<path id="font_0_45" d="M.17298889 .72898867H.07998657V0H.5329895V.08198547H.17298889V.72898867Z"/>
<path id="font_0_86" d="M.48199464 0V.5239868H.39898683V.22698975C.39898683 .11999512 .34298707 .049987794 .2559967 .049987794 .18998719 .049987794 .147995 .08999634 .147995 .15299988V.5239868H.06498718V.11999512C.06498718 .032989503 .12998963-.023010254 .23199463-.023010254 .30899049-.023010254 .35798646 .0039978029 .40699769 .07299805V0H.48199464Z"/>
<path id="font_0_54" d="M.5519867 .72898867V.21699524C.5519867 .11898804 .48098756 .05899048 .3639984 .05899048 .30999757 .05899048 .2659912 .07199097 .23098755 .09700012 .19499207 .125 .17799378 .1619873 .17799378 .21699524V.72898867H.084991458V.21699524C.084991458 .068984989 .19099427-.023010254 .3639984-.023010254 .5349884-.023010254 .644989 .070999149 .644989 .21699524V.72898867H.5519867Z"/>
<path id="font_0_12" d="M.5339966 .2669983H.32699586V.47399903H.25698854V.2669983H.049987794V.19699097H.25698854V-.010009766H.32699586V.19699097H.5339966V.2669983Z"/>
<path id="font_0_14" d="M.28399659 .31199647H.04598999V.23999024H.28399659V.31199647Z"/>
<path id="font_0_56" d="M.74398806 0 .92900088 .72898867H.82499697L.69099429 .13699341 .5249939 .72898867H.4249878L.2630005 .13699341 .12599182 .72898867H.021987915L.20899964 0H.31098939L.47399903 .598999 .6419983 0H.74398806Z"/>
<path id="font_0_89" d="M.2919922 .2709961 .46798707 .5239868H.37399293L.24798584 .33399964 .12199402 .5239868H.026992798L.20199585 .2669983 .016998291 0H.11199951L.24499512 .20098877 .37599183 0H.47299195L.2919922 .2709961Z"/>
<path id="font_0_49" d="M.18399048 .30899049H.41299439C.46998597 .30899049 .5149994 .32598878 .55400088 .36099244 .59799197 .40098573 .61698916 .44799806 .61698916 .5149994 .61698916 .6519928 .5359955 .72898867 .3919983 .72898867H.09098816V0H.18399048V.30899049M.18399048 .3909912V.6469879H.37799073C.46699525 .6469879 .519989 .598999 .519989 .5189972 .519989 .43899537 .46699525 .3909912 .37799073 .3909912H.18399048Z"/>
<path id="font_0_64" d="M.5779877-.12600708H-.022003174V-.17601013H.5779877V-.12600708Z"/>
</defs>
<path transform="matrix(2.334414,0,0,2.334414,69.882358,558)" stroke-width=".3048" stroke-linecap="round" stroke-miterlimit="4" stroke-linejoin="miter" fill="none" stroke="#c90d0c" stroke-opacity=".8" d="M0 0V-215.9"/>
<path transform="matrix(2.334414,0,0,2.334414,69.882358,558)" stroke-width=".3048" stroke-linecap="round" stroke-miterlimit="4" stroke-linejoin="miter" fill="none" stroke="#c90d0c" stroke-opacity=".8" d="M0-215.9H279.4"/>
<path transform="matrix(2.334414,0,0,2.334414,69.882358,558)" stroke-width=".3048" stroke-linecap="round" stroke-miterlimit="4" stroke-linejoin="miter" fill="none" stroke="#c90d0c" stroke-opacity=".8" d="M279.4-215.9V0"/>
<path transform="matrix(2.334414,0,0,2.334414,69.882358,558)" stroke-width=".3048" stroke-linecap="round" stroke-miterlimit="4" stroke-linejoin="miter" fill="none" stroke="#c90d0c" stroke-opacity=".8" d="M279.4 0H0"/>
<path transform="matrix(2.334414,0,0,2.334414,69.882358,558)" stroke-width=".1016" stroke-linecap="round" stroke-miterlimit="4" stroke-linejoin="miter" fill="none" stroke="#c90d0c" stroke-opacity=".8" d="M3.81 0V-212.09"/>
<use data-text="A" xlink:href="#font_0_34" transform="matrix(8.004705,0,0,-8.004705,71.65984,112.404727)" fill="#c90d0c" fill-opacity=".8"/>
<use data-text="B" xlink:href="#font_0_35" transform="matrix(8.004705,0,0,-8.004705,71.65984,211.4259)" fill="#c90d0c" fill-opacity=".8"/>
<path transform="matrix(2.334414,0,0,2.334414,69.882358,558)" stroke-width=".1016" stroke-linecap="round" stroke-miterlimit="4" stroke-linejoin="miter" fill="none" stroke="#c90d0c" stroke-opacity=".8" d="M0-169.672H3.81"/>
<use data-text="C" xlink:href="#font_0_36" transform="matrix(8.004705,0,0,-8.004705,71.43971,310.44709)" fill="#c90d0c" fill-opacity=".8"/>
<path transform="matrix(2.334414,0,0,2.334414,69.882358,558)" stroke-width=".1016" stroke-linecap="round" stroke-miterlimit="4" stroke-linejoin="miter" fill="none" stroke="#c90d0c" stroke-opacity=".8" d="M0-127.254H3.81"/>
<use data-text="D" xlink:href="#font_0_37" transform="matrix(8.004705,0,0,-8.004705,71.43971,409.46827)" fill="#c90d0c" fill-opacity=".8"/>
<path transform="matrix(2.334414,0,0,2.334414,69.882358,558)" stroke-width=".1016" stroke-linecap="round" stroke-miterlimit="4" stroke-linejoin="miter" fill="none" stroke="#c90d0c" stroke-opacity=".8" d="M0-84.836H3.81"/>
<use data-text="E" xlink:href="#font_0_38" transform="matrix(8.004705,0,0,-8.004705,71.65984,508.4894)" fill="#c90d0c" fill-opacity=".8"/>
<path transform="matrix(2.334414,0,0,2.334414,69.882358,558)" stroke-width=".1016" stroke-linecap="round" stroke-miterlimit="4" stroke-linejoin="miter" fill="none" stroke="#c90d0c" stroke-opacity=".8" d="M0-42.418H3.81"/>
<path transform="matrix(2.334414,0,0,2.334414,69.882358,558)" stroke-width=".1016" stroke-linecap="round" stroke-miterlimit="4" stroke-linejoin="miter" fill="none" stroke="#c90d0c" stroke-opacity=".8" d="M3.81-212.09H275.59"/>
<use data-text="1" xlink:href="#font_0_18" transform="matrix(8.004705,0,0,-8.004705,129.42176,58.447084)" fill="#c90d0c" fill-opacity=".8"/>
<use data-text="2" xlink:href="#font_0_19" transform="matrix(8.004705,0,0,-8.004705,235.16292,58.447084)" fill="#c90d0c" fill-opacity=".8"/>
<path transform="matrix(2.334414,0,0,2.334414,69.882358,558)" stroke-width=".1016" stroke-linecap="round" stroke-miterlimit="4" stroke-linejoin="miter" fill="none" stroke="#c90d0c" stroke-opacity=".8" d="M49.106668-212.09V-215.9"/>
<use data-text="3" xlink:href="#font_0_20" transform="matrix(8.004705,0,0,-8.004705,340.90409,58.447084)" fill="#c90d0c" fill-opacity=".8"/>
<path transform="matrix(2.334414,0,0,2.334414,69.882358,558)" stroke-width=".1016" stroke-linecap="round" stroke-miterlimit="4" stroke-linejoin="miter" fill="none" stroke="#c90d0c" stroke-opacity=".8" d="M94.403339-212.09V-215.9"/>
<use data-text="4" xlink:href="#font_0_21" transform="matrix(8.004705,0,0,-8.004705,446.64527,58.447084)" fill="#c90d0c" fill-opacity=".8"/>
<path transform="matrix(2.334414,0,0,2.334414,69.882358,558)" stroke-width=".1016" stroke-linecap="round" stroke-miterlimit="4" stroke-linejoin="miter" fill="none" stroke="#c90d0c" stroke-opacity=".8" d="M139.7-212.09V-215.9"/>
<use data-text="5" xlink:href="#font_0_22" transform="matrix(8.004705,0,0,-8.004705,552.3865,58.447084)" fill="#c90d0c" fill-opacity=".8"/>
<path transform="matrix(2.334414,0,0,2.334414,69.882358,558)" stroke-width=".1016" stroke-linecap="round" stroke-miterlimit="4" stroke-linejoin="miter" fill="none" stroke="#c90d0c" stroke-opacity=".8" d="M184.99668-212.09V-215.9"/>
<use data-text="6" xlink:href="#font_0_23" transform="matrix(8.004705,0,0,-8.004705,658.1276,58.447084)" fill="#c90d0c" fill-opacity=".8"/>
<path transform="matrix(2.334414,0,0,2.334414,69.882358,558)" stroke-width=".1016" stroke-linecap="round" stroke-miterlimit="4" stroke-linejoin="miter" fill="none" stroke="#c90d0c" stroke-opacity=".8" d="M230.29334-212.09V-215.9"/>
<path transform="matrix(2.334414,0,0,2.334414,69.882358,558)" stroke-width=".1016" stroke-linecap="round" stroke-miterlimit="4" stroke-linejoin="miter" fill="none" stroke="#c90d0c" stroke-opacity=".8" d="M275.59-212.09V0"/>
<use data-text="A" xlink:href="#font_0_34" transform="matrix(8.004705,0,0,-8.004705,715.001,112.404727)" fill="#c90d0c" fill-opacity=".8"/>
<use data-text="B" xlink:href="#font_0_35" transform="matrix(8.004705,0,0,-8.004705,715.001,211.4259)" fill="#c90d0c" fill-opacity=".8"/>
<path transform="matrix(2.334414,0,0,2.334414,69.882358,558)" stroke-width=".1016" stroke-linecap="round" stroke-miterlimit="4" stroke-linejoin="miter" fill="none" stroke="#c90d0c" stroke-opacity=".8" d="M279.4-169.672H275.59"/>
<use data-text="C" xlink:href="#font_0_36" transform="matrix(8.004705,0,0,-8.004705,714.7808,310.44709)" fill="#c90d0c" fill-opacity=".8"/>
<path transform="matrix(2.334414,0,0,2.334414,69.882358,558)" stroke-width=".1016" stroke-linecap="round" stroke-miterlimit="4" stroke-linejoin="miter" fill="none" stroke="#c90d0c" stroke-opacity=".8" d="M279.4-127.254H275.59"/>
<use data-text="D" xlink:href="#font_0_37" transform="matrix(8.004705,0,0,-8.004705,714.7808,409.46827)" fill="#c90d0c" fill-opacity=".8"/>
<path transform="matrix(2.334414,0,0,2.334414,69.882358,558)" stroke-width=".1016" stroke-linecap="round" stroke-miterlimit="4" stroke-linejoin="miter" fill="none" stroke="#c90d0c" stroke-opacity=".8" d="M279.4-84.836H275.59"/>
<use data-text="E" xlink:href="#font_0_38" transform="matrix(8.004705,0,0,-8.004705,715.001,508.4894)" fill="#c90d0c" fill-opacity=".8"/>
<path transform="matrix(2.334414,0,0,2.334414,69.882358,558)" stroke-width=".1016" stroke-linecap="round" stroke-miterlimit="4" stroke-linejoin="miter" fill="none" stroke="#c90d0c" stroke-opacity=".8" d="M279.4-42.418H275.59"/>
<use data-text="M" xlink:href="#font_0_46" transform="matrix(8.004705,0,0,-8.004705,84.70589,552.0706)" fill="#c90d0c" fill-opacity=".8"/>
<use data-text="a" xlink:href="#font_0_66" transform="matrix(8.004705,0,0,-8.004705,91.37381,552.0706)" fill="#c90d0c" fill-opacity=".8"/>
<use data-text="d" xlink:href="#font_0_69" transform="matrix(8.004705,0,0,-8.004705,95.824428,552.0706)" fill="#c90d0c" fill-opacity=".8"/>
<use data-text="e" xlink:href="#font_0_70" transform="matrix(8.004705,0,0,-8.004705,100.27504,552.0706)" fill="#c90d0c" fill-opacity=".8"/>
<use data-text=" " xlink:href="#font_0_1" transform="matrix(8.004705,0,0,-8.004705,104.725658,552.0706)" fill="#c90d0c" fill-opacity=".8"/>
<use data-text="w" xlink:href="#font_0_88" transform="matrix(8.004705,0,0,-8.004705,106.950969,552.0706)" fill="#c90d0c" fill-opacity=".8"/>
<use data-text="i" xlink:href="#font_0_74" transform="matrix(8.004705,0,0,-8.004705,112.73036,552.0706)" fill="#c90d0c" fill-opacity=".8"/>
<use data-text="t" xlink:href="#font_0_85" transform="matrix(8.004705,0,0,-8.004705,114.50741,552.0706)" fill="#c90d0c" fill-opacity=".8"/>
<use data-text="h" xlink:href="#font_0_73" transform="matrix(8.004705,0,0,-8.004705,116.73272,552.0706)" fill="#c90d0c" fill-opacity=".8"/>
<use data-text=" " xlink:href="#font_0_1" transform="matrix(8.004705,0,0,-8.004705,121.183338,552.0706)" fill="#c90d0c" fill-opacity=".8"/>
<use data-text="T" xlink:href="#font_0_53" transform="matrix(8.004705,0,0,-8.004705,123.00841,552.0706)" fill="#c90d0c" fill-opacity=".8"/>
<use data-text="i" xlink:href="#font_0_74" transform="matrix(8.004705,0,0,-8.004705,127.89929,552.0706)" fill="#c90d0c" fill-opacity=".8"/>
<use data-text="n" xlink:href="#font_0_79" transform="matrix(8.004705,0,0,-8.004705,129.67633,552.0706)" fill="#c90d0c" fill-opacity=".8"/>
<use data-text="k" xlink:href="#font_0_76" transform="matrix(8.004705,0,0,-8.004705,134.12696,552.0706)" fill="#c90d0c" fill-opacity=".8"/>
<use data-text="e" xlink:href="#font_0_70" transform="matrix(8.004705,0,0,-8.004705,137.96921,552.0706)" fill="#c90d0c" fill-opacity=".8"/>
<use data-text="r" xlink:href="#font_0_83" transform="matrix(8.004705,0,0,-8.004705,142.41983,552.0706)" fill="#c90d0c" fill-opacity=".8"/>
<use data-text="c" xlink:href="#font_0_68" transform="matrix(8.004705,0,0,-8.004705,145.08539,552.0706)" fill="#c90d0c" fill-opacity=".8"/>
<use data-text="a" xlink:href="#font_0_66" transform="matrix(8.004705,0,0,-8.004705,149.08774,552.0706)" fill="#c90d0c" fill-opacity=".8"/>
<use data-text="d" xlink:href="#font_0_69" transform="matrix(8.004705,0,0,-8.004705,153.53836,552.0706)" fill="#c90d0c" fill-opacity=".8"/>
<use data-text="&#x00ae;" xlink:href="#font_0_165" transform="matrix(8.004705,0,0,-8.004705,157.98899,552.0706)" fill="#c90d0c" fill-opacity=".8"/>
<path transform="matrix(2.334414,0,0,2.334414,476.04707,558)" stroke-width=".1016" stroke-linecap="round" stroke-miterlimit="4" stroke-linejoin="miter" fill="none" stroke="#c90d0c" stroke-opacity=".8" d="M0 0H101.6"/>
<path transform="matrix(2.334414,0,0,2.334414,476.04707,558)" stroke-width=".1016" stroke-linecap="round" stroke-miterlimit="4" stroke-linejoin="miter" fill="none" stroke="#c90d0c" stroke-opacity=".8" d="M0-7.62H101.6"/>
<path transform="matrix(2.334414,0,0,2.334414,476.04707,558)" stroke-width=".1016" stroke-linecap="round" stroke-miterlimit="4" stroke-linejoin="miter" fill="none" stroke="#c90d0c" stroke-opacity=".8" d="M0-15.24H101.6"/>
<path transform="matrix(2.334414,0,0,2.334414,476.04707,558)" stroke-width=".1016" stroke-linecap="round" stroke-miterlimit="4" stroke-linejoin="miter" fill="none" stroke="#c90d0c" stroke-opacity=".8" d="M0 0V-7.62"/>
<path transform="matrix(2.334414,0,0,2.334414,476.04707,558)" stroke-width=".1016" stroke-linecap="round" stroke-miterlimit="4" stroke-linejoin="miter" fill="none" stroke="#c90d0c" stroke-opacity=".8" d="M0-7.62V-15.24"/>
<path transform="matrix(2.334414,0,0,2.334414,476.04707,558)" stroke-width=".1016" stroke-linecap="round" stroke-miterlimit="4" stroke-linejoin="miter" fill="none" stroke="#c90d0c" stroke-opacity=".8" d="M101.6 0V-7.62"/>
<path transform="matrix(2.334414,0,0,2.334414,476.04707,558)" stroke-width=".1016" stroke-linecap="round" stroke-miterlimit="4" stroke-linejoin="miter" fill="none" stroke="#c90d0c" stroke-opacity=".8" d="M101.6-5.08V-15.24"/>
<use data-text="T" xlink:href="#font_0_53" transform="matrix(8.004705,0,0,-8.004705,481.97648,534.28237)" fill="#c90d0c" fill-opacity=".8"/>
<use data-text="i" xlink:href="#font_0_74" transform="matrix(8.004705,0,0,-8.004705,486.86735,534.28237)" fill="#c90d0c" fill-opacity=".8"/>
<use data-text="t" xlink:href="#font_0_85" transform="matrix(8.004705,0,0,-8.004705,488.64439,534.28237)" fill="#c90d0c" fill-opacity=".8"/>
<use data-text="l" xlink:href="#font_0_77" transform="matrix(8.004705,0,0,-8.004705,490.8697,534.28237)" fill="#c90d0c" fill-opacity=".8"/>
<use data-text="e" xlink:href="#font_0_70" transform="matrix(8.004705,0,0,-8.004705,492.64674,534.28237)" fill="#c90d0c" fill-opacity=".8"/>
<use data-text=":" xlink:href="#font_0_27" transform="matrix(8.004705,0,0,-8.004705,497.09736,534.28237)" fill="#c90d0c" fill-opacity=".8"/>
<use data-text="C" xlink:href="#font_0_36" transform="matrix(8.004705,0,0,-8.004705,505.69413,534.28237)" fill="#c90d0c" fill-opacity=".8"/>
<use data-text="o" xlink:href="#font_0_80" transform="matrix(8.004705,0,0,-8.004705,511.4735,534.28237)" fill="#c90d0c" fill-opacity=".8"/>
<use data-text="o" xlink:href="#font_0_80" transform="matrix(8.004705,0,0,-8.004705,515.92416,534.28237)" fill="#c90d0c" fill-opacity=".8"/>
<use data-text="l" xlink:href="#font_0_77" transform="matrix(8.004705,0,0,-8.004705,520.37478,534.28237)" fill="#c90d0c" fill-opacity=".8"/>
<use data-text=" " xlink:href="#font_0_1" transform="matrix(8.004705,0,0,-8.004705,522.1518,534.28237)" fill="#c90d0c" fill-opacity=".8"/>
<use data-text="I" xlink:href="#font_0_42" transform="matrix(8.004705,0,0,-8.004705,524.3771,534.28237)" fill="#c90d0c" fill-opacity=".8"/>
<use data-text="n" xlink:href="#font_0_79" transform="matrix(8.004705,0,0,-8.004705,526.6024,534.28237)" fill="#c90d0c" fill-opacity=".8"/>
<use data-text="a" xlink:href="#font_0_66" transform="matrix(8.004705,0,0,-8.004705,531.05307,534.28237)" fill="#c90d0c" fill-opacity=".8"/>
<use data-text="r" xlink:href="#font_0_83" transform="matrix(8.004705,0,0,-8.004705,535.50369,534.28237)" fill="#c90d0c" fill-opacity=".8"/>
<use data-text="i" xlink:href="#font_0_74" transform="matrix(8.004705,0,0,-8.004705,538.2893,534.28237)" fill="#c90d0c" fill-opacity=".8"/>
<use data-text="D" xlink:href="#font_0_37" transform="matrix(8.004705,0,0,-8.004705,481.97648,552.0706)" fill="#c90d0c" fill-opacity=".8"/>
<use data-text="a" xlink:href="#font_0_66" transform="matrix(8.004705,0,0,-8.004705,487.75587,552.0706)" fill="#c90d0c" fill-opacity=".8"/>
<use data-text="t" xlink:href="#font_0_85" transform="matrix(8.004705,0,0,-8.004705,492.20649,552.0706)" fill="#c90d0c" fill-opacity=".8"/>
<use data-text="e" xlink:href="#font_0_70" transform="matrix(8.004705,0,0,-8.004705,494.4318,552.0706)" fill="#c90d0c" fill-opacity=".8"/>
<use data-text=":" xlink:href="#font_0_27" transform="matrix(8.004705,0,0,-8.004705,498.88243,552.0706)" fill="#c90d0c" fill-opacity=".8"/>
<use data-text="4" xlink:href="#font_0_21" transform="matrix(8.004705,0,0,-8.004705,505.69413,552.0706)" fill="#c90d0c" fill-opacity=".8"/>
<use data-text="/" xlink:href="#font_0_16" transform="matrix(8.004705,0,0,-8.004705,510.14476,552.0706)" fill="#c90d0c" fill-opacity=".8"/>
<use data-text="3" xlink:href="#font_0_20" transform="matrix(8.004705,0,0,-8.004705,512.37008,552.0706)" fill="#c90d0c" fill-opacity=".8"/>
<use data-text="/" xlink:href="#font_0_16" transform="matrix(8.004705,0,0,-8.004705,516.8207,552.0706)" fill="#c90d0c" fill-opacity=".8"/>
<use data-text="2" xlink:href="#font_0_19" transform="matrix(8.004705,0,0,-8.004705,519.04598,552.0706)" fill="#c90d0c" fill-opacity=".8"/>
<use data-text="0" xlink:href="#font_0_17" transform="matrix(8.004705,0,0,-8.004705,523.4966,552.0706)" fill="#c90d0c" fill-opacity=".8"/>
<use data-text="2" xlink:href="#font_0_19" transform="matrix(8.004705,0,0,-8.004705,527.9472,552.0706)" fill="#c90d0c" fill-opacity=".8"/>
<use data-text="4" xlink:href="#font_0_21" transform="matrix(8.004705,0,0,-8.004705,532.3978,552.0706)" fill="#c90d0c" fill-opacity=".8"/>
<use data-text="," xlink:href="#font_0_13" transform="matrix(8.004705,0,0,-8.004705,536.84848,552.0706)" fill="#c90d0c" fill-opacity=".8"/>
<use data-text=" " xlink:href="#font_0_1" transform="matrix(8.004705,0,0,-8.004705,539.0737,552.0706)" fill="#c90d0c" fill-opacity=".8"/>
<use data-text="5" xlink:href="#font_0_22" transform="matrix(8.004705,0,0,-8.004705,541.2991,552.0706)" fill="#c90d0c" fill-opacity=".8"/>
<use data-text=":" xlink:href="#font_0_27" transform="matrix(8.004705,0,0,-8.004705,545.7497,552.0706)" fill="#c90d0c" fill-opacity=".8"/>
<use data-text="0" xlink:href="#font_0_17" transform="matrix(8.004705,0,0,-8.004705,547.975,552.0706)" fill="#c90d0c" fill-opacity=".8"/>
<use data-text="8" xlink:href="#font_0_25" transform="matrix(8.004705,0,0,-8.004705,552.4256,552.0706)" fill="#c90d0c" fill-opacity=".8"/>
<use data-text=":" xlink:href="#font_0_27" transform="matrix(8.004705,0,0,-8.004705,556.8762,552.0706)" fill="#c90d0c" fill-opacity=".8"/>
<use data-text="2" xlink:href="#font_0_19" transform="matrix(8.004705,0,0,-8.004705,559.10159,552.0706)" fill="#c90d0c" fill-opacity=".8"/>
<use data-text="2" xlink:href="#font_0_19" transform="matrix(8.004705,0,0,-8.004705,563.5521,552.0706)" fill="#c90d0c" fill-opacity=".8"/>
<use data-text=" " xlink:href="#font_0_1" transform="matrix(8.004705,0,0,-8.004705,568.00277,552.0706)" fill="#c90d0c" fill-opacity=".8"/>
<use data-text="A" xlink:href="#font_0_34" transform="matrix(8.004705,0,0,-8.004705,570.2281,552.0706)" fill="#c90d0c" fill-opacity=".8"/>
<use data-text="M" xlink:href="#font_0_46" transform="matrix(8.004705,0,0,-8.004705,575.5672,552.0706)" fill="#c90d0c" fill-opacity=".8"/>
<use data-text="S" xlink:href="#font_0_52" transform="matrix(8.004705,0,0,-8.004705,653.92947,552.0706)" fill="#c90d0c" fill-opacity=".8"/>
<use data-text="h" xlink:href="#font_0_73" transform="matrix(8.004705,0,0,-8.004705,659.26858,552.0706)" fill="#c90d0c" fill-opacity=".8"/>
<use data-text="e" xlink:href="#font_0_70" transform="matrix(8.004705,0,0,-8.004705,663.7192,552.0706)" fill="#c90d0c" fill-opacity=".8"/>
<use data-text="e" xlink:href="#font_0_70" transform="matrix(8.004705,0,0,-8.004705,668.1698,552.0706)" fill="#c90d0c" fill-opacity=".8"/>
<use data-text="t" xlink:href="#font_0_85" transform="matrix(8.004705,0,0,-8.004705,672.6204,552.0706)" fill="#c90d0c" fill-opacity=".8"/>
<use data-text=":" xlink:href="#font_0_27" transform="matrix(8.004705,0,0,-8.004705,674.84579,552.0706)" fill="#c90d0c" fill-opacity=".8"/>
<use data-text="1" xlink:href="#font_0_18" transform="matrix(8.004705,0,0,-8.004705,683.57656,552.0706)" fill="#c90d0c" fill-opacity=".8"/>
<use data-text="/" xlink:href="#font_0_16" transform="matrix(8.004705,0,0,-8.004705,688.02719,552.0706)" fill="#c90d0c" fill-opacity=".8"/>
<use data-text="1" xlink:href="#font_0_18" transform="matrix(8.004705,0,0,-8.004705,690.25247,552.0706)" fill="#c90d0c" fill-opacity=".8"/>
<path transform="matrix(2.334414,0,0,2.334414,229.97647,297.1059)" stroke-width=".254" stroke-linecap="round" stroke-miterlimit="4" stroke-linejoin="miter" fill="none" stroke="#c90d0c" stroke-opacity=".8" d="M-10.16 17.78V-25.4"/>
<path transform="matrix(2.334414,0,0,2.334414,229.97647,297.1059)" stroke-width=".254" stroke-linecap="round" stroke-miterlimit="4" stroke-linejoin="miter" fill="none" stroke="#c90d0c" stroke-opacity=".8" d="M-10.16-25.4H10.16"/>
<path transform="matrix(2.334414,0,0,2.334414,229.97647,297.1059)" stroke-width=".254" stroke-linecap="round" stroke-miterlimit="4" stroke-linejoin="miter" fill="none" stroke="#c90d0c" stroke-opacity=".8" d="M10.16-25.4V17.78"/>
<path transform="matrix(2.334414,0,0,2.334414,229.97647,297.1059)" stroke-width=".254" stroke-linecap="round" stroke-miterlimit="4" stroke-linejoin="miter" fill="none" stroke="#c90d0c" stroke-opacity=".8" d="M10.16 17.78H-10.16"/>
<path transform="matrix(2.334414,0,0,2.334414,200.3294,291.17649)" stroke-width=".1524" stroke-linecap="round" stroke-miterlimit="4" stroke-linejoin="miter" fill="none" stroke="#c90d0c" stroke-opacity=".8" d="M0 0H2.54"/>
<use data-text="A" xlink:href="#font_0_34" transform="matrix(4.150588,0,0,-4.150588,212.18824,291.17649)" fill="#808080" fill-opacity=".73"/>
<use data-text="0" xlink:href="#font_0_17" transform="matrix(4.150588,0,0,-4.150588,214.95667,291.17649)" fill="#808080" fill-opacity=".73"/>
<path transform="matrix(2.334414,0,0,2.334414,200.3294,297.1059)" stroke-width=".1524" stroke-linecap="round" stroke-miterlimit="4" stroke-linejoin="miter" fill="none" stroke="#c90d0c" stroke-opacity=".8" d="M0 0H2.54"/>
<use data-text="A" xlink:href="#font_0_34" transform="matrix(4.150588,0,0,-4.150588,212.18824,297.1059)" fill="#808080" fill-opacity=".73"/>
<use data-text="1" xlink:href="#font_0_18" transform="matrix(4.150588,0,0,-4.150588,214.95667,297.1059)" fill="#808080" fill-opacity=".73"/>
<path transform="matrix(2.334414,0,0,2.334414,200.3294,303.0353)" stroke-width=".1524" stroke-linecap="round" stroke-miterlimit="4" stroke-linejoin="miter" fill="none" stroke="#c90d0c" stroke-opacity=".8" d="M0 0H2.54"/>
<use data-text="A" xlink:href="#font_0_34" transform="matrix(4.150588,0,0,-4.150588,212.18824,303.0353)" fill="#808080" fill-opacity=".73"/>
<use data-text="2" xlink:href="#font_0_19" transform="matrix(4.150588,0,0,-4.150588,214.95667,303.0353)" fill="#808080" fill-opacity=".73"/>
<path transform="matrix(2.334414,0,0,2.334414,200.3294,308.96473)" stroke-width=".1524" stroke-linecap="round" stroke-miterlimit="4" stroke-linejoin="miter" fill="none" stroke="#c90d0c" stroke-opacity=".8" d="M0 0H2.54"/>
<use data-text="A" xlink:href="#font_0_34" transform="matrix(4.150588,0,0,-4.150588,212.18824,308.96473)" fill="#808080" fill-opacity=".73"/>
<use data-text="3" xlink:href="#font_0_20" transform="matrix(4.150588,0,0,-4.150588,214.95667,308.96473)" fill="#808080" fill-opacity=".73"/>
<path transform="matrix(2.334414,0,0,2.334414,200.3294,314.89414)" stroke-width=".1524" stroke-linecap="round" stroke-miterlimit="4" stroke-linejoin="miter" fill="none" stroke="#c90d0c" stroke-opacity=".8" d="M0 0H2.54"/>
<use data-text="A" xlink:href="#font_0_34" transform="matrix(4.150588,0,0,-4.150588,212.18824,314.89414)" fill="#808080" fill-opacity=".73"/>
<use data-text="4" xlink:href="#font_0_21" transform="matrix(4.150588,0,0,-4.150588,214.95667,314.89414)" fill="#808080" fill-opacity=".73"/>
<path transform="matrix(2.334414,0,0,2.334414,200.3294,320.82356)" stroke-width=".1524" stroke-linecap="round" stroke-miterlimit="4" stroke-linejoin="miter" fill="none" stroke="#c90d0c" stroke-opacity=".8" d="M0 0H2.54"/>
<use data-text="A" xlink:href="#font_0_34" transform="matrix(4.150588,0,0,-4.150588,212.18824,320.82356)" fill="#808080" fill-opacity=".73"/>
<use data-text="5" xlink:href="#font_0_22" transform="matrix(4.150588,0,0,-4.150588,214.95667,320.82356)" fill="#808080" fill-opacity=".73"/>
<path transform="matrix(2.334414,0,0,2.334414,200.3294,273.38825)" stroke-width=".1524" stroke-linecap="round" stroke-miterlimit="4" stroke-linejoin="miter" fill="none" stroke="#c90d0c" stroke-opacity=".8" d="M0 0H2.54"/>
<use data-text="I" xlink:href="#font_0_42" transform="matrix(4.150588,0,0,-4.150588,212.18824,273.38825)" fill="#808080" fill-opacity=".73"/>
<use data-text="O" xlink:href="#font_0_48" transform="matrix(4.150588,0,0,-4.150588,213.34209,273.38825)" fill="#808080" fill-opacity=".73"/>
<use data-text="R" xlink:href="#font_0_51" transform="matrix(4.150588,0,0,-4.150588,216.57126,273.38825)" fill="#808080" fill-opacity=".73"/>
<use data-text="E" xlink:href="#font_0_38" transform="matrix(4.150588,0,0,-4.150588,219.56798,273.38825)" fill="#808080" fill-opacity=".73"/>
<use data-text="F" xlink:href="#font_0_39" transform="matrix(4.150588,0,0,-4.150588,222.33643,273.38825)" fill="#808080" fill-opacity=".73"/>
<path transform="matrix(2.334414,0,0,2.334414,200.3294,279.31767)" stroke-width=".1524" stroke-linecap="round" stroke-miterlimit="4" stroke-linejoin="miter" fill="none" stroke="#c90d0c" stroke-opacity=".8" d="M0 0H2.54"/>
<use data-text="R" xlink:href="#font_0_51" transform="matrix(4.150588,0,0,-4.150588,212.18824,279.31767)" fill="#808080" fill-opacity=".73"/>
<use data-text="E" xlink:href="#font_0_38" transform="matrix(4.150588,0,0,-4.150588,215.18495,279.31767)" fill="#808080" fill-opacity=".73"/>
<use data-text="S" xlink:href="#font_0_52" transform="matrix(4.150588,0,0,-4.150588,217.9534,279.31767)" fill="#808080" fill-opacity=".73"/>
<path transform="matrix(2.334414,0,0,2.334414,200.3294,243.7412)" stroke-width=".1524" stroke-linecap="round" stroke-miterlimit="4" stroke-linejoin="miter" fill="none" stroke="#c90d0c" stroke-opacity=".8" d="M0 0H2.54"/>
<use data-text="V" xlink:href="#font_0_55" transform="matrix(4.150588,0,0,-4.150588,212.18824,243.7412)" fill="#808080" fill-opacity=".73"/>
<use data-text="I" xlink:href="#font_0_42" transform="matrix(4.150588,0,0,-4.150588,214.95667,243.7412)" fill="#808080" fill-opacity=".73"/>
<use data-text="N" xlink:href="#font_0_47" transform="matrix(4.150588,0,0,-4.150588,216.11054,243.7412)" fill="#808080" fill-opacity=".73"/>
<path transform="matrix(2.334414,0,0,2.334414,200.3294,249.67061)" stroke-width=".1524" stroke-linecap="round" stroke-miterlimit="4" stroke-linejoin="miter" fill="none" stroke="#c90d0c" stroke-opacity=".8" d="M0 0H2.54"/>
<use data-text="5" xlink:href="#font_0_22" transform="matrix(4.150588,0,0,-4.150588,212.18824,249.67061)" fill="#808080" fill-opacity=".73"/>
<use data-text="V" xlink:href="#font_0_55" transform="matrix(4.150588,0,0,-4.150588,214.49596,249.67061)" fill="#808080" fill-opacity=".73"/>
<path transform="matrix(2.334414,0,0,2.334414,200.3294,255.6)" stroke-width=".1524" stroke-linecap="round" stroke-miterlimit="4" stroke-linejoin="miter" fill="none" stroke="#c90d0c" stroke-opacity=".8" d="M0 0H2.54"/>
<use data-text="3" xlink:href="#font_0_20" transform="matrix(4.150588,0,0,-4.150588,212.18824,255.6)" fill="#808080" fill-opacity=".73"/>
<use data-text="." xlink:href="#font_0_15" transform="matrix(4.150588,0,0,-4.150588,214.49596,255.6)" fill="#808080" fill-opacity=".73"/>
<use data-text="3" xlink:href="#font_0_20" transform="matrix(4.150588,0,0,-4.150588,215.64983,255.6)" fill="#808080" fill-opacity=".73"/>
<use data-text="V" xlink:href="#font_0_55" transform="matrix(4.150588,0,0,-4.150588,217.95755,255.6)" fill="#808080" fill-opacity=".73"/>
<path transform="matrix(2.334414,0,0,2.334414,200.3294,267.45884)" stroke-width=".1524" stroke-linecap="round" stroke-miterlimit="4" stroke-linejoin="miter" fill="none" stroke="#c90d0c" stroke-opacity=".8" d="M0 0H2.54"/>
<use data-text="A" xlink:href="#font_0_34" transform="matrix(4.150588,0,0,-4.150588,212.18824,267.45884)" fill="#808080" fill-opacity=".73"/>
<use data-text="R" xlink:href="#font_0_51" transform="matrix(4.150588,0,0,-4.150588,214.95667,267.45884)" fill="#808080" fill-opacity=".73"/>
<use data-text="E" xlink:href="#font_0_38" transform="matrix(4.150588,0,0,-4.150588,217.9534,267.45884)" fill="#808080" fill-opacity=".73"/>
<use data-text="F" xlink:href="#font_0_39" transform="matrix(4.150588,0,0,-4.150588,220.72183,267.45884)" fill="#808080" fill-opacity=".73"/>
<path transform="matrix(2.334414,0,0,2.334414,200.3294,332.68238)" stroke-width=".1524" stroke-linecap="round" stroke-miterlimit="4" stroke-linejoin="miter" fill="none" stroke="#c90d0c" stroke-opacity=".8" d="M0 0H2.54"/>
<use data-text="G" xlink:href="#font_0_40" transform="matrix(4.150588,0,0,-4.150588,212.18824,332.68238)" fill="#808080" fill-opacity=".73"/>
<use data-text="N" xlink:href="#font_0_47" transform="matrix(4.150588,0,0,-4.150588,215.41739,332.68238)" fill="#808080" fill-opacity=".73"/>
<use data-text="D" xlink:href="#font_0_37" transform="matrix(4.150588,0,0,-4.150588,218.41411,332.68238)" fill="#808080" fill-opacity=".73"/>
<path transform="matrix(-2.334414,0,0,-2.334414,259.62355,243.7412)" stroke-width=".1524" stroke-linecap="round" stroke-miterlimit="4" stroke-linejoin="miter" fill="none" stroke="#c90d0c" stroke-opacity=".8" d="M0 0H2.54"/>
<use data-text="R" xlink:href="#font_0_51" transform="matrix(4.150588,0,0,-4.150588,241.99954,243.7412)" fill="#808080" fill-opacity=".73"/>
<use data-text="X" xlink:href="#font_0_57" transform="matrix(4.150588,0,0,-4.150588,244.99628,243.7412)" fill="#808080" fill-opacity=".73"/>
<path transform="matrix(-2.334414,0,0,-2.334414,259.62355,249.67061)" stroke-width=".1524" stroke-linecap="round" stroke-miterlimit="4" stroke-linejoin="miter" fill="none" stroke="#c90d0c" stroke-opacity=".8" d="M0 0H2.54"/>
<use data-text="T" xlink:href="#font_0_53" transform="matrix(4.150588,0,0,-4.150588,242.46027,249.67061)" fill="#808080" fill-opacity=".73"/>
<use data-text="X" xlink:href="#font_0_57" transform="matrix(4.150588,0,0,-4.150588,244.99628,249.67061)" fill="#808080" fill-opacity=".73"/>
<path transform="matrix(-2.334414,0,0,-2.334414,259.62355,255.6)" stroke-width=".1524" stroke-linecap="round" stroke-miterlimit="4" stroke-linejoin="miter" fill="none" stroke="#c90d0c" stroke-opacity=".8" d="M0 0H2.54"/>
<use data-text="D" xlink:href="#font_0_37" transform="matrix(4.150588,0,0,-4.150588,242.46027,255.6)" fill="#808080" fill-opacity=".73"/>
<use data-text="2" xlink:href="#font_0_19" transform="matrix(4.150588,0,0,-4.150588,245.45699,255.6)" fill="#808080" fill-opacity=".73"/>
<path transform="matrix(-2.334414,0,0,-2.334414,259.62355,320.82356)" stroke-width=".1524" stroke-linecap="round" stroke-miterlimit="4" stroke-linejoin="miter" fill="none" stroke="#c90d0c" stroke-opacity=".8" d="M0 0H2.54"/>
<use data-text="D" xlink:href="#font_0_37" transform="matrix(4.150588,0,0,-4.150588,240.15253,320.82356)" fill="#808080" fill-opacity=".73"/>
<use data-text="1" xlink:href="#font_0_18" transform="matrix(4.150588,0,0,-4.150588,243.14926,320.82356)" fill="#808080" fill-opacity=".73"/>
<use data-text="3" xlink:href="#font_0_20" transform="matrix(4.150588,0,0,-4.150588,245.45699,320.82356)" fill="#808080" fill-opacity=".73"/>
<path transform="matrix(-2.334414,0,0,-2.334414,259.62355,261.52943)" stroke-width=".1524" stroke-linecap="round" stroke-miterlimit="4" stroke-linejoin="miter" fill="none" stroke="#c90d0c" stroke-opacity=".8" d="M0 0H2.54"/>
<use data-text="D" xlink:href="#font_0_37" transform="matrix(4.150588,0,0,-4.150588,242.46027,261.52943)" fill="#808080" fill-opacity=".73"/>
<use data-text="3" xlink:href="#font_0_20" transform="matrix(4.150588,0,0,-4.150588,245.45699,261.52943)" fill="#808080" fill-opacity=".73"/>
<path transform="matrix(-2.334414,0,0,-2.334414,259.62355,267.45884)" stroke-width=".1524" stroke-linecap="round" stroke-miterlimit="4" stroke-linejoin="miter" fill="none" stroke="#c90d0c" stroke-opacity=".8" d="M0 0H2.54"/>
<use data-text="D" xlink:href="#font_0_37" transform="matrix(4.150588,0,0,-4.150588,242.46027,267.45884)" fill="#808080" fill-opacity=".73"/>
<use data-text="4" xlink:href="#font_0_21" transform="matrix(4.150588,0,0,-4.150588,245.45699,267.45884)" fill="#808080" fill-opacity=".73"/>
<path transform="matrix(-2.334414,0,0,-2.334414,259.62355,273.38825)" stroke-width=".1524" stroke-linecap="round" stroke-miterlimit="4" stroke-linejoin="miter" fill="none" stroke="#c90d0c" stroke-opacity=".8" d="M0 0H2.54"/>
<use data-text="D" xlink:href="#font_0_37" transform="matrix(4.150588,0,0,-4.150588,242.46027,273.38825)" fill="#808080" fill-opacity=".73"/>
<use data-text="5" xlink:href="#font_0_22" transform="matrix(4.150588,0,0,-4.150588,245.45699,273.38825)" fill="#808080" fill-opacity=".73"/>
<path transform="matrix(-2.334414,0,0,-2.334414,259.62355,279.31767)" stroke-width=".1524" stroke-linecap="round" stroke-miterlimit="4" stroke-linejoin="miter" fill="none" stroke="#c90d0c" stroke-opacity=".8" d="M0 0H2.54"/>
<use data-text="D" xlink:href="#font_0_37" transform="matrix(4.150588,0,0,-4.150588,242.46027,279.31767)" fill="#808080" fill-opacity=".73"/>
<use data-text="6" xlink:href="#font_0_23" transform="matrix(4.150588,0,0,-4.150588,245.45699,279.31767)" fill="#808080" fill-opacity=".73"/>
<path transform="matrix(-2.334414,0,0,-2.334414,259.62355,285.24708)" stroke-width=".1524" stroke-linecap="round" stroke-miterlimit="4" stroke-linejoin="miter" fill="none" stroke="#c90d0c" stroke-opacity=".8" d="M0 0H2.54"/>
<use data-text="D" xlink:href="#font_0_37" transform="matrix(4.150588,0,0,-4.150588,242.46027,285.24708)" fill="#808080" fill-opacity=".73"/>
<use data-text="7" xlink:href="#font_0_24" transform="matrix(4.150588,0,0,-4.150588,245.45699,285.24708)" fill="#808080" fill-opacity=".73"/>
<path transform="matrix(-2.334414,0,0,-2.334414,259.62355,291.17649)" stroke-width=".1524" stroke-linecap="round" stroke-miterlimit="4" stroke-linejoin="miter" fill="none" stroke="#c90d0c" stroke-opacity=".8" d="M0 0H2.54"/>
<use data-text="D" xlink:href="#font_0_37" transform="matrix(4.150588,0,0,-4.150588,242.46027,291.17649)" fill="#808080" fill-opacity=".73"/>
<use data-text="8" xlink:href="#font_0_25" transform="matrix(4.150588,0,0,-4.150588,245.45699,291.17649)" fill="#808080" fill-opacity=".73"/>
<path transform="matrix(-2.334414,0,0,-2.334414,259.62355,297.1059)" stroke-width=".1524" stroke-linecap="round" stroke-miterlimit="4" stroke-linejoin="miter" fill="none" stroke="#c90d0c" stroke-opacity=".8" d="M0 0H2.54"/>
<use data-text="D" xlink:href="#font_0_37" transform="matrix(4.150588,0,0,-4.150588,242.46027,297.1059)" fill="#808080" fill-opacity=".73"/>
<use data-text="9" xlink:href="#font_0_26" transform="matrix(4.150588,0,0,-4.150588,245.45699,297.1059)" fill="#808080" fill-opacity=".73"/>
<path transform="matrix(-2.334414,0,0,-2.334414,259.62355,303.0353)" stroke-width=".1524" stroke-linecap="round" stroke-miterlimit="4" stroke-linejoin="miter" fill="none" stroke="#c90d0c" stroke-opacity=".8" d="M0 0H2.54"/>
<use data-text="D" xlink:href="#font_0_37" transform="matrix(4.150588,0,0,-4.150588,240.15253,303.0353)" fill="#808080" fill-opacity=".73"/>
<use data-text="1" xlink:href="#font_0_18" transform="matrix(4.150588,0,0,-4.150588,243.14926,303.0353)" fill="#808080" fill-opacity=".73"/>
<use data-text="0" xlink:href="#font_0_17" transform="matrix(4.150588,0,0,-4.150588,245.45699,303.0353)" fill="#808080" fill-opacity=".73"/>
<path transform="matrix(-2.334414,0,0,-2.334414,259.62355,308.96473)" stroke-width=".1524" stroke-linecap="round" stroke-miterlimit="4" stroke-linejoin="miter" fill="none" stroke="#c90d0c" stroke-opacity=".8" d="M0 0H2.54"/>
<use data-text="D" xlink:href="#font_0_37" transform="matrix(4.150588,0,0,-4.150588,240.15253,308.96473)" fill="#808080" fill-opacity=".73"/>
<use data-text="1" xlink:href="#font_0_18" transform="matrix(4.150588,0,0,-4.150588,243.14926,308.96473)" fill="#808080" fill-opacity=".73"/>
<use data-text="1" xlink:href="#font_0_18" transform="matrix(4.150588,0,0,-4.150588,245.45699,308.96473)" fill="#808080" fill-opacity=".73"/>
<path transform="matrix(-2.334414,0,0,-2.334414,259.62355,314.89414)" stroke-width=".1524" stroke-linecap="round" stroke-miterlimit="4" stroke-linejoin="miter" fill="none" stroke="#c90d0c" stroke-opacity=".8" d="M0 0H2.54"/>
<use data-text="D" xlink:href="#font_0_37" transform="matrix(4.150588,0,0,-4.150588,240.15253,314.89414)" fill="#808080" fill-opacity=".73"/>
<use data-text="1" xlink:href="#font_0_18" transform="matrix(4.150588,0,0,-4.150588,243.14926,314.89414)" fill="#808080" fill-opacity=".73"/>
<use data-text="2" xlink:href="#font_0_19" transform="matrix(4.150588,0,0,-4.150588,245.45699,314.89414)" fill="#808080" fill-opacity=".73"/>
<path transform="matrix(-2.334414,0,0,-2.334414,259.62355,326.75297)" stroke-width=".1524" stroke-linecap="round" stroke-miterlimit="4" stroke-linejoin="miter" fill="none" stroke="#c90d0c" stroke-opacity=".8" d="M0 0H2.54"/>
<use data-text="S" xlink:href="#font_0_52" transform="matrix(4.150588,0,0,-4.150588,239.39713,326.75297)" fill="#808080" fill-opacity=".73"/>
<use data-text="D" xlink:href="#font_0_37" transform="matrix(4.150588,0,0,-4.150588,242.16558,326.75297)" fill="#808080" fill-opacity=".73"/>
<use data-text="A" xlink:href="#font_0_34" transform="matrix(4.150588,0,0,-4.150588,244.99628,326.75297)" fill="#808080" fill-opacity=".73"/>
<path transform="matrix(-2.334414,0,0,-2.334414,259.62355,332.68238)" stroke-width=".1524" stroke-linecap="round" stroke-miterlimit="4" stroke-linejoin="miter" fill="none" stroke="#c90d0c" stroke-opacity=".8" d="M0 0H2.54"/>
<use data-text="S" xlink:href="#font_0_52" transform="matrix(4.150588,0,0,-4.150588,239.69182,332.68238)" fill="#808080" fill-opacity=".73"/>
<use data-text="C" xlink:href="#font_0_36" transform="matrix(4.150588,0,0,-4.150588,242.46027,332.68238)" fill="#808080" fill-opacity=".73"/>
<use data-text="L" xlink:href="#font_0_45" transform="matrix(4.150588,0,0,-4.150588,245.45699,332.68238)" fill="#808080" fill-opacity=".73"/>
<use data-text="A" xlink:href="#font_0_34" transform="matrix(5.603294,0,0,-5.603294,220.32199,288.21177)" fill="#c90d0c" fill-opacity=".8"/>
<use data-text="r" xlink:href="#font_0_83" transform="matrix(5.603294,0,0,-5.603294,224.05939,288.21177)" fill="#c90d0c" fill-opacity=".8"/>
<use data-text="d" xlink:href="#font_0_69" transform="matrix(5.603294,0,0,-5.603294,225.9253,288.21177)" fill="#c90d0c" fill-opacity=".8"/>
<use data-text="u" xlink:href="#font_0_86" transform="matrix(5.603294,0,0,-5.603294,229.04073,288.21177)" fill="#c90d0c" fill-opacity=".8"/>
<use data-text="i" xlink:href="#font_0_74" transform="matrix(5.603294,0,0,-5.603294,232.15616,288.21177)" fill="#c90d0c" fill-opacity=".8"/>
<use data-text="n" xlink:href="#font_0_79" transform="matrix(5.603294,0,0,-5.603294,233.40009,288.21177)" fill="#c90d0c" fill-opacity=".8"/>
<use data-text="o" xlink:href="#font_0_80" transform="matrix(5.603294,0,0,-5.603294,236.51552,288.21177)" fill="#c90d0c" fill-opacity=".8"/>
<use data-text="U" xlink:href="#font_0_54" transform="matrix(5.603294,0,0,-5.603294,223.7512,294.43766)" fill="#c90d0c" fill-opacity=".8"/>
<use data-text="N" xlink:href="#font_0_47" transform="matrix(5.603294,0,0,-5.603294,227.79679,294.43766)" fill="#c90d0c" fill-opacity=".8"/>
<use data-text="O" xlink:href="#font_0_48" transform="matrix(5.603294,0,0,-5.603294,231.84238,294.43766)" fill="#c90d0c" fill-opacity=".8"/>
<use data-text="U" xlink:href="#font_0_54" transform="matrix(5.603294,0,0,-5.603294,226.39597,234.84708)" fill="#808080" fill-opacity=".73"/>
<use data-text="1" xlink:href="#font_0_18" transform="matrix(5.603294,0,0,-5.603294,230.44155,234.84708)" fill="#808080" fill-opacity=".73"/>
<path transform="matrix(2.334414,0,0,2.334414,378.21177,297.1059)" stroke-width=".127" stroke-linecap="round" stroke-miterlimit="4" stroke-linejoin="miter" fill="none" stroke="#c90d0c" stroke-opacity=".8" d="M17.78 12.7V-10.16"/>
<path transform="matrix(2.334414,0,0,2.334414,378.21177,297.1059)" stroke-width=".127" stroke-linecap="round" stroke-miterlimit="4" stroke-linejoin="miter" fill="none" stroke="#c90d0c" stroke-opacity=".8" d="M17.78-10.16H-17.78"/>
<path transform="matrix(2.334414,0,0,2.334414,378.21177,297.1059)" stroke-width=".127" stroke-linecap="round" stroke-miterlimit="4" stroke-linejoin="miter" fill="none" stroke="#c90d0c" stroke-opacity=".8" d="M-17.78-10.16V12.7"/>
<path transform="matrix(2.334414,0,0,2.334414,378.21177,297.1059)" stroke-width=".127" stroke-linecap="round" stroke-miterlimit="4" stroke-linejoin="miter" fill="none" stroke="#c90d0c" stroke-opacity=".8" d="M-17.78 12.7H17.78"/>
<path transform="matrix(2.334414,0,0,2.334414,378.21177,297.1059)" stroke-width=".127" stroke-linecap="round" stroke-miterlimit="4" stroke-linejoin="miter" fill="none" stroke="#c90d0c" stroke-opacity=".8" d="M7.62-5.08H-7.62"/>
<path transform="matrix(2.334414,0,0,2.334414,378.21177,297.1059)" stroke-width=".127" stroke-linecap="round" stroke-miterlimit="4" stroke-linejoin="miter" fill="none" stroke="#c90d0c" stroke-opacity=".8" d="M-7.62-5.08V7.62"/>
<path transform="matrix(2.334414,0,0,2.334414,378.21177,297.1059)" stroke-width=".127" stroke-linecap="round" stroke-miterlimit="4" stroke-linejoin="miter" fill="none" stroke="#c90d0c" stroke-opacity=".8" d="M-7.62 7.62H7.62"/>
<path transform="matrix(2.334414,0,0,2.334414,378.21177,297.1059)" stroke-width=".127" stroke-linecap="round" stroke-miterlimit="4" stroke-linejoin="miter" fill="none" stroke="#c90d0c" stroke-opacity=".8" d="M7.62 7.62V-5.08"/>
<path transform="matrix(2.334414,0,0,2.334414,330.77647,279.31767)" stroke-width=".1524" stroke-linecap="round" stroke-miterlimit="4" stroke-linejoin="miter" fill="none" stroke="#c90d0c" stroke-opacity=".8" d="M0 0H2.54"/>
<use data-text="D" xlink:href="#font_0_37" transform="matrix(4.150588,0,0,-4.150588,342.63529,279.31767)" fill="#808080" fill-opacity=".73"/>
<use data-text="B" xlink:href="#font_0_35" transform="matrix(4.150588,0,0,-4.150588,345.63203,279.31767)" fill="#808080" fill-opacity=".73"/>
<use data-text="0" xlink:href="#font_0_17" transform="matrix(4.150588,0,0,-4.150588,348.40046,279.31767)" fill="#808080" fill-opacity=".73"/>
<path transform="matrix(2.334414,0,0,2.334414,330.77647,285.24708)" stroke-width=".1524" stroke-linecap="round" stroke-miterlimit="4" stroke-linejoin="miter" fill="none" stroke="#c90d0c" stroke-opacity=".8" d="M0 0H2.54"/>
<use data-text="D" xlink:href="#font_0_37" transform="matrix(4.150588,0,0,-4.150588,342.63529,285.24708)" fill="#808080" fill-opacity=".73"/>
<use data-text="B" xlink:href="#font_0_35" transform="matrix(4.150588,0,0,-4.150588,345.63203,285.24708)" fill="#808080" fill-opacity=".73"/>
<use data-text="1" xlink:href="#font_0_18" transform="matrix(4.150588,0,0,-4.150588,348.40046,285.24708)" fill="#808080" fill-opacity=".73"/>
<path transform="matrix(2.334414,0,0,2.334414,330.77647,291.17649)" stroke-width=".1524" stroke-linecap="round" stroke-miterlimit="4" stroke-linejoin="miter" fill="none" stroke="#c90d0c" stroke-opacity=".8" d="M0 0H2.54"/>
<use data-text="D" xlink:href="#font_0_37" transform="matrix(4.150588,0,0,-4.150588,342.63529,291.17649)" fill="#808080" fill-opacity=".73"/>
<use data-text="B" xlink:href="#font_0_35" transform="matrix(4.150588,0,0,-4.150588,345.63203,291.17649)" fill="#808080" fill-opacity=".73"/>
<use data-text="2" xlink:href="#font_0_19" transform="matrix(4.150588,0,0,-4.150588,348.40046,291.17649)" fill="#808080" fill-opacity=".73"/>
<path transform="matrix(2.334414,0,0,2.334414,330.77647,297.1059)" stroke-width=".1524" stroke-linecap="round" stroke-miterlimit="4" stroke-linejoin="miter" fill="none" stroke="#c90d0c" stroke-opacity=".8" d="M0 0H2.54"/>
<use data-text="D" xlink:href="#font_0_37" transform="matrix(4.150588,0,0,-4.150588,342.63529,297.1059)" fill="#808080" fill-opacity=".73"/>
<use data-text="B" xlink:href="#font_0_35" transform="matrix(4.150588,0,0,-4.150588,345.63203,297.1059)" fill="#808080" fill-opacity=".73"/>
<use data-text="3" xlink:href="#font_0_20" transform="matrix(4.150588,0,0,-4.150588,348.40046,297.1059)" fill="#808080" fill-opacity=".73"/>
<path transform="matrix(2.334414,0,0,2.334414,330.77647,303.0353)" stroke-width=".1524" stroke-linecap="round" stroke-miterlimit="4" stroke-linejoin="miter" fill="none" stroke="#c90d0c" stroke-opacity=".8" d="M0 0H2.54"/>
<use data-text="D" xlink:href="#font_0_37" transform="matrix(4.150588,0,0,-4.150588,342.63529,303.0353)" fill="#808080" fill-opacity=".73"/>
<use data-text="B" xlink:href="#font_0_35" transform="matrix(4.150588,0,0,-4.150588,345.63203,303.0353)" fill="#808080" fill-opacity=".73"/>
<use data-text="4" xlink:href="#font_0_21" transform="matrix(4.150588,0,0,-4.150588,348.40046,303.0353)" fill="#808080" fill-opacity=".73"/>
<path transform="matrix(2.334414,0,0,2.334414,330.77647,308.96473)" stroke-width=".1524" stroke-linecap="round" stroke-miterlimit="4" stroke-linejoin="miter" fill="none" stroke="#c90d0c" stroke-opacity=".8" d="M0 0H2.54"/>
<use data-text="D" xlink:href="#font_0_37" transform="matrix(4.150588,0,0,-4.150588,342.63529,308.96473)" fill="#808080" fill-opacity=".73"/>
<use data-text="B" xlink:href="#font_0_35" transform="matrix(4.150588,0,0,-4.150588,345.63203,308.96473)" fill="#808080" fill-opacity=".73"/>
<use data-text="5" xlink:href="#font_0_22" transform="matrix(4.150588,0,0,-4.150588,348.40046,308.96473)" fill="#808080" fill-opacity=".73"/>
<path transform="matrix(2.334414,0,0,2.334414,330.77647,314.89414)" stroke-width=".1524" stroke-linecap="round" stroke-miterlimit="4" stroke-linejoin="miter" fill="none" stroke="#c90d0c" stroke-opacity=".8" d="M0 0H2.54"/>
<use data-text="D" xlink:href="#font_0_37" transform="matrix(4.150588,0,0,-4.150588,342.63529,314.89414)" fill="#808080" fill-opacity=".73"/>
<use data-text="B" xlink:href="#font_0_35" transform="matrix(4.150588,0,0,-4.150588,345.63203,314.89414)" fill="#808080" fill-opacity=".73"/>
<use data-text="6" xlink:href="#font_0_23" transform="matrix(4.150588,0,0,-4.150588,348.40046,314.89414)" fill="#808080" fill-opacity=".73"/>
<path transform="matrix(2.334414,0,0,2.334414,330.77647,320.82356)" stroke-width=".1524" stroke-linecap="round" stroke-miterlimit="4" stroke-linejoin="miter" fill="none" stroke="#c90d0c" stroke-opacity=".8" d="M0 0H2.54"/>
<use data-text="D" xlink:href="#font_0_37" transform="matrix(4.150588,0,0,-4.150588,342.63529,320.82356)" fill="#808080" fill-opacity=".73"/>
<use data-text="B" xlink:href="#font_0_35" transform="matrix(4.150588,0,0,-4.150588,345.63203,320.82356)" fill="#808080" fill-opacity=".73"/>
<use data-text="7" xlink:href="#font_0_24" transform="matrix(4.150588,0,0,-4.150588,348.40046,320.82356)" fill="#808080" fill-opacity=".73"/>
<path transform="matrix(-2.334414,0,0,-2.334414,425.64707,279.31767)" stroke-width=".1524" stroke-linecap="round" stroke-miterlimit="4" stroke-linejoin="miter" fill="none" stroke="#c90d0c" stroke-opacity=".8" d="M0 0H2.54"/>
<use data-text="V" xlink:href="#font_0_55" transform="matrix(4.150588,0,0,-4.150588,405.02635,279.31767)" fill="#808080" fill-opacity=".73"/>
<use data-text="C" xlink:href="#font_0_36" transform="matrix(4.150588,0,0,-4.150588,407.7948,279.31767)" fill="#808080" fill-opacity=".73"/>
<use data-text="C" xlink:href="#font_0_36" transform="matrix(4.150588,0,0,-4.150588,410.7915,279.31767)" fill="#808080" fill-opacity=".73"/>
<path transform="matrix(-2.334414,0,0,-2.334414,425.64707,285.24708)" stroke-width=".1524" stroke-linecap="round" stroke-miterlimit="4" stroke-linejoin="miter" fill="none" stroke="#c90d0c" stroke-opacity=".8" d="M0 0H2.54"/>
<use data-text="V" xlink:href="#font_0_55" transform="matrix(4.150588,0,0,-4.150588,407.95668,285.24708)" fill="#808080" fill-opacity=".73"/>
<use data-text="O" xlink:href="#font_0_48" transform="matrix(4.150588,0,0,-4.150588,410.55909,285.24708)" fill="#808080" fill-opacity=".73"/>
<path transform="matrix(-2.334414,0,0,-2.334414,425.64707,291.17649)" stroke-width=".1524" stroke-linecap="round" stroke-miterlimit="4" stroke-linejoin="miter" fill="none" stroke="#c90d0c" stroke-opacity=".8" d="M0 0H2.54"/>
<use data-text="L" xlink:href="#font_0_45" transform="matrix(4.150588,0,0,-4.150588,403.2914,291.17649)" fill="#808080" fill-opacity=".73"/>
<use data-text="E" xlink:href="#font_0_38" transform="matrix(4.150588,0,0,-4.150588,405.59913,291.17649)" fill="#808080" fill-opacity=".73"/>
<use data-text="D" xlink:href="#font_0_37" transform="matrix(4.150588,0,0,-4.150588,408.36759,291.17649)" fill="#808080" fill-opacity=".73"/>
<use data-text="+" xlink:href="#font_0_12" transform="matrix(4.150588,0,0,-4.150588,411.3643,291.17649)" fill="#808080" fill-opacity=".73"/>
<path transform="matrix(-2.334414,0,0,-2.334414,425.64707,297.1059)" stroke-width=".1524" stroke-linecap="round" stroke-miterlimit="4" stroke-linejoin="miter" fill="none" stroke="#c90d0c" stroke-opacity=".8" d="M0 0H2.54"/>
<use data-text="L" xlink:href="#font_0_45" transform="matrix(4.150588,0,0,-4.150588,404.3332,297.1059)" fill="#808080" fill-opacity=".73"/>
<use data-text="E" xlink:href="#font_0_38" transform="matrix(4.150588,0,0,-4.150588,406.64094,297.1059)" fill="#808080" fill-opacity=".73"/>
<use data-text="D" xlink:href="#font_0_37" transform="matrix(4.150588,0,0,-4.150588,409.40937,297.1059)" fill="#808080" fill-opacity=".73"/>
<use data-text="-" xlink:href="#font_0_14" transform="matrix(4.150588,0,0,-4.150588,412.4061,297.1059)" fill="#808080" fill-opacity=".73"/>
<path transform="matrix(-2.334414,0,0,-2.334414,425.64707,303.0353)" stroke-width=".1524" stroke-linecap="round" stroke-miterlimit="4" stroke-linejoin="miter" fill="none" stroke="#c90d0c" stroke-opacity=".8" d="M0 0H2.54"/>
<use data-text="R" xlink:href="#font_0_51" transform="matrix(4.150588,0,0,-4.150588,408.02308,303.0353)" fill="#808080" fill-opacity=".73"/>
<use data-text="S" xlink:href="#font_0_52" transform="matrix(4.150588,0,0,-4.150588,411.0198,303.0353)" fill="#808080" fill-opacity=".73"/>
<path transform="matrix(-2.334414,0,0,-2.334414,425.64707,308.96473)" stroke-width=".1524" stroke-linecap="round" stroke-miterlimit="4" stroke-linejoin="miter" fill="none" stroke="#c90d0c" stroke-opacity=".8" d="M0 0H2.54"/>
<use data-text="R" xlink:href="#font_0_51" transform="matrix(4.150588,0,0,-4.150588,406.99787,308.96473)" fill="#808080" fill-opacity=".73"/>
<use data-text="W" xlink:href="#font_0_56" transform="matrix(4.150588,0,0,-4.150588,409.8701,308.96473)" fill="#808080" fill-opacity=".73"/>
<path transform="matrix(-2.334414,0,0,-2.334414,425.64707,314.89414)" stroke-width=".1524" stroke-linecap="round" stroke-miterlimit="4" stroke-linejoin="miter" fill="none" stroke="#c90d0c" stroke-opacity=".8" d="M0 0H2.54"/>
<use data-text="E" xlink:href="#font_0_38" transform="matrix(4.150588,0,0,-4.150588,405.25465,314.89414)" fill="#808080" fill-opacity=".73"/>
<use data-text="N" xlink:href="#font_0_47" transform="matrix(4.150588,0,0,-4.150588,408.02308,314.89414)" fill="#808080" fill-opacity=".73"/>
<use data-text="A" xlink:href="#font_0_34" transform="matrix(4.150588,0,0,-4.150588,411.0198,314.89414)" fill="#808080" fill-opacity=".73"/>
<path transform="matrix(-2.334414,0,0,-2.334414,425.64707,320.82356)" stroke-width=".1524" stroke-linecap="round" stroke-miterlimit="4" stroke-linejoin="miter" fill="none" stroke="#c90d0c" stroke-opacity=".8" d="M0 0H2.54"/>
<use data-text="G" xlink:href="#font_0_40" transform="matrix(4.150588,0,0,-4.150588,404.56565,320.82356)" fill="#808080" fill-opacity=".73"/>
<use data-text="N" xlink:href="#font_0_47" transform="matrix(4.150588,0,0,-4.150588,407.7948,320.82356)" fill="#808080" fill-opacity=".73"/>
<use data-text="D" xlink:href="#font_0_37" transform="matrix(4.150588,0,0,-4.150588,410.7915,320.82356)" fill="#808080" fill-opacity=".73"/>
<use data-text="L" xlink:href="#font_0_45" transform="matrix(8.004705,0,0,-8.004705,370.20707,300.0706)" fill="#c90d0c" fill-opacity=".8"/>
<use data-text="C" xlink:href="#font_0_36" transform="matrix(8.004705,0,0,-8.004705,374.65769,300.0706)" fill="#c90d0c" fill-opacity=".8"/>
<use data-text="D" xlink:href="#font_0_37" transform="matrix(8.004705,0,0,-8.004705,380.43708,300.0706)" fill="#c90d0c" fill-opacity=".8"/>
<use data-text="1" xlink:href="#font_0_18" transform="matrix(8.004705,0,0,-8.004705,369.53468,308.96473)" fill="#c90d0c" fill-opacity=".8"/>
<use data-text="6" xlink:href="#font_0_23" transform="matrix(8.004705,0,0,-8.004705,373.9853,308.96473)" fill="#c90d0c" fill-opacity=".8"/>
<use data-text="x" xlink:href="#font_0_89" transform="matrix(8.004705,0,0,-8.004705,378.43589,308.96473)" fill="#c90d0c" fill-opacity=".8"/>
<use data-text="2" xlink:href="#font_0_19" transform="matrix(8.004705,0,0,-8.004705,382.43824,308.96473)" fill="#c90d0c" fill-opacity=".8"/>
<use data-text="U" xlink:href="#font_0_54" transform="matrix(5.603294,0,0,-5.603294,374.63127,271.60945)" fill="#808080" fill-opacity=".73"/>
<use data-text="2" xlink:href="#font_0_19" transform="matrix(5.603294,0,0,-5.603294,378.67686,271.60945)" fill="#808080" fill-opacity=".73"/>
<path transform="matrix(2.334414,0,0,2.334414,508.6588,297.1059)" stroke-width=".4064" stroke-linecap="round" stroke-miterlimit="4" stroke-linejoin="miter" fill="none" stroke="#c90d0c" stroke-opacity=".8" d="M-5.08-1.27V1.27"/>
<path transform="matrix(2.334414,0,0,2.334414,508.6588,297.1059)" stroke-width=".4064" stroke-linecap="round" stroke-miterlimit="4" stroke-linejoin="miter" fill="none" stroke="#c90d0c" stroke-opacity=".8" d="M-5.08 1.27H5.08"/>
<path transform="matrix(2.334414,0,0,2.334414,508.6588,297.1059)" stroke-width=".4064" stroke-linecap="round" stroke-miterlimit="4" stroke-linejoin="miter" fill="none" stroke="#c90d0c" stroke-opacity=".8" d="M5.08 1.27V-1.27"/>
<path transform="matrix(2.334414,0,0,2.334414,508.6588,297.1059)" stroke-width=".4064" stroke-linecap="round" stroke-miterlimit="4" stroke-linejoin="miter" fill="none" stroke="#c90d0c" stroke-opacity=".8" d="M5.08-1.27H-5.08"/>
<path transform="matrix(2.334414,0,0,2.334414,508.6588,297.1059)" stroke-width=".4064" stroke-linecap="round" stroke-miterlimit="4" stroke-linejoin="miter" fill="none" stroke="#c90d0c" stroke-opacity=".8" d="M-2.54-2.54H2.54"/>
<path transform="matrix(2.334414,0,0,2.334414,490.87059,297.1059)" stroke-width=".1524" stroke-linecap="round" stroke-miterlimit="4" stroke-linejoin="miter" fill="none" stroke="#c90d0c" stroke-opacity=".8" d="M0 0H2.54"/>
<path transform="matrix(-2.334414,0,0,-2.334414,526.447,297.1059)" stroke-width=".1524" stroke-linecap="round" stroke-miterlimit="4" stroke-linejoin="miter" fill="none" stroke="#c90d0c" stroke-opacity=".8" d="M0 0H2.54"/>
<path transform="matrix(0,2.334414,-2.334414,0,508.6588,285.24708)" stroke-width=".1524" stroke-linecap="round" stroke-miterlimit="4" stroke-linejoin="miter" fill="none" stroke="#c90d0c" stroke-opacity=".8" d="M0 0H2.54"/>
<use data-text="R" xlink:href="#font_0_51" transform="matrix(5.603294,0,0,-5.603294,511.6235,288.21177)" fill="#808080" fill-opacity=".73"/>
<use data-text="P" xlink:href="#font_0_49" transform="matrix(5.603294,0,0,-5.603294,515.66909,288.21177)" fill="#808080" fill-opacity=".73"/>
<use data-text="O" xlink:href="#font_0_48" transform="matrix(5.603294,0,0,-5.603294,519.4065,288.21177)" fill="#808080" fill-opacity=".73"/>
<use data-text="T" xlink:href="#font_0_53" transform="matrix(5.603294,0,0,-5.603294,523.5417,288.21177)" fill="#808080" fill-opacity=".73"/>
<use data-text="1" xlink:href="#font_0_18" transform="matrix(5.603294,0,0,-5.603294,526.96536,288.21177)" fill="#808080" fill-opacity=".73"/>
<use data-text="1" xlink:href="#font_0_18" transform="matrix(5.603294,0,0,-5.603294,511.6235,306)" fill="#808080" fill-opacity=".73"/>
<use data-text="0" xlink:href="#font_0_17" transform="matrix(5.603294,0,0,-5.603294,514.73898,306)" fill="#808080" fill-opacity=".73"/>
<use data-text="k" xlink:href="#font_0_76" transform="matrix(5.603294,0,0,-5.603294,517.8544,306)" fill="#808080" fill-opacity=".73"/>
<path transform="matrix(2.334414,0,0,2.334414,330.77647,208.1647)" stroke-width=".254" stroke-linecap="round" stroke-miterlimit="4" stroke-linejoin="miter" fill="none" stroke="#c90d0c" stroke-opacity=".8" d="M0 0-1.27 1.905"/>
<path transform="matrix(2.334414,0,0,2.334414,330.77647,208.1647)" stroke-width=".254" stroke-linecap="round" stroke-miterlimit="4" stroke-linejoin="miter" fill="none" stroke="#c90d0c" stroke-opacity=".8" d="M0 0 1.27 1.905"/>
<path transform="matrix(0,-2.334414,2.334414,0,330.77647,214.09412)" stroke-width=".1524" stroke-linecap="round" stroke-miterlimit="4" stroke-linejoin="miter" fill="none" stroke="#c90d0c" stroke-opacity=".8" d="M0 0H2.54"/>
<use data-text="U" xlink:href="#font_0_54" transform="matrix(5.603294,0,0,-5.603294,327.81178,205.20001)" fill="#808080" fill-opacity=".73"/>
<use data-text="1" xlink:href="#font_0_18" transform="matrix(5.603294,0,0,-5.603294,331.85737,205.20001)" fill="#808080" fill-opacity=".73"/>
<use data-text="_" xlink:href="#font_0_64" transform="matrix(5.603294,0,0,-5.603294,334.97279,205.20001)" fill="#808080" fill-opacity=".73"/>
<use data-text="5" xlink:href="#font_0_22" transform="matrix(5.603294,0,0,-5.603294,338.0882,205.20001)" fill="#808080" fill-opacity=".73"/>
<use data-text="V" xlink:href="#font_0_55" transform="matrix(5.603294,0,0,-5.603294,341.20365,205.20001)" fill="#808080" fill-opacity=".73"/>
<path transform="matrix(2.334414,0,0,2.334414,360.42353,380.11769)" stroke-width=".254" stroke-linecap="round" stroke-miterlimit="4" stroke-linejoin="miter" fill="none" stroke="#c90d0c" stroke-opacity=".8" d="M-1.27-1.905 0 0"/>
<path transform="matrix(2.334414,0,0,2.334414,360.42353,380.11769)" stroke-width=".254" stroke-linecap="round" stroke-miterlimit="4" stroke-linejoin="miter" fill="none" stroke="#c90d0c" stroke-opacity=".8" d="M0 0 1.27-1.905"/>
<path transform="matrix(0,2.334414,-2.334414,0,360.42353,374.18827)" stroke-width=".1524" stroke-linecap="round" stroke-miterlimit="4" stroke-linejoin="miter" fill="none" stroke="#c90d0c" stroke-opacity=".8" d="M0 0H2.54"/>
<use data-text="U" xlink:href="#font_0_54" transform="matrix(5.603294,0,0,-5.603294,357.45884,386.04707)" fill="#808080" fill-opacity=".73"/>
<use data-text="1" xlink:href="#font_0_18" transform="matrix(5.603294,0,0,-5.603294,361.50444,386.04707)" fill="#808080" fill-opacity=".73"/>
<use data-text="_" xlink:href="#font_0_64" transform="matrix(5.603294,0,0,-5.603294,364.61985,386.04707)" fill="#808080" fill-opacity=".73"/>
<use data-text="G" xlink:href="#font_0_40" transform="matrix(5.603294,0,0,-5.603294,367.73527,386.04707)" fill="#808080" fill-opacity=".73"/>
<use data-text="N" xlink:href="#font_0_47" transform="matrix(5.603294,0,0,-5.603294,372.09465,386.04707)" fill="#808080" fill-opacity=".73"/>
<use data-text="D" xlink:href="#font_0_37" transform="matrix(5.603294,0,0,-5.603294,376.14024,386.04707)" fill="#808080" fill-opacity=".73"/>
<path transform="matrix(2.334414,0,0,2.334414,69.882358,558)" stroke-width=".1524" stroke-linecap="round" stroke-miterlimit="4" stroke-linejoin="miter" fill="none" stroke="#0dab76" stroke-opacity=".8" d="M55.88-96.52H53.34"/>
<path transform="matrix(2.334414,0,0,2.334414,69.882358,558)" stroke-width=".1524" stroke-linecap="round" stroke-miterlimit="4" stroke-linejoin="miter" fill="none" stroke="#0dab76" stroke-opacity=".8" d="M152.4-101.6H154.94"/>
<path transform="matrix(2.334414,0,0,2.334414,69.882358,558)" stroke-width=".1524" stroke-linecap="round" stroke-miterlimit="4" stroke-linejoin="miter" fill="none" stroke="#0dab76" stroke-opacity=".8" d="M152.4-106.68H160.02"/>
<path transform="matrix(2.334414,0,0,2.334414,69.882358,558)" stroke-width=".1524" stroke-linecap="round" stroke-miterlimit="4" stroke-linejoin="miter" fill="none" stroke="#0dab76" stroke-opacity=".8" d="M152.4-111.76H165.1"/>
<path transform="matrix(2.334414,0,0,2.334414,69.882358,558)" stroke-width=".1524" stroke-linecap="round" stroke-miterlimit="4" stroke-linejoin="miter" fill="none" stroke="#0dab76" stroke-opacity=".8" d="M152.4-114.3H167.64"/>
<path transform="matrix(2.334414,0,0,2.334414,69.882358,558)" stroke-width=".1524" stroke-linecap="round" stroke-miterlimit="4" stroke-linejoin="miter" fill="none" stroke="#0dab76" stroke-opacity=".8" d="M180.34-111.76H177.8"/>
<path transform="matrix(2.334414,0,0,2.334414,69.882358,558)" stroke-width=".1524" stroke-linecap="round" stroke-miterlimit="4" stroke-linejoin="miter" fill="none" stroke="#0dab76" stroke-opacity=".8" d="M195.58-111.76H198.12"/>
<path transform="matrix(2.334414,0,0,2.334414,69.882358,558)" stroke-width=".1524" stroke-linecap="round" stroke-miterlimit="4" stroke-linejoin="miter" fill="none" stroke="#0dab76" stroke-opacity=".8" d="M53.34-96.52V-81.28"/>
<path transform="matrix(2.334414,0,0,2.334414,69.882358,558)" stroke-width=".1524" stroke-linecap="round" stroke-miterlimit="4" stroke-linejoin="miter" fill="none" stroke="#0dab76" stroke-opacity=".8" d="M124.46-78.74V-81.28"/>
<path transform="matrix(2.334414,0,0,2.334414,69.882358,558)" stroke-width=".1524" stroke-linecap="round" stroke-miterlimit="4" stroke-linejoin="miter" fill="none" stroke="#0dab76" stroke-opacity=".8" d="M53.34-81.28H124.46"/>
<path transform="matrix(2.334414,0,0,2.334414,69.882358,558)" stroke-width=".1524" stroke-linecap="round" stroke-miterlimit="4" stroke-linejoin="miter" fill="none" stroke="#0dab76" stroke-opacity=".8" d="M154.94-101.6V-81.28"/>
<path transform="matrix(2.334414,0,0,2.334414,69.882358,558)" stroke-width=".1524" stroke-linecap="round" stroke-miterlimit="4" stroke-linejoin="miter" fill="none" stroke="#0dab76" stroke-opacity=".8" d="M124.46-81.28H154.94"/>
<path transform="matrix(2.334414,0,0,2.334414,69.882358,558)" stroke-width=".1524" stroke-linecap="round" stroke-miterlimit="4" stroke-linejoin="miter" fill="none" stroke="#0dab76" stroke-opacity=".8" d="M160.02-106.68V-81.28"/>
<path transform="matrix(2.334414,0,0,2.334414,69.882358,558)" stroke-width=".1524" stroke-linecap="round" stroke-miterlimit="4" stroke-linejoin="miter" fill="none" stroke="#0dab76" stroke-opacity=".8" d="M154.94-81.28H160.02"/>
<path transform="matrix(2.334414,0,0,2.334414,69.882358,558)" stroke-width=".1524" stroke-linecap="round" stroke-miterlimit="4" stroke-linejoin="miter" fill="none" stroke="#0dab76" stroke-opacity=".8" d="M165.1-111.76V-81.28"/>
<path transform="matrix(2.334414,0,0,2.334414,69.882358,558)" stroke-width=".1524" stroke-linecap="round" stroke-miterlimit="4" stroke-linejoin="miter" fill="none" stroke="#0dab76" stroke-opacity=".8" d="M160.02-81.28H165.1"/>
<path transform="matrix(2.334414,0,0,2.334414,69.882358,558)" stroke-width=".1524" stroke-linecap="round" stroke-miterlimit="4" stroke-linejoin="miter" fill="none" stroke="#0dab76" stroke-opacity=".8" d="M167.64-114.3V-81.28"/>
<path transform="matrix(2.334414,0,0,2.334414,69.882358,558)" stroke-width=".1524" stroke-linecap="round" stroke-miterlimit="4" stroke-linejoin="miter" fill="none" stroke="#0dab76" stroke-opacity=".8" d="M165.1-81.28H167.64"/>
<path transform="matrix(2.334414,0,0,2.334414,69.882358,558)" stroke-width=".1524" stroke-linecap="round" stroke-miterlimit="4" stroke-linejoin="miter" fill="none" stroke="#0dab76" stroke-opacity=".8" d="M177.8-111.76V-81.28"/>
<path transform="matrix(2.334414,0,0,2.334414,69.882358,558)" stroke-width=".1524" stroke-linecap="round" stroke-miterlimit="4" stroke-linejoin="miter" fill="none" stroke="#0dab76" stroke-opacity=".8" d="M167.64-81.28H177.8"/>
<path transform="matrix(2.334414,0,0,2.334414,69.882358,558)" stroke-width=".1524" stroke-linecap="round" stroke-miterlimit="4" stroke-linejoin="miter" fill="none" stroke="#0dab76" stroke-opacity=".8" d="M198.12-111.76V-81.28"/>
<path transform="matrix(2.334414,0,0,2.334414,69.882358,558)" stroke-width=".1524" stroke-linecap="round" stroke-miterlimit="4" stroke-linejoin="miter" fill="none" stroke="#0dab76" stroke-opacity=".8" d="M177.8-81.28H198.12"/>
<g>
<path transform="matrix(2.334414,0,0,2.334414,69.882358,558)" d="M124.48-81.28C124.48-81.27286 124.47619-81.26625 124.47-81.26268 124.46381-81.25911 124.456188-81.25911 124.45-81.26268 124.44381-81.26625 124.44-81.27286 124.44-81.28 124.44-81.28715 124.44381-81.29375 124.45-81.29732 124.456188-81.300899 124.46381-81.300899 124.47-81.29732 124.47619-81.29375 124.48-81.28715 124.48-81.28Z" fill="#0dab76" fill-opacity=".8"/>
<path transform="matrix(2.334414,0,0,2.334414,69.882358,558)" stroke-width="1" stroke-linecap="butt" stroke-miterlimit="4" stroke-linejoin="miter" fill="none" stroke="#0dab76" stroke-opacity=".8" d="M124.48-81.28C124.48-81.27286 124.47619-81.26625 124.47-81.26268 124.46381-81.25911 124.456188-81.25911 124.45-81.26268 124.44381-81.26625 124.44-81.27286 124.44-81.28 124.44-81.28715 124.44381-81.29375 124.45-81.29732 124.456188-81.300899 124.46381-81.300899 124.47-81.29732 124.47619-81.29375 124.48-81.28715 124.48-81.28Z"/>
</g>
<g>
<path transform="matrix(2.334414,0,0,2.334414,69.882358,558)" d="M154.96-81.28C154.96-81.27286 154.95619-81.26625 154.95-81.26268 154.94382-81.25911 154.93619-81.25911 154.93-81.26268 154.92382-81.26625 154.92-81.27286 154.92-81.28 154.92-81.28715 154.92382-81.29375 154.93-81.29732 154.93619-81.300899 154.94382-81.300899 154.95-81.29732 154.95619-81.29375 154.96-81.28715 154.96-81.28Z" fill="#0dab76" fill-opacity=".8"/>
<path transform="matrix(2.334414,0,0,2.334414,69.882358,558)" stroke-width="1" stroke-linecap="butt" stroke-miterlimit="4" stroke-linejoin="miter" fill="none" stroke="#0dab76" stroke-opacity=".8" d="M154.96-81.28C154.96-81.27286 154.95619-81.26625 154.95-81.26268 154.94382-81.25911 154.93619-81.25911 154.93-81.26268 154.92382-81.26625 154.92-81.27286 154.92-81.28 154.92-81.28715 154.92382-81.29375 154.93-81.29732 154.93619-81.300899 154.94382-81.300899 154.95-81.29732 154.95619-81.29375 154.96-81.28715 154.96-81.28Z"/>
</g>
<g>
<path transform="matrix(2.334414,0,0,2.334414,69.882358,558)" d="M160.04-81.28C160.04-81.27286 160.0362-81.26625 160.03-81.26268 160.02382-81.25911 160.01619-81.25911 160.01-81.26268 160.00382-81.26625 160-81.27286 160-81.28 160-81.28715 160.00382-81.29375 160.01-81.29732 160.01619-81.300899 160.02382-81.300899 160.03-81.29732 160.0362-81.29375 160.04-81.28715 160.04-81.28Z" fill="#0dab76" fill-opacity=".8"/>
<path transform="matrix(2.334414,0,0,2.334414,69.882358,558)" stroke-width="1" stroke-linecap="butt" stroke-miterlimit="4" stroke-linejoin="miter" fill="none" stroke="#0dab76" stroke-opacity=".8" d="M160.04-81.28C160.04-81.27286 160.0362-81.26625 160.03-81.26268 160.02382-81.25911 160.01619-81.25911 160.01-81.26268 160.00382-81.26625 160-81.27286 160-81.28 160-81.28715 160.00382-81.29375 160.01-81.29732 160.01619-81.300899 160.02382-81.300899 160.03-81.29732 160.0362-81.29375 160.04-81.28715 160.04-81.28Z"/>
</g>
<g>
<path transform="matrix(2.334414,0,0,2.334414,69.882358,558)" d="M165.12-81.28C165.12-81.27286 165.11618-81.26625 165.11-81.26268 165.1038-81.25911 165.09619-81.25911 165.09-81.26268 165.08382-81.26625 165.08-81.27286 165.08-81.28 165.08-81.28715 165.08382-81.29375 165.09-81.29732 165.09619-81.300899 165.1038-81.300899 165.11-81.29732 165.11618-81.29375 165.12-81.28715 165.12-81.28Z" fill="#0dab76" fill-opacity=".8"/>
<path transform="matrix(2.334414,0,0,2.334414,69.882358,558)" stroke-width="1" stroke-linecap="butt" stroke-miterlimit="4" stroke-linejoin="miter" fill="none" stroke="#0dab76" stroke-opacity=".8" d="M165.12-81.28C165.12-81.27286 165.11618-81.26625 165.11-81.26268 165.1038-81.25911 165.09619-81.25911 165.09-81.26268 165.08382-81.26625 165.08-81.27286 165.08-81.28 165.08-81.28715 165.08382-81.29375 165.09-81.29732 165.09619-81.300899 165.1038-81.300899 165.11-81.29732 165.11618-81.29375 165.12-81.28715 165.12-81.28Z"/>
</g>
<g>
<path transform="matrix(2.334414,0,0,2.334414,69.882358,558)" d="M167.66-81.28C167.66-81.27286 167.65619-81.26625 167.65-81.26268 167.64382-81.25911 167.63619-81.25911 167.63-81.26268 167.62381-81.26625 167.62-81.27286 167.62-81.28 167.62-81.28715 167.62381-81.29375 167.63-81.29732 167.63619-81.300899 167.64382-81.300899 167.65-81.29732 167.65619-81.29375 167.66-81.28715 167.66-81.28Z" fill="#0dab76" fill-opacity=".8"/>
<path transform="matrix(2.334414,0,0,2.334414,69.882358,558)" stroke-width="1" stroke-linecap="butt" stroke-miterlimit="4" stroke-linejoin="miter" fill="none" stroke="#0dab76" stroke-opacity=".8" d="M167.66-81.28C167.66-81.27286 167.65619-81.26625 167.65-81.26268 167.64382-81.25911 167.63619-81.25911 167.63-81.26268 167.62381-81.26625 167.62-81.27286 167.62-81.28 167.62-81.28715 167.62381-81.29375 167.63-81.29732 167.63619-81.300899 167.64382-81.300899 167.65-81.29732 167.65619-81.29375 167.66-81.28715 167.66-81.28Z"/>
</g>
<g>
<path transform="matrix(2.334414,0,0,2.334414,69.882358,558)" d="M177.82-81.28C177.82-81.27286 177.8162-81.26625 177.81-81.26268 177.80382-81.25911 177.79619-81.25911 177.79-81.26268 177.78382-81.26625 177.78-81.27286 177.78-81.28 177.78-81.28715 177.78382-81.29375 177.79-81.29732 177.79619-81.300899 177.80382-81.300899 177.81-81.29732 177.8162-81.29375 177.82-81.28715 177.82-81.28Z" fill="#0dab76" fill-opacity=".8"/>
<path transform="matrix(2.334414,0,0,2.334414,69.882358,558)" stroke-width="1" stroke-linecap="butt" stroke-miterlimit="4" stroke-linejoin="miter" fill="none" stroke="#0dab76" stroke-opacity=".8" d="M177.82-81.28C177.82-81.27286 177.8162-81.26625 177.81-81.26268 177.80382-81.25911 177.79619-81.25911 177.79-81.26268 177.78382-81.26625 177.78-81.27286 177.78-81.28 177.78-81.28715 177.78382-81.29375 177.79-81.29732 177.79619-81.300899 177.80382-81.300899 177.81-81.29732 177.8162-81.29375 177.82-81.28715 177.82-81.28Z"/>
</g>
<path transform="matrix(2.334414,0,0,2.334414,69.882358,558)" stroke-width=".1524" stroke-linecap="round" stroke-miterlimit="4" stroke-linejoin="miter" fill="none" stroke="#0dab76" stroke-opacity=".8" d="M81.28-104.14H83.82"/>
<path transform="matrix(2.334414,0,0,2.334414,69.882358,558)" stroke-width=".1524" stroke-linecap="round" stroke-miterlimit="4" stroke-linejoin="miter" fill="none" stroke="#0dab76" stroke-opacity=".8" d="M111.76-101.6H109.22"/>
<path transform="matrix(2.334414,0,0,2.334414,69.882358,558)" stroke-width=".1524" stroke-linecap="round" stroke-miterlimit="4" stroke-linejoin="miter" fill="none" stroke="#0dab76" stroke-opacity=".8" d="M83.82-104.14V-101.6"/>
<path transform="matrix(2.334414,0,0,2.334414,69.882358,558)" stroke-width=".1524" stroke-linecap="round" stroke-miterlimit="4" stroke-linejoin="miter" fill="none" stroke="#0dab76" stroke-opacity=".8" d="M83.82-101.6H109.22"/>
<path transform="matrix(2.334414,0,0,2.334414,69.882358,558)" stroke-width=".1524" stroke-linecap="round" stroke-miterlimit="4" stroke-linejoin="miter" fill="none" stroke="#0dab76" stroke-opacity=".8" d="M81.28-106.68H86.36"/>
<path transform="matrix(2.334414,0,0,2.334414,69.882358,558)" stroke-width=".1524" stroke-linecap="round" stroke-miterlimit="4" stroke-linejoin="miter" fill="none" stroke="#0dab76" stroke-opacity=".8" d="M111.76-104.14H106.68"/>
<path transform="matrix(2.334414,0,0,2.334414,69.882358,558)" stroke-width=".1524" stroke-linecap="round" stroke-miterlimit="4" stroke-linejoin="miter" fill="none" stroke="#0dab76" stroke-opacity=".8" d="M86.36-106.68V-104.14"/>
<path transform="matrix(2.334414,0,0,2.334414,69.882358,558)" stroke-width=".1524" stroke-linecap="round" stroke-miterlimit="4" stroke-linejoin="miter" fill="none" stroke="#0dab76" stroke-opacity=".8" d="M86.36-104.14H106.68"/>
<path transform="matrix(2.334414,0,0,2.334414,69.882358,558)" stroke-width=".1524" stroke-linecap="round" stroke-miterlimit="4" stroke-linejoin="miter" fill="none" stroke="#0dab76" stroke-opacity=".8" d="M81.28-109.22H88.9"/>
<path transform="matrix(2.334414,0,0,2.334414,69.882358,558)" stroke-width=".1524" stroke-linecap="round" stroke-miterlimit="4" stroke-linejoin="miter" fill="none" stroke="#0dab76" stroke-opacity=".8" d="M111.76-106.68H104.14"/>
<path transform="matrix(2.334414,0,0,2.334414,69.882358,558)" stroke-width=".1524" stroke-linecap="round" stroke-miterlimit="4" stroke-linejoin="miter" fill="none" stroke="#0dab76" stroke-opacity=".8" d="M88.9-109.22V-106.68"/>
<path transform="matrix(2.334414,0,0,2.334414,69.882358,558)" stroke-width=".1524" stroke-linecap="round" stroke-miterlimit="4" stroke-linejoin="miter" fill="none" stroke="#0dab76" stroke-opacity=".8" d="M88.9-106.68H104.14"/>
<path transform="matrix(2.334414,0,0,2.334414,69.882358,558)" stroke-width=".1524" stroke-linecap="round" stroke-miterlimit="4" stroke-linejoin="miter" fill="none" stroke="#0dab76" stroke-opacity=".8" d="M81.28-111.76H91.44"/>
<path transform="matrix(2.334414,0,0,2.334414,69.882358,558)" stroke-width=".1524" stroke-linecap="round" stroke-miterlimit="4" stroke-linejoin="miter" fill="none" stroke="#0dab76" stroke-opacity=".8" d="M111.76-109.22H101.6"/>
<path transform="matrix(2.334414,0,0,2.334414,69.882358,558)" stroke-width=".1524" stroke-linecap="round" stroke-miterlimit="4" stroke-linejoin="miter" fill="none" stroke="#0dab76" stroke-opacity=".8" d="M91.44-111.76V-109.22"/>
<path transform="matrix(2.334414,0,0,2.334414,69.882358,558)" stroke-width=".1524" stroke-linecap="round" stroke-miterlimit="4" stroke-linejoin="miter" fill="none" stroke="#0dab76" stroke-opacity=".8" d="M91.44-109.22H101.6"/>
<path transform="matrix(2.334414,0,0,2.334414,69.882358,558)" stroke-width=".1524" stroke-linecap="round" stroke-miterlimit="4" stroke-linejoin="miter" fill="none" stroke="#0dab76" stroke-opacity=".8" d="M81.28-114.3H93.98"/>
<path transform="matrix(2.334414,0,0,2.334414,69.882358,558)" stroke-width=".1524" stroke-linecap="round" stroke-miterlimit="4" stroke-linejoin="miter" fill="none" stroke="#0dab76" stroke-opacity=".8" d="M152.4-104.14H157.48"/>
<path transform="matrix(2.334414,0,0,2.334414,69.882358,558)" stroke-width=".1524" stroke-linecap="round" stroke-miterlimit="4" stroke-linejoin="miter" fill="none" stroke="#0dab76" stroke-opacity=".8" d="M93.98-114.3V-83.82"/>
<path transform="matrix(2.334414,0,0,2.334414,69.882358,558)" stroke-width=".1524" stroke-linecap="round" stroke-miterlimit="4" stroke-linejoin="miter" fill="none" stroke="#0dab76" stroke-opacity=".8" d="M157.48-104.14V-83.82"/>
<path transform="matrix(2.334414,0,0,2.334414,69.882358,558)" stroke-width=".1524" stroke-linecap="round" stroke-miterlimit="4" stroke-linejoin="miter" fill="none" stroke="#0dab76" stroke-opacity=".8" d="M93.98-83.82H157.48"/>
<path transform="matrix(2.334414,0,0,2.334414,69.882358,558)" stroke-width=".1524" stroke-linecap="round" stroke-miterlimit="4" stroke-linejoin="miter" fill="none" stroke="#0dab76" stroke-opacity=".8" d="M81.28-116.84H96.52"/>
<path transform="matrix(2.334414,0,0,2.334414,69.882358,558)" stroke-width=".1524" stroke-linecap="round" stroke-miterlimit="4" stroke-linejoin="miter" fill="none" stroke="#0dab76" stroke-opacity=".8" d="M152.4-109.22H162.56"/>
<path transform="matrix(2.334414,0,0,2.334414,69.882358,558)" stroke-width=".1524" stroke-linecap="round" stroke-miterlimit="4" stroke-linejoin="miter" fill="none" stroke="#0dab76" stroke-opacity=".8" d="M96.52-116.84V-86.36"/>
<path transform="matrix(2.334414,0,0,2.334414,69.882358,558)" stroke-width=".1524" stroke-linecap="round" stroke-miterlimit="4" stroke-linejoin="miter" fill="none" stroke="#0dab76" stroke-opacity=".8" d="M162.56-109.22V-86.36"/>
<path transform="matrix(2.334414,0,0,2.334414,69.882358,558)" stroke-width=".1524" stroke-linecap="round" stroke-miterlimit="4" stroke-linejoin="miter" fill="none" stroke="#0dab76" stroke-opacity=".8" d="M96.52-86.36H162.56"/>
<path transform="matrix(2.334414,0,0,2.334414,69.882358,558)" stroke-width=".1524" stroke-linecap="round" stroke-miterlimit="4" stroke-linejoin="miter" fill="none" stroke="#0dab76" stroke-opacity=".8" d="M55.88-132.08H50.8"/>
<path transform="matrix(2.334414,0,0,2.334414,69.882358,558)" stroke-width=".1524" stroke-linecap="round" stroke-miterlimit="4" stroke-linejoin="miter" fill="none" stroke="#0dab76" stroke-opacity=".8" d="M152.4-119.38H172.72"/>
<path transform="matrix(2.334414,0,0,2.334414,69.882358,558)" stroke-width=".1524" stroke-linecap="round" stroke-miterlimit="4" stroke-linejoin="miter" fill="none" stroke="#0dab76" stroke-opacity=".8" d="M50.8-132.08V-144.78"/>
<path transform="matrix(2.334414,0,0,2.334414,69.882358,558)" stroke-width=".1524" stroke-linecap="round" stroke-miterlimit="4" stroke-linejoin="miter" fill="none" stroke="#0dab76" stroke-opacity=".8" d="M111.76-147.32V-144.78"/>
<path transform="matrix(2.334414,0,0,2.334414,69.882358,558)" stroke-width=".1524" stroke-linecap="round" stroke-miterlimit="4" stroke-linejoin="miter" fill="none" stroke="#0dab76" stroke-opacity=".8" d="M50.8-144.78H111.76"/>
<path transform="matrix(2.334414,0,0,2.334414,69.882358,558)" stroke-width=".1524" stroke-linecap="round" stroke-miterlimit="4" stroke-linejoin="miter" fill="none" stroke="#0dab76" stroke-opacity=".8" d="M172.72-119.38V-144.78"/>
<path transform="matrix(2.334414,0,0,2.334414,69.882358,558)" stroke-width=".1524" stroke-linecap="round" stroke-miterlimit="4" stroke-linejoin="miter" fill="none" stroke="#0dab76" stroke-opacity=".8" d="M111.76-144.78H172.72"/>
<g>
<path transform="matrix(2.334414,0,0,2.334414,69.882358,558)" d="M111.78-144.78C111.78-144.77286 111.77619-144.76625 111.77-144.76268 111.76381-144.75911 111.75619-144.75911 111.75-144.76268 111.74381-144.76625 111.74-144.77286 111.74-144.78 111.74-144.78714 111.74381-144.79375 111.75-144.79732 111.75619-144.80089 111.76381-144.80089 111.77-144.79732 111.77619-144.79375 111.78-144.78714 111.78-144.78Z" fill="#0dab76" fill-opacity=".8"/>
<path transform="matrix(2.334414,0,0,2.334414,69.882358,558)" stroke-width="1" stroke-linecap="butt" stroke-miterlimit="4" stroke-linejoin="miter" fill="none" stroke="#0dab76" stroke-opacity=".8" d="M111.78-144.78C111.78-144.77286 111.77619-144.76625 111.77-144.76268 111.76381-144.75911 111.75619-144.75911 111.75-144.76268 111.74381-144.76625 111.74-144.77286 111.74-144.78 111.74-144.78714 111.74381-144.79375 111.75-144.79732 111.75619-144.80089 111.76381-144.80089 111.77-144.79732 111.77619-144.79375 111.78-144.78714 111.78-144.78Z"/>
</g>
<path transform="matrix(2.334414,0,0,2.334414,69.882358,558)" stroke-width=".1524" stroke-linecap="round" stroke-miterlimit="4" stroke-linejoin="miter" fill="none" stroke="#0dab76" stroke-opacity=".8" d="M152.4-116.84H170.18"/>
<path transform="matrix(2.334414,0,0,2.334414,69.882358,558)" stroke-width=".1524" stroke-linecap="round" stroke-miterlimit="4" stroke-linejoin="miter" fill="none" stroke="#0dab76" stroke-opacity=".8" d="M187.96-116.84H200.66"/>
<path transform="matrix(2.334414,0,0,2.334414,69.882358,558)" stroke-width=".1524" stroke-linecap="round" stroke-miterlimit="4" stroke-linejoin="miter" fill="none" stroke="#0dab76" stroke-opacity=".8" d="M170.18-116.84V-88.9"/>
<path transform="matrix(2.334414,0,0,2.334414,69.882358,558)" stroke-width=".1524" stroke-linecap="round" stroke-miterlimit="4" stroke-linejoin="miter" fill="none" stroke="#0dab76" stroke-opacity=".8" d="M200.66-116.84V-88.9"/>
<path transform="matrix(2.334414,0,0,2.334414,69.882358,558)" stroke-width=".1524" stroke-linecap="round" stroke-miterlimit="4" stroke-linejoin="miter" fill="none" stroke="#0dab76" stroke-opacity=".8" d="M170.18-88.9H200.66"/>
</svg>
