<svg xmlns="http://www.w3.org/2000/svg" xmlns:xlink="http://www.w3.org/1999/xlink" version="1.1" width="792pt" height="612pt" viewBox="0 0 792 612">
<path transform="matrix(2.334414,0,0,2.334414,69.882358,558)" stroke-width=".3048" stroke-linecap="round" stroke-miterlimit="4" stroke-linejoin="miter" fill="none" stroke="#c90d0c" stroke-opacity=".8" d="M0 0V-215.9"/>
<path transform="matrix(2.334414,0,0,2.334414,69.882358,558)" stroke-width=".3048" stroke-linecap="round" stroke-miterlimit="4" stroke-linejoin="miter" fill="none" stroke="#c90d0c" stroke-opacity=".8" d="M0-215.9H279.4"/>
<path transform="matrix(2.334414,0,0,2.334414,69.882358,558)" stroke-width=".3048" stroke-linecap="round" stroke-miterlimit="4" stroke-linejoin="miter" fill="none" stroke="#c90d0c" stroke-opacity=".8" d="M279.4-215.9V0"/>
<path transform="matrix(2.334414,0,0,2.334414,69.882358,558)" stroke-width=".3048" stroke-linecap="round" stroke-miterlimit="4" stroke-linejoin="miter" fill="none" stroke="#c90d0c" stroke-opacity=".8" d="M279.4 0H0"/>
<path transform="matrix(2.334414,0,0,2.334414,69.882358,558)" stroke-width=".1016" stroke-linecap="round" stroke-miterlimit="4" stroke-linejoin="miter" fill="none" stroke="#c90d0c" stroke-opacity=".8" d="M3.81 0V-212.09"/>
<text fill="#c90d0c" fill-opacity=".8" xml:space="preserve" transform="matrix(2.334414 0 0 2.334414 74.329418 112.404727)" font-size="3.429" font-family="Helvetica"><tspan y="0" x="-1.143571">A</tspan></text>
<text fill="#c90d0c" fill-opacity=".8" xml:space="preserve" transform="matrix(2.334414 0 0 2.334414 74.329418 211.4259)" font-size="3.429" font-family="Helvetica"><tspan y="0" x="-1.143571">B</tspan></text>
<path transform="matrix(2.334414,0,0,2.334414,69.882358,558)" stroke-width=".1016" stroke-linecap="round" stroke-miterlimit="4" stroke-linejoin="miter" fill="none" stroke="#c90d0c" stroke-opacity=".8" d="M0-169.672H3.81"/>
<text fill="#c90d0c" fill-opacity=".8" xml:space="preserve" transform="matrix(2.334414 0 0 2.334414 74.329418 310.44709)" font-size="3.429" font-family="Helvetica"><tspan y="0" x="-1.237869">C</tspan></text>
<path transform="matrix(2.334414,0,0,2.334414,69.882358,558)" stroke-width=".1016" stroke-linecap="round" stroke-miterlimit="4" stroke-linejoin="miter" fill="none" stroke="#c90d0c" stroke-opacity=".8" d="M0-127.254H3.81"/>
<text fill="#c90d0c" fill-opacity=".8" xml:space="preserve" transform="matrix(2.334414 0 0 2.334414 74.329418 409.46827)" font-size="3.429" font-family="Helvetica"><tspan y="0" x="-1.237869">D</tspan></text>
<path transform="matrix(2.334414,0,0,2.334414,69.882358,558)" stroke-width=".1016" stroke-linecap="round" stroke-miterlimit="4" stroke-linejoin="miter" fill="none" stroke="#c90d0c" stroke-opacity=".8" d="M0-84.836H3.81"/>
<text fill="#c90d0c" fill-opacity=".8" xml:space="preserve" transform="matrix(2.334414 0 0 2.334414 74.329418 508.4894)" font-size="3.429" font-family="Helvetica"><tspan y="0" x="-1.143571">E</tspan></text>
<path transform="matrix(2.334414,0,0,2.334414,69.882358,558)" stroke-width=".1016" stroke-linecap="round" stroke-miterlimit="4" stroke-linejoin="miter" fill="none" stroke="#c90d0c" stroke-opacity=".8" d="M0-42.418H3.81"/>
<path transform="matrix(2.334414,0,0,2.334414,69.882358,558)" stroke-width=".1016" stroke-linecap="round" stroke-miterlimit="4" stroke-linejoin="miter" fill="none" stroke="#c90d0c" stroke-opacity=".8" d="M3.81-212.09H275.59"/>
<text fill="#c90d0c" fill-opacity=".8" xml:space="preserve" transform="matrix(2.334414 0 0 2.334414 131.64707 58.447084)" font-size="3.429" font-family="Helvetica"><tspan y="0" x="-.953262">1</tspan></text>
<text fill="#c90d0c" fill-opacity=".8" xml:space="preserve" transform="matrix(2.334414 0 0 2.334414 237.38823 58.447084)" font-size="3.429" font-family="Helvetica"><tspan y="0" x="-.953262">2</tspan></text>
<path transform="matrix(2.334414,0,0,2.334414,69.882358,558)" stroke-width=".1016" stroke-linecap="round" stroke-miterlimit="4" stroke-linejoin="miter" fill="none" stroke="#c90d0c" stroke-opacity=".8" d="M49.106668-212.09V-215.9"/>
<text fill="#c90d0c" fill-opacity=".8" xml:space="preserve" transform="matrix(2.334414 0 0 2.334414 343.1294 58.447084)" font-size="3.429" font-family="Helvetica"><tspan y="0" x="-.953262">3</tspan></text>
<path transform="matrix(2.334414,0,0,2.334414,69.882358,558)" stroke-width=".1016" stroke-linecap="round" stroke-miterlimit="4" stroke-linejoin="miter" fill="none" stroke="#c90d0c" stroke-opacity=".8" d="M94.403339-212.09V-215.9"/>
<text fill="#c90d0c" fill-opacity=".8" xml:space="preserve" transform="matrix(2.334414 0 0 2.334414 448.87059 58.447084)" font-size="3.429" font-family="Helvetica"><tspan y="0" x="-.953262">4</tspan></text>
<path transform="matrix(2.334414,0,0,2.334414,69.882358,558)" stroke-width=".1016" stroke-linecap="round" stroke-miterlimit="4" stroke-linejoin="miter" fill="none" stroke="#c90d0c" stroke-opacity=".8" d="M139.7-212.09V-215.9"/>
<text fill="#c90d0c" fill-opacity=".8" xml:space="preserve" transform="matrix(2.334414 0 0 2.334414 554.61178 58.447084)" font-size="3.429" font-family="Helvetica"><tspan y="0" x="-.953262">5</tspan></text>
<path transform="matrix(2.334414,0,0,2.334414,69.882358,558)" stroke-width=".1016" stroke-linecap="round" stroke-miterlimit="4" stroke-linejoin="miter" fill="none" stroke="#c90d0c" stroke-opacity=".8" d="M184.99668-212.09V-215.9"/>
<text fill="#c90d0c" fill-opacity=".8" xml:space="preserve" transform="matrix(2.334414 0 0 2.334414 660.3529 58.447084)" font-size="3.429" font-family="Helvetica"><tspan y="0" x="-.953262">6</tspan></text>
<path transform="matrix(2.334414,0,0,2.334414,69.882358,558)" stroke-width=".1016" stroke-linecap="round" stroke-miterlimit="4" stroke-linejoin="miter" fill="none" stroke="#c90d0c" stroke-opacity=".8" d="M230.29334-212.09V-215.9"/>
<path transform="matrix(2.334414,0,0,2.334414,69.882358,558)" stroke-width=".1016" stroke-linecap="round" stroke-miterlimit="4" stroke-linejoin="miter" fill="none" stroke="#c90d0c" stroke-opacity=".8" d="M275.59-212.09V0"/>
<text fill="#c90d0c" fill-opacity=".8" xml:space="preserve" transform="matrix(2.334414 0 0 2.334414 717.67056 112.404727)" font-size="3.429" font-family="Helvetica"><tspan y="0" x="-1.143571">A</tspan></text>
<text fill="#c90d0c" fill-opacity=".8" xml:space="preserve" transform="matrix(2.334414 0 0 2.334414 717.67056 211.4259)" font-size="3.429" font-family="Helvetica"><tspan y="0" x="-1.143571">B</tspan></text>
<path transform="matrix(2.334414,0,0,2.334414,69.882358,558)" stroke-width=".1016" stroke-linecap="round" stroke-miterlimit="4" stroke-linejoin="miter" fill="none" stroke="#c90d0c" stroke-opacity=".8" d="M279.4-169.672H275.59"/>
<text fill="#c90d0c" fill-opacity=".8" xml:space="preserve" transform="matrix(2.334414 0 0 2.334414 717.67056 310.44709)" font-size="3.429" font-family="Helvetica"><tspan y="0" x="-1.237869">C</tspan></text>
<path transform="matrix(2.334414,0,0,2.334414,69.882358,558)" stroke-width=".1016" stroke-linecap="round" stroke-miterlimit="4" stroke-linejoin="miter" fill="none" stroke="#c90d0c" stroke-opacity=".8" d="M279.4-127.254H275.59"/>
<text fill="#c90d0c" fill-opacity=".8" xml:space="preserve" transform="matrix(2.334414 0 0 2.334414 717.67056 409.46827)" font-size="3.429" font-family="Helvetica"><tspan y="0" x="-1.237869">D</tspan></text>
<path transform="matrix(2.334414,0,0,2.334414,69.882358,558)" stroke-width=".1016" stroke-linecap="round" stroke-miterlimit="4" stroke-linejoin="miter" fill="none" stroke="#c90d0c" stroke-opacity=".8" d="M279.4-84.836H275.59"/>
<text fill="#c90d0c" fill-opacity=".8" xml:space="preserve" transform="matrix(2.334414 0 0 2.334414 717.67056 508.4894)" font-size="3.429" font-family="Helvetica"><tspan y="0" x="-1.143571">E</tspan></text>
<path transform="matrix(2.334414,0,0,2.334414,69.882358,558)" stroke-width=".1016" stroke-linecap="round" stroke-miterlimit="4" stroke-linejoin="miter" fill="none" stroke="#c90d0c" stroke-opacity=".8" d="M279.4-42.418H275.59"/>
<text fill="#c90d0c" fill-opacity=".8" xml:space="preserve" transform="matrix(2.334414 0 0 2.334414 84.70589 552.0706)" font-size="3.429" font-family="Helvetica"><tspan y="0" x="0 2.856357 4.7628815 6.6694056 8.57593 9.529192 12.0049309 12.766169 13.719431 15.625956 16.407769 18.502888 19.264126 21.17065 22.81657 24.723095 25.864953 27.579453 29.485978 31.392502">Made with Tinkercad&#x00ae;</tspan></text>
<path transform="matrix(2.334414,0,0,2.334414,476.04707,558)" stroke-width=".1016" stroke-linecap="round" stroke-miterlimit="4" stroke-linejoin="miter" fill="none" stroke="#c90d0c" stroke-opacity=".8" d="M0 0H101.6"/>
<path transform="matrix(2.334414,0,0,2.334414,476.04707,558)" stroke-width=".1016" stroke-linecap="round" stroke-miterlimit="4" stroke-linejoin="miter" fill="none" stroke="#c90d0c" stroke-opacity=".8" d="M0-7.62H101.6"/>
<path transform="matrix(2.334414,0,0,2.334414,476.04707,558)" stroke-width=".1016" stroke-linecap="round" stroke-miterlimit="4" stroke-linejoin="miter" fill="none" stroke="#c90d0c" stroke-opacity=".8" d="M0-15.24H101.6"/>
<path transform="matrix(2.334414,0,0,2.334414,476.04707,558)" stroke-width=".1016" stroke-linecap="round" stroke-miterlimit="4" stroke-linejoin="miter" fill="none" stroke="#c90d0c" stroke-opacity=".8" d="M0 0V-7.62"/>
<path transform="matrix(2.334414,0,0,2.334414,476.04707,558)" stroke-width=".1016" stroke-linecap="round" stroke-miterlimit="4" stroke-linejoin="miter" fill="none" stroke="#c90d0c" stroke-opacity=".8" d="M0-7.62V-15.24"/>
<path transform="matrix(2.334414,0,0,2.334414,476.04707,558)" stroke-width=".1016" stroke-linecap="round" stroke-miterlimit="4" stroke-linejoin="miter" fill="none" stroke="#c90d0c" stroke-opacity=".8" d="M101.6 0V-7.62"/>
<path transform="matrix(2.334414,0,0,2.334414,476.04707,558)" stroke-width=".1016" stroke-linecap="round" stroke-miterlimit="4" stroke-linejoin="miter" fill="none" stroke="#c90d0c" stroke-opacity=".8" d="M101.6-5.08V-15.24"/>
<text fill="#c90d0c" fill-opacity=".8" xml:space="preserve" transform="matrix(2.334414 0 0 2.334414 481.97648 534.28237)" font-size="3.429" font-family="Helvetica"><tspan y="0" x="0 2.095119 2.856357 3.8096193 4.570857 6.477381">Title:</tspan></text>
<text fill="#c90d0c" fill-opacity=".8" xml:space="preserve" transform="matrix(2.334414 0 0 2.334414 505.69413 534.28237)" font-size="3.429" font-family="Helvetica"><tspan y="0" x="0 1.683639 2.8254963 4.7320206 7.5883777 9.494902 11.401426 13.307951 15.214476 17.121 18.8355 19.788763 22.075907 23.02917 24.935694 26.842219 27.79548 28.556719">Tremendous Stantia</tspan></text>
<text fill="#c90d0c" fill-opacity=".8" xml:space="preserve" transform="matrix(2.334414 0 0 2.334414 481.97648 552.0706)" font-size="3.429" font-family="Helvetica"><tspan y="0" x="0 2.475738 4.382262 5.3355247 7.2420489">Date:</tspan></text>
<text fill="#c90d0c" fill-opacity=".8" xml:space="preserve" transform="matrix(2.334414 0 0 2.334414 505.69413 552.0706)" font-size="3.429" font-family="Helvetica"><tspan y="0" x="0 1.9065242 2.8597863 4.7663109 5.719573 7.626097 9.532621 11.439146 13.345671 14.298933 15.252195 17.15872 18.111983 20.018507 21.925032 22.878294 24.784819 26.691344 27.644606 29.93175">4/3/2024, 8:52:51 PM</tspan></text>
<text fill="#c90d0c" fill-opacity=".8" xml:space="preserve" transform="matrix(2.334414 0 0 2.334414 653.92947 552.0706)" font-size="3.429" font-family="Helvetica"><tspan y="0" x="0 2.2871433 4.1936676 6.1001918 8.006716 8.959978">Sheet:</tspan></text>
<text fill="#c90d0c" fill-opacity=".8" xml:space="preserve" transform="matrix(2.334414 0 0 2.334414 683.57656 552.0706)" font-size="3.429" font-family="Helvetica"><tspan y="0" x="0 1.9065242 2.8597863">1/1</tspan></text>
<path transform="matrix(2.334414,0,0,2.334414,241.8353,303.03529)" stroke-width=".254" stroke-linecap="round" stroke-miterlimit="4" stroke-linejoin="miter" fill="none" stroke="#c90d0c" stroke-opacity=".8" d="M2.54 2.54V-2.54"/>
<path transform="matrix(2.334414,0,0,2.334414,241.8353,303.03529)" stroke-width=".254" stroke-linecap="round" stroke-miterlimit="4" stroke-linejoin="miter" fill="none" stroke="#c90d0c" stroke-opacity=".8" d="M2.54-2.54-2.54 0"/>
<path transform="matrix(2.334414,0,0,2.334414,241.8353,303.03529)" stroke-width=".254" stroke-linecap="round" stroke-miterlimit="4" stroke-linejoin="miter" fill="none" stroke="#c90d0c" stroke-opacity=".8" d="M-2.54 0 2.54 2.54"/>
<path transform="matrix(2.334414,0,0,2.334414,241.8353,303.03529)" stroke-width=".254" stroke-linecap="round" stroke-miterlimit="4" stroke-linejoin="miter" fill="none" stroke="#c90d0c" stroke-opacity=".8" d="M-2.54-2.54V2.54"/>
<path transform="matrix(-2.334414,0,0,-2.334414,253.69412,303.03529)" stroke-width=".1524" stroke-linecap="round" stroke-miterlimit="4" stroke-linejoin="miter" fill="none" stroke="#c90d0c" stroke-opacity=".8" d="M0 0H2.54"/>
<path transform="matrix(2.334414,0,0,2.334414,229.97647,303.03529)" stroke-width=".1524" stroke-linecap="round" stroke-miterlimit="4" stroke-linejoin="miter" fill="none" stroke="#c90d0c" stroke-opacity=".8" d="M0 0H2.54"/>
<text fill="#808080" fill-opacity=".73" xml:space="preserve" transform="matrix(2.334414 0 0 2.334414 241.8353 291.17649)" font-size="2.4003" font-family="Helvetica"><tspan y="0" x="-1.533792 .19922471">D1</tspan></text>
<path transform="matrix(2.334414,0,0,2.334414,307.0588,303.03529)" stroke-width=".254" stroke-linecap="round" stroke-miterlimit="4" stroke-linejoin="miter" fill="none" stroke="#c90d0c" stroke-opacity=".8" d="M-7.366-2.54H-10.16"/>
<path transform="matrix(2.334414,0,0,2.334414,307.0588,303.03529)" stroke-width=".254" stroke-linecap="round" stroke-miterlimit="4" stroke-linejoin="miter" fill="none" stroke="#c90d0c" stroke-opacity=".8" d="M-10.16-2.54V2.54"/>
<path transform="matrix(2.334414,0,0,2.334414,307.0588,303.03529)" stroke-width=".254" stroke-linecap="round" stroke-miterlimit="4" stroke-linejoin="miter" fill="none" stroke="#c90d0c" stroke-opacity=".8" d="M-10.16 2.54H-7.366"/>
<path transform="matrix(2.334414,0,0,2.334414,307.0588,303.03529)" stroke-width=".254" stroke-linecap="round" stroke-miterlimit="4" stroke-linejoin="miter" fill="none" stroke="#c90d0c" stroke-opacity=".8" d="M7.366-2.54H10.16"/>
<path transform="matrix(2.334414,0,0,2.334414,307.0588,303.03529)" stroke-width=".254" stroke-linecap="round" stroke-miterlimit="4" stroke-linejoin="miter" fill="none" stroke="#c90d0c" stroke-opacity=".8" d="M10.16-2.54V2.54"/>
<path transform="matrix(2.334414,0,0,2.334414,307.0588,303.03529)" stroke-width=".254" stroke-linecap="round" stroke-miterlimit="4" stroke-linejoin="miter" fill="none" stroke="#c90d0c" stroke-opacity=".8" d="M10.16 2.54H7.366"/>
<path transform="matrix(2.334414,0,0,2.334414,307.0588,303.03529)" stroke-width=".254" stroke-linecap="round" stroke-miterlimit="4" stroke-linejoin="miter" fill="none" stroke="#c90d0c" stroke-opacity=".8" d="M-8.382 0H-9.398"/>
<path transform="matrix(2.334414,0,0,2.334414,307.0588,303.03529)" stroke-width=".254" stroke-linecap="round" stroke-miterlimit="4" stroke-linejoin="miter" fill="none" stroke="#c90d0c" stroke-opacity=".8" d="M9.398 0H8.382"/>
<path transform="matrix(2.334414,0,0,2.334414,307.0588,303.03529)" stroke-width=".254" stroke-linecap="round" stroke-miterlimit="4" stroke-linejoin="miter" fill="none" stroke="#c90d0c" stroke-opacity=".8" d="M8.89-.508V.508"/>
<path transform="matrix(2.334414,0,0,2.334414,307.0588,303.03529)" stroke-width=".254" stroke-linecap="butt" stroke-miterlimit="4" stroke-linejoin="miter" fill="none" stroke="#c90d0c" stroke-opacity=".8" d="M7.62 0C7.62 2.722364 6.167636 5.237932 3.81 6.599114 1.452364 7.960295-1.452364 7.960295-3.81 6.599114-6.167636 5.237932-7.62 2.722364-7.62 0-7.62-2.722364-6.167636-5.237932-3.81-6.599114-1.452364-7.960295 1.452364-7.960295 3.81-6.599114 6.167636-5.237932 7.62-2.722364 7.62 0Z"/>
<path transform="matrix(-2.334414,0,0,-2.334414,336.70588,303.03529)" stroke-width=".1524" stroke-linecap="round" stroke-miterlimit="4" stroke-linejoin="miter" fill="none" stroke="#c90d0c" stroke-opacity=".8" d="M0 0H2.54"/>
<path transform="matrix(2.334414,0,0,2.334414,277.41175,303.03529)" stroke-width=".1524" stroke-linecap="round" stroke-miterlimit="4" stroke-linejoin="miter" fill="none" stroke="#c90d0c" stroke-opacity=".8" d="M0 0H2.54"/>
<text fill="#c90d0c" fill-opacity=".8" xml:space="preserve" transform="matrix(2.334414 0 0 2.334414 307.0588 303.03529)" font-size="8.70966" font-family="Helvetica"><tspan y="0" x="-3.627573">M</tspan></text>
<text fill="#808080" fill-opacity=".73" xml:space="preserve" transform="matrix(2.334414 0 0 2.334414 307.0588 283.46827)" font-size="2.4003" font-family="Helvetica"><tspan y="0" x="-1.667008 .33244206">M1</tspan></text>
<path transform="matrix(2.334414,0,0,2.334414,390.0706,303.03529)" stroke-width=".254" stroke-linecap="round" stroke-miterlimit="4" stroke-linejoin="miter" fill="none" stroke="#c90d0c" stroke-opacity=".8" d="M10.16 17.78V-25.4"/>
<path transform="matrix(2.334414,0,0,2.334414,390.0706,303.03529)" stroke-width=".254" stroke-linecap="round" stroke-miterlimit="4" stroke-linejoin="miter" fill="none" stroke="#c90d0c" stroke-opacity=".8" d="M10.16-25.4H-10.16"/>
<path transform="matrix(2.334414,0,0,2.334414,390.0706,303.03529)" stroke-width=".254" stroke-linecap="round" stroke-miterlimit="4" stroke-linejoin="miter" fill="none" stroke="#c90d0c" stroke-opacity=".8" d="M-10.16-25.4V17.78"/>
<path transform="matrix(2.334414,0,0,2.334414,390.0706,303.03529)" stroke-width=".254" stroke-linecap="round" stroke-miterlimit="4" stroke-linejoin="miter" fill="none" stroke="#c90d0c" stroke-opacity=".8" d="M-10.16 17.78H10.16"/>
<path transform="matrix(-2.334414,0,0,-2.334414,419.71766,297.10588)" stroke-width=".1524" stroke-linecap="round" stroke-miterlimit="4" stroke-linejoin="miter" fill="none" stroke="#c90d0c" stroke-opacity=".8" d="M0 0H2.54"/>
<text fill="#808080" fill-opacity=".73" xml:space="preserve" transform="matrix(2.334414 0 -0 2.334414 419.71766 297.10588)" font-size="1.778" font-family="Helvetica"><tspan y="0" x="-7.254494 -6.068568">A0</tspan></text>
<path transform="matrix(-2.334414,0,0,-2.334414,419.71766,303.03529)" stroke-width=".1524" stroke-linecap="round" stroke-miterlimit="4" stroke-linejoin="miter" fill="none" stroke="#c90d0c" stroke-opacity=".8" d="M0 0H2.54"/>
<text fill="#808080" fill-opacity=".73" xml:space="preserve" transform="matrix(2.334414 0 -0 2.334414 419.71766 303.03529)" font-size="1.778" font-family="Helvetica"><tspan y="0" x="-7.254494 -6.068568">A1</tspan></text>
<path transform="matrix(-2.334414,0,0,-2.334414,419.71766,308.9647)" stroke-width=".1524" stroke-linecap="round" stroke-miterlimit="4" stroke-linejoin="miter" fill="none" stroke="#c90d0c" stroke-opacity=".8" d="M0 0H2.54"/>
<text fill="#808080" fill-opacity=".73" xml:space="preserve" transform="matrix(2.334414 0 -0 2.334414 419.71766 308.9647)" font-size="1.778" font-family="Helvetica"><tspan y="0" x="-7.254494 -6.068568">A2</tspan></text>
<path transform="matrix(-2.334414,0,0,-2.334414,419.71766,314.8941)" stroke-width=".1524" stroke-linecap="round" stroke-miterlimit="4" stroke-linejoin="miter" fill="none" stroke="#c90d0c" stroke-opacity=".8" d="M0 0H2.54"/>
<text fill="#808080" fill-opacity=".73" xml:space="preserve" transform="matrix(2.334414 0 -0 2.334414 419.71766 314.8941)" font-size="1.778" font-family="Helvetica"><tspan y="0" x="-7.254494 -6.068568">A3</tspan></text>
<path transform="matrix(-2.334414,0,0,-2.334414,419.71766,320.82353)" stroke-width=".1524" stroke-linecap="round" stroke-miterlimit="4" stroke-linejoin="miter" fill="none" stroke="#c90d0c" stroke-opacity=".8" d="M0 0H2.54"/>
<text fill="#808080" fill-opacity=".73" xml:space="preserve" transform="matrix(2.334414 0 -0 2.334414 419.71766 320.82353)" font-size="1.778" font-family="Helvetica"><tspan y="0" x="-7.254494 -6.068568">A4</tspan></text>
<path transform="matrix(-2.334414,0,0,-2.334414,419.71766,326.75294)" stroke-width=".1524" stroke-linecap="round" stroke-miterlimit="4" stroke-linejoin="miter" fill="none" stroke="#c90d0c" stroke-opacity=".8" d="M0 0H2.54"/>
<text fill="#808080" fill-opacity=".73" xml:space="preserve" transform="matrix(2.334414 0 -0 2.334414 419.71766 326.75294)" font-size="1.778" font-family="Helvetica"><tspan y="0" x="-7.254494 -6.068568">A5</tspan></text>
<path transform="matrix(-2.334414,0,0,-2.334414,419.71766,279.31764)" stroke-width=".1524" stroke-linecap="round" stroke-miterlimit="4" stroke-linejoin="miter" fill="none" stroke="#c90d0c" stroke-opacity=".8" d="M0 0H2.54"/>
<text fill="#808080" fill-opacity=".73" xml:space="preserve" transform="matrix(2.334414 0 -0 2.334414 419.71766 279.31764)" font-size="1.778" font-family="Helvetica"><tspan y="0" x="-10.513568 -10.019284 -8.636 -7.3522837 -6.1663577">IOREF</tspan></text>
<path transform="matrix(-2.334414,0,0,-2.334414,419.71766,285.24705)" stroke-width=".1524" stroke-linecap="round" stroke-miterlimit="4" stroke-linejoin="miter" fill="none" stroke="#c90d0c" stroke-opacity=".8" d="M0 0H2.54"/>
<text fill="#808080" fill-opacity=".73" xml:space="preserve" transform="matrix(2.334414 0 -0 2.334414 419.71766 285.24705)" font-size="1.778" font-family="Helvetica"><tspan y="0" x="-8.735568 -7.451852 -6.265926">RES</tspan></text>
<path transform="matrix(-2.334414,0,0,-2.334414,419.71766,249.67058)" stroke-width=".1524" stroke-linecap="round" stroke-miterlimit="4" stroke-linejoin="miter" fill="none" stroke="#c90d0c" stroke-opacity=".8" d="M0 0H2.54"/>
<text fill="#808080" fill-opacity=".73" xml:space="preserve" transform="matrix(2.334414 0 -0 2.334414 419.71766 249.67058)" font-size="1.778" font-family="Helvetica"><tspan y="0" x="-8.043926 -6.8580005 -6.363716">VIN</tspan></text>
<path transform="matrix(-2.334414,0,0,-2.334414,419.71766,255.59999)" stroke-width=".1524" stroke-linecap="round" stroke-miterlimit="4" stroke-linejoin="miter" fill="none" stroke="#c90d0c" stroke-opacity=".8" d="M0 0H2.54"/>
<text fill="#808080" fill-opacity=".73" xml:space="preserve" transform="matrix(2.334414 0 -0 2.334414 419.71766 255.59999)" font-size="1.778" font-family="Helvetica"><tspan y="0" x="-7.254494 -6.2659265">5V</tspan></text>
<path transform="matrix(-2.334414,0,0,-2.334414,419.71766,261.5294)" stroke-width=".1524" stroke-linecap="round" stroke-miterlimit="4" stroke-linejoin="miter" fill="none" stroke="#c90d0c" stroke-opacity=".8" d="M0 0H2.54"/>
<text fill="#808080" fill-opacity=".73" xml:space="preserve" transform="matrix(2.334414 0 -0 2.334414 419.71766 261.5294)" font-size="1.778" font-family="Helvetica"><tspan y="0" x="-8.737346 -7.7487776 -7.254493 -6.2659256">3.3V</tspan></text>
<path transform="matrix(-2.334414,0,0,-2.334414,419.71766,273.3882)" stroke-width=".1524" stroke-linecap="round" stroke-miterlimit="4" stroke-linejoin="miter" fill="none" stroke="#c90d0c" stroke-opacity=".8" d="M0 0H2.54"/>
<text fill="#808080" fill-opacity=".73" xml:space="preserve" transform="matrix(2.334414 0 -0 2.334414 419.71766 273.3882)" font-size="1.778" font-family="Helvetica"><tspan y="0" x="-9.821926 -8.636 -7.3522837 -6.1663577">AREF</tspan></text>
<path transform="matrix(-2.334414,0,0,-2.334414,419.71766,338.61177)" stroke-width=".1524" stroke-linecap="round" stroke-miterlimit="4" stroke-linejoin="miter" fill="none" stroke="#c90d0c" stroke-opacity=".8" d="M0 0H2.54"/>
<text fill="#808080" fill-opacity=".73" xml:space="preserve" transform="matrix(2.334414 0 -0 2.334414 419.71766 338.61177)" font-size="1.778" font-family="Helvetica"><tspan y="0" x="-9.030716 -7.647432 -6.3637158">GND</tspan></text>
<path transform="matrix(2.334414,0,0,2.334414,360.42353,249.67058)" stroke-width=".1524" stroke-linecap="round" stroke-miterlimit="4" stroke-linejoin="miter" fill="none" stroke="#c90d0c" stroke-opacity=".8" d="M0 0H2.54"/>
<text fill="#808080" fill-opacity=".73" xml:space="preserve" transform="matrix(2.334414 0 0 2.334414 360.42353 249.67058)" font-size="1.778" font-family="Helvetica"><tspan y="0" x="5.08 6.363716">RX</tspan></text>
<path transform="matrix(2.334414,0,0,2.334414,360.42353,255.59999)" stroke-width=".1524" stroke-linecap="round" stroke-miterlimit="4" stroke-linejoin="miter" fill="none" stroke="#c90d0c" stroke-opacity=".8" d="M0 0H2.54"/>
<text fill="#808080" fill-opacity=".73" xml:space="preserve" transform="matrix(2.334414 0 0 2.334414 360.42353 255.59999)" font-size="1.778" font-family="Helvetica"><tspan y="0" x="5.08 6.166358">TX</tspan></text>
<path transform="matrix(2.334414,0,0,2.334414,360.42353,261.5294)" stroke-width=".1524" stroke-linecap="round" stroke-miterlimit="4" stroke-linejoin="miter" fill="none" stroke="#c90d0c" stroke-opacity=".8" d="M0 0H2.54"/>
<text fill="#808080" fill-opacity=".73" xml:space="preserve" transform="matrix(2.334414 0 0 2.334414 360.42353 261.5294)" font-size="1.778" font-family="Helvetica"><tspan y="0" x="5.08 6.363716">D2</tspan></text>
<path transform="matrix(2.334414,0,0,2.334414,360.42353,326.75294)" stroke-width=".1524" stroke-linecap="round" stroke-miterlimit="4" stroke-linejoin="miter" fill="none" stroke="#c90d0c" stroke-opacity=".8" d="M0 0H2.54"/>
<text fill="#808080" fill-opacity=".73" xml:space="preserve" transform="matrix(2.334414 0 0 2.334414 360.42353 326.75294)" font-size="1.778" font-family="Helvetica"><tspan y="0" x="5.08 6.363716 7.3522846">D13</tspan></text>
<path transform="matrix(2.334414,0,0,2.334414,360.42353,267.4588)" stroke-width=".1524" stroke-linecap="round" stroke-miterlimit="4" stroke-linejoin="miter" fill="none" stroke="#c90d0c" stroke-opacity=".8" d="M0 0H2.54"/>
<text fill="#808080" fill-opacity=".73" xml:space="preserve" transform="matrix(2.334414 0 0 2.334414 360.42353 267.4588)" font-size="1.778" font-family="Helvetica"><tspan y="0" x="5.08 6.363716">D3</tspan></text>
<path transform="matrix(2.334414,0,0,2.334414,360.42353,273.3882)" stroke-width=".1524" stroke-linecap="round" stroke-miterlimit="4" stroke-linejoin="miter" fill="none" stroke="#c90d0c" stroke-opacity=".8" d="M0 0H2.54"/>
<text fill="#808080" fill-opacity=".73" xml:space="preserve" transform="matrix(2.334414 0 0 2.334414 360.42353 273.3882)" font-size="1.778" font-family="Helvetica"><tspan y="0" x="5.08 6.363716">D4</tspan></text>
<path transform="matrix(2.334414,0,0,2.334414,360.42353,279.31764)" stroke-width=".1524" stroke-linecap="round" stroke-miterlimit="4" stroke-linejoin="miter" fill="none" stroke="#c90d0c" stroke-opacity=".8" d="M0 0H2.54"/>
<text fill="#808080" fill-opacity=".73" xml:space="preserve" transform="matrix(2.334414 0 0 2.334414 360.42353 279.31764)" font-size="1.778" font-family="Helvetica"><tspan y="0" x="5.08 6.363716">D5</tspan></text>
<path transform="matrix(2.334414,0,0,2.334414,360.42353,285.24705)" stroke-width=".1524" stroke-linecap="round" stroke-miterlimit="4" stroke-linejoin="miter" fill="none" stroke="#c90d0c" stroke-opacity=".8" d="M0 0H2.54"/>
<text fill="#808080" fill-opacity=".73" xml:space="preserve" transform="matrix(2.334414 0 0 2.334414 360.42353 285.24705)" font-size="1.778" font-family="Helvetica"><tspan y="0" x="5.08 6.363716">D6</tspan></text>
<path transform="matrix(2.334414,0,0,2.334414,360.42353,291.17646)" stroke-width=".1524" stroke-linecap="round" stroke-miterlimit="4" stroke-linejoin="miter" fill="none" stroke="#c90d0c" stroke-opacity=".8" d="M0 0H2.54"/>
<text fill="#808080" fill-opacity=".73" xml:space="preserve" transform="matrix(2.334414 0 0 2.334414 360.42353 291.17646)" font-size="1.778" font-family="Helvetica"><tspan y="0" x="5.08 6.363716">D7</tspan></text>
<path transform="matrix(2.334414,0,0,2.334414,360.42353,297.10588)" stroke-width=".1524" stroke-linecap="round" stroke-miterlimit="4" stroke-linejoin="miter" fill="none" stroke="#c90d0c" stroke-opacity=".8" d="M0 0H2.54"/>
<text fill="#808080" fill-opacity=".73" xml:space="preserve" transform="matrix(2.334414 0 0 2.334414 360.42353 297.10588)" font-size="1.778" font-family="Helvetica"><tspan y="0" x="5.08 6.363716">D8</tspan></text>
<path transform="matrix(2.334414,0,0,2.334414,360.42353,303.03529)" stroke-width=".1524" stroke-linecap="round" stroke-miterlimit="4" stroke-linejoin="miter" fill="none" stroke="#c90d0c" stroke-opacity=".8" d="M0 0H2.54"/>
<text fill="#808080" fill-opacity=".73" xml:space="preserve" transform="matrix(2.334414 0 0 2.334414 360.42353 303.03529)" font-size="1.778" font-family="Helvetica"><tspan y="0" x="5.08 6.363716">D9</tspan></text>
<path transform="matrix(2.334414,0,0,2.334414,360.42353,308.9647)" stroke-width=".1524" stroke-linecap="round" stroke-miterlimit="4" stroke-linejoin="miter" fill="none" stroke="#c90d0c" stroke-opacity=".8" d="M0 0H2.54"/>
<text fill="#808080" fill-opacity=".73" xml:space="preserve" transform="matrix(2.334414 0 0 2.334414 360.42353 308.9647)" font-size="1.778" font-family="Helvetica"><tspan y="0" x="5.08 6.363716 7.3522846">D10</tspan></text>
<path transform="matrix(2.334414,0,0,2.334414,360.42353,314.8941)" stroke-width=".1524" stroke-linecap="round" stroke-miterlimit="4" stroke-linejoin="miter" fill="none" stroke="#c90d0c" stroke-opacity=".8" d="M0 0H2.54"/>
<text fill="#808080" fill-opacity=".73" xml:space="preserve" transform="matrix(2.334414 0 0 2.334414 360.42353 314.8941)" font-size="1.778" font-family="Helvetica"><tspan y="0" x="5.08 6.363716 7.3522846">D11</tspan></text>
<path transform="matrix(2.334414,0,0,2.334414,360.42353,320.82353)" stroke-width=".1524" stroke-linecap="round" stroke-miterlimit="4" stroke-linejoin="miter" fill="none" stroke="#c90d0c" stroke-opacity=".8" d="M0 0H2.54"/>
<text fill="#808080" fill-opacity=".73" xml:space="preserve" transform="matrix(2.334414 0 0 2.334414 360.42353 320.82353)" font-size="1.778" font-family="Helvetica"><tspan y="0" x="5.08 6.363716 7.3522846">D12</tspan></text>
<path transform="matrix(2.334414,0,0,2.334414,360.42353,332.68235)" stroke-width=".1524" stroke-linecap="round" stroke-miterlimit="4" stroke-linejoin="miter" fill="none" stroke="#c90d0c" stroke-opacity=".8" d="M0 0H2.54"/>
<text fill="#808080" fill-opacity=".73" xml:space="preserve" transform="matrix(2.334414 0 0 2.334414 360.42353 332.68235)" font-size="1.778" font-family="Helvetica"><tspan y="0" x="5.08 6.265926 7.4785225">SDA</tspan></text>
<path transform="matrix(2.334414,0,0,2.334414,360.42353,338.61177)" stroke-width=".1524" stroke-linecap="round" stroke-miterlimit="4" stroke-linejoin="miter" fill="none" stroke="#c90d0c" stroke-opacity=".8" d="M0 0H2.54"/>
<text fill="#808080" fill-opacity=".73" xml:space="preserve" transform="matrix(2.334414 0 0 2.334414 360.42353 338.61177)" font-size="1.778" font-family="Helvetica"><tspan y="0" x="5.08 6.265926 7.549642">SCL</tspan></text>
<text fill="#c90d0c" fill-opacity=".8" xml:space="preserve" transform="matrix(2.334414 0 0 2.334414 390.0706 294.14118)" font-size="2.4003" font-family="Helvetica"><tspan y="0" x="-4.135717 -2.5347167 -1.7354167 -.4008497 .93371728 1.466584 2.8011509">Arduino</tspan></text>
<text fill="#c90d0c" fill-opacity=".8" xml:space="preserve" transform="matrix(2.334414 0 0 2.334414 390.0706 300.36708)" font-size="2.4003" font-family="Helvetica"><tspan y="0" x="-2.666733 -.9337163 .79930046">UNO</tspan></text>
<text fill="#808080" fill-opacity=".73" xml:space="preserve" transform="matrix(2.334414 0 0 2.334414 390.0706 240.77649)" font-size="2.4003" font-family="Helvetica"><tspan y="0" x="-1.533792 .19922471">U1</tspan></text>
<path transform="matrix(2.334414,0,0,2.334414,473.08235,303.03529)" stroke-width=".4064" stroke-linecap="round" stroke-miterlimit="4" stroke-linejoin="miter" fill="none" stroke="#c90d0c" stroke-opacity=".8" d="M-5.08-1.27V1.27"/>
<path transform="matrix(2.334414,0,0,2.334414,473.08235,303.03529)" stroke-width=".4064" stroke-linecap="round" stroke-miterlimit="4" stroke-linejoin="miter" fill="none" stroke="#c90d0c" stroke-opacity=".8" d="M-5.08 1.27H5.08"/>
<path transform="matrix(2.334414,0,0,2.334414,473.08235,303.03529)" stroke-width=".4064" stroke-linecap="round" stroke-miterlimit="4" stroke-linejoin="miter" fill="none" stroke="#c90d0c" stroke-opacity=".8" d="M5.08 1.27V-1.27"/>
<path transform="matrix(2.334414,0,0,2.334414,473.08235,303.03529)" stroke-width=".4064" stroke-linecap="round" stroke-miterlimit="4" stroke-linejoin="miter" fill="none" stroke="#c90d0c" stroke-opacity=".8" d="M5.08-1.27H-5.08"/>
<path transform="matrix(2.334414,0,0,2.334414,473.08235,303.03529)" stroke-width=".4064" stroke-linecap="round" stroke-miterlimit="4" stroke-linejoin="miter" fill="none" stroke="#c90d0c" stroke-opacity=".8" d="M-2.54-2.54H2.54"/>
<path transform="matrix(2.334414,0,0,2.334414,455.2941,303.03529)" stroke-width=".1524" stroke-linecap="round" stroke-miterlimit="4" stroke-linejoin="miter" fill="none" stroke="#c90d0c" stroke-opacity=".8" d="M0 0H2.54"/>
<path transform="matrix(-2.334414,0,0,-2.334414,490.87059,303.03529)" stroke-width=".1524" stroke-linecap="round" stroke-miterlimit="4" stroke-linejoin="miter" fill="none" stroke="#c90d0c" stroke-opacity=".8" d="M0 0H2.54"/>
<path transform="matrix(0,2.334414,-2.334414,0,473.08235,291.17646)" stroke-width=".1524" stroke-linecap="round" stroke-miterlimit="4" stroke-linejoin="miter" fill="none" stroke="#c90d0c" stroke-opacity=".8" d="M0 0H2.54"/>
<text fill="#808080" fill-opacity=".73" xml:space="preserve" transform="matrix(2.334414 0 0 2.334414 476.04707 294.14118)" font-size="2.4003" font-family="Helvetica"><tspan y="0" x="0 1.7330167 3.334017 5.105438 6.5720217">RPOT2</tspan></text>
<text fill="#808080" fill-opacity=".73" xml:space="preserve" transform="matrix(2.334414 0 0 2.334414 476.04707 311.9294)" font-size="2.4003" font-family="Helvetica"><tspan y="0" x="0 1.334567 2.669134 4.0037009">200k</tspan></text>
<path transform="matrix(2.334414,0,0,2.334414,467.15293,214.09412)" stroke-width=".254" stroke-linecap="round" stroke-miterlimit="4" stroke-linejoin="miter" fill="none" stroke="#c90d0c" stroke-opacity=".8" d="M0 0-1.27 1.905"/>
<path transform="matrix(2.334414,0,0,2.334414,467.15293,214.09412)" stroke-width=".254" stroke-linecap="round" stroke-miterlimit="4" stroke-linejoin="miter" fill="none" stroke="#c90d0c" stroke-opacity=".8" d="M0 0 1.27 1.905"/>
<path transform="matrix(0,-2.334414,2.334414,0,467.15293,220.02353)" stroke-width=".1524" stroke-linecap="round" stroke-miterlimit="4" stroke-linejoin="miter" fill="none" stroke="#c90d0c" stroke-opacity=".8" d="M0 0H2.54"/>
<text fill="#808080" fill-opacity=".73" xml:space="preserve" transform="matrix(2.334414 0 0 2.334414 464.18824 211.12943)" font-size="2.4003" font-family="Helvetica"><tspan y="0" x="0 1.7330167 3.0675836 4.4021508 5.7367179">U1_5V</tspan></text>
<path transform="matrix(2.334414,0,0,2.334414,336.70588,374.18824)" stroke-width=".254" stroke-linecap="round" stroke-miterlimit="4" stroke-linejoin="miter" fill="none" stroke="#c90d0c" stroke-opacity=".8" d="M-1.27-1.905 0 0"/>
<path transform="matrix(2.334414,0,0,2.334414,336.70588,374.18824)" stroke-width=".254" stroke-linecap="round" stroke-miterlimit="4" stroke-linejoin="miter" fill="none" stroke="#c90d0c" stroke-opacity=".8" d="M0 0 1.27-1.905"/>
<path transform="matrix(0,2.334414,-2.334414,0,336.70588,368.25883)" stroke-width=".1524" stroke-linecap="round" stroke-miterlimit="4" stroke-linejoin="miter" fill="none" stroke="#c90d0c" stroke-opacity=".8" d="M0 0H2.54"/>
<text fill="#808080" fill-opacity=".73" xml:space="preserve" transform="matrix(2.334414 0 0 2.334414 333.74119 380.11769)" font-size="2.4003" font-family="Helvetica"><tspan y="0" x="0 1.7330167 3.0675836 4.4021508 6.269584 8.002601">U1_GND</tspan></text>
<path transform="matrix(2.334414,0,0,2.334414,69.882358,558)" stroke-width=".1524" stroke-linecap="round" stroke-miterlimit="4" stroke-linejoin="miter" fill="none" stroke="#0dab76" stroke-opacity=".8" d="M78.74-109.22H81.28"/>
<path transform="matrix(2.334414,0,0,2.334414,69.882358,558)" stroke-width=".1524" stroke-linecap="round" stroke-miterlimit="4" stroke-linejoin="miter" fill="none" stroke="#0dab76" stroke-opacity=".8" d="M88.9-109.22H86.36"/>
<path transform="matrix(2.334414,0,0,2.334414,69.882358,558)" stroke-width=".1524" stroke-linecap="round" stroke-miterlimit="4" stroke-linejoin="miter" fill="none" stroke="#0dab76" stroke-opacity=".8" d="M81.28-109.22H86.36"/>
<path transform="matrix(2.334414,0,0,2.334414,69.882358,558)" stroke-width=".1524" stroke-linecap="round" stroke-miterlimit="4" stroke-linejoin="miter" fill="none" stroke="#0dab76" stroke-opacity=".8" d="M68.58-109.22H66.04"/>
<path transform="matrix(2.334414,0,0,2.334414,69.882358,558)" stroke-width=".1524" stroke-linecap="round" stroke-miterlimit="4" stroke-linejoin="miter" fill="none" stroke="#0dab76" stroke-opacity=".8" d="M149.86-93.98H152.4"/>
<path transform="matrix(2.334414,0,0,2.334414,69.882358,558)" stroke-width=".1524" stroke-linecap="round" stroke-miterlimit="4" stroke-linejoin="miter" fill="none" stroke="#0dab76" stroke-opacity=".8" d="M165.1-109.22H162.56"/>
<path transform="matrix(2.334414,0,0,2.334414,69.882358,558)" stroke-width=".1524" stroke-linecap="round" stroke-miterlimit="4" stroke-linejoin="miter" fill="none" stroke="#0dab76" stroke-opacity=".8" d="M66.04-109.22V-83.82"/>
<path transform="matrix(2.334414,0,0,2.334414,69.882358,558)" stroke-width=".1524" stroke-linecap="round" stroke-miterlimit="4" stroke-linejoin="miter" fill="none" stroke="#0dab76" stroke-opacity=".8" d="M114.3-81.28V-83.82"/>
<path transform="matrix(2.334414,0,0,2.334414,69.882358,558)" stroke-width=".1524" stroke-linecap="round" stroke-miterlimit="4" stroke-linejoin="miter" fill="none" stroke="#0dab76" stroke-opacity=".8" d="M66.04-83.82H114.3"/>
<path transform="matrix(2.334414,0,0,2.334414,69.882358,558)" stroke-width=".1524" stroke-linecap="round" stroke-miterlimit="4" stroke-linejoin="miter" fill="none" stroke="#0dab76" stroke-opacity=".8" d="M152.4-93.98V-83.82"/>
<path transform="matrix(2.334414,0,0,2.334414,69.882358,558)" stroke-width=".1524" stroke-linecap="round" stroke-miterlimit="4" stroke-linejoin="miter" fill="none" stroke="#0dab76" stroke-opacity=".8" d="M114.3-83.82H152.4"/>
<path transform="matrix(2.334414,0,0,2.334414,69.882358,558)" stroke-width=".1524" stroke-linecap="round" stroke-miterlimit="4" stroke-linejoin="miter" fill="none" stroke="#0dab76" stroke-opacity=".8" d="M162.56-109.22V-83.82"/>
<path transform="matrix(2.334414,0,0,2.334414,69.882358,558)" stroke-width=".1524" stroke-linecap="round" stroke-miterlimit="4" stroke-linejoin="miter" fill="none" stroke="#0dab76" stroke-opacity=".8" d="M152.4-83.82H162.56"/>
<g>
<path transform="matrix(2.334414,0,0,2.334414,69.882358,558)" d="M114.32-83.82C114.32-83.81286 114.316188-83.80625 114.31-83.80268 114.30381-83.79911 114.29619-83.79911 114.29-83.80268 114.28381-83.80625 114.28-83.81286 114.28-83.82 114.28-83.82715 114.28381-83.83375 114.29-83.83732 114.29619-83.8409 114.30381-83.8409 114.31-83.83732 114.316188-83.83375 114.32-83.82715 114.32-83.82Z" fill="#0dab76" fill-opacity=".8"/>
<path transform="matrix(2.334414,0,0,2.334414,69.882358,558)" stroke-width="1" stroke-linecap="butt" stroke-miterlimit="4" stroke-linejoin="miter" fill="none" stroke="#0dab76" stroke-opacity=".8" d="M114.32-83.82C114.32-83.81286 114.316188-83.80625 114.31-83.80268 114.30381-83.79911 114.29619-83.79911 114.29-83.80268 114.28381-83.80625 114.28-83.81286 114.28-83.82 114.28-83.82715 114.28381-83.83375 114.29-83.83732 114.29619-83.8409 114.30381-83.8409 114.31-83.83732 114.316188-83.83375 114.32-83.82715 114.32-83.82Z"/>
</g>
<g>
<path transform="matrix(2.334414,0,0,2.334414,69.882358,558)" d="M152.42-83.82C152.42-83.81286 152.41619-83.80625 152.41-83.80268 152.40381-83.79911 152.3962-83.79911 152.39-83.80268 152.38382-83.80625 152.38-83.81286 152.38-83.82 152.38-83.82715 152.38382-83.83375 152.39-83.83732 152.3962-83.8409 152.40381-83.8409 152.41-83.83732 152.41619-83.83375 152.42-83.82715 152.42-83.82Z" fill="#0dab76" fill-opacity=".8"/>
<path transform="matrix(2.334414,0,0,2.334414,69.882358,558)" stroke-width="1" stroke-linecap="butt" stroke-miterlimit="4" stroke-linejoin="miter" fill="none" stroke="#0dab76" stroke-opacity=".8" d="M152.42-83.82C152.42-83.81286 152.41619-83.80625 152.41-83.80268 152.40381-83.79911 152.3962-83.79911 152.39-83.80268 152.38382-83.80625 152.38-83.81286 152.38-83.82 152.38-83.82715 152.38382-83.83375 152.39-83.83732 152.3962-83.8409 152.40381-83.8409 152.41-83.83732 152.41619-83.83375 152.42-83.82715 152.42-83.82Z"/>
</g>
<path transform="matrix(2.334414,0,0,2.334414,69.882358,558)" stroke-width=".1524" stroke-linecap="round" stroke-miterlimit="4" stroke-linejoin="miter" fill="none" stroke="#0dab76" stroke-opacity=".8" d="M114.3-109.22H116.84"/>
<path transform="matrix(2.334414,0,0,2.334414,69.882358,558)" stroke-width=".1524" stroke-linecap="round" stroke-miterlimit="4" stroke-linejoin="miter" fill="none" stroke="#0dab76" stroke-opacity=".8" d="M124.46-104.14H121.92"/>
<path transform="matrix(2.334414,0,0,2.334414,69.882358,558)" stroke-width=".1524" stroke-linecap="round" stroke-miterlimit="4" stroke-linejoin="miter" fill="none" stroke="#0dab76" stroke-opacity=".8" d="M116.84-109.22V-104.14"/>
<path transform="matrix(2.334414,0,0,2.334414,69.882358,558)" stroke-width=".1524" stroke-linecap="round" stroke-miterlimit="4" stroke-linejoin="miter" fill="none" stroke="#0dab76" stroke-opacity=".8" d="M116.84-104.14H121.92"/>
<path transform="matrix(2.334414,0,0,2.334414,69.882358,558)" stroke-width=".1524" stroke-linecap="round" stroke-miterlimit="4" stroke-linejoin="miter" fill="none" stroke="#0dab76" stroke-opacity=".8" d="M149.86-111.76H154.94"/>
<path transform="matrix(2.334414,0,0,2.334414,69.882358,558)" stroke-width=".1524" stroke-linecap="round" stroke-miterlimit="4" stroke-linejoin="miter" fill="none" stroke="#0dab76" stroke-opacity=".8" d="M172.72-114.3H185.42"/>
<path transform="matrix(2.334414,0,0,2.334414,69.882358,558)" stroke-width=".1524" stroke-linecap="round" stroke-miterlimit="4" stroke-linejoin="miter" fill="none" stroke="#0dab76" stroke-opacity=".8" d="M154.94-111.76V-86.36"/>
<path transform="matrix(2.334414,0,0,2.334414,69.882358,558)" stroke-width=".1524" stroke-linecap="round" stroke-miterlimit="4" stroke-linejoin="miter" fill="none" stroke="#0dab76" stroke-opacity=".8" d="M185.42-114.3V-86.36"/>
<path transform="matrix(2.334414,0,0,2.334414,69.882358,558)" stroke-width=".1524" stroke-linecap="round" stroke-miterlimit="4" stroke-linejoin="miter" fill="none" stroke="#0dab76" stroke-opacity=".8" d="M154.94-86.36H185.42"/>
<path transform="matrix(2.334414,0,0,2.334414,69.882358,558)" stroke-width=".1524" stroke-linecap="round" stroke-miterlimit="4" stroke-linejoin="miter" fill="none" stroke="#0dab76" stroke-opacity=".8" d="M149.86-129.54H157.48"/>
<path transform="matrix(2.334414,0,0,2.334414,69.882358,558)" stroke-width=".1524" stroke-linecap="round" stroke-miterlimit="4" stroke-linejoin="miter" fill="none" stroke="#0dab76" stroke-opacity=".8" d="M180.34-109.22H182.88"/>
<path transform="matrix(2.334414,0,0,2.334414,69.882358,558)" stroke-width=".1524" stroke-linecap="round" stroke-miterlimit="4" stroke-linejoin="miter" fill="none" stroke="#0dab76" stroke-opacity=".8" d="M157.48-129.54V-142.24"/>
<path transform="matrix(2.334414,0,0,2.334414,69.882358,558)" stroke-width=".1524" stroke-linecap="round" stroke-miterlimit="4" stroke-linejoin="miter" fill="none" stroke="#0dab76" stroke-opacity=".8" d="M170.18-144.78V-142.24"/>
<path transform="matrix(2.334414,0,0,2.334414,69.882358,558)" stroke-width=".1524" stroke-linecap="round" stroke-miterlimit="4" stroke-linejoin="miter" fill="none" stroke="#0dab76" stroke-opacity=".8" d="M157.48-142.24H170.18"/>
<path transform="matrix(2.334414,0,0,2.334414,69.882358,558)" stroke-width=".1524" stroke-linecap="round" stroke-miterlimit="4" stroke-linejoin="miter" fill="none" stroke="#0dab76" stroke-opacity=".8" d="M182.88-109.22V-142.24"/>
<path transform="matrix(2.334414,0,0,2.334414,69.882358,558)" stroke-width=".1524" stroke-linecap="round" stroke-miterlimit="4" stroke-linejoin="miter" fill="none" stroke="#0dab76" stroke-opacity=".8" d="M170.18-142.24H182.88"/>
<g>
<path transform="matrix(2.334414,0,0,2.334414,69.882358,558)" d="M170.2-142.24C170.2-142.23285 170.19618-142.22626 170.19-142.22267 170.1838-142.2191 170.1762-142.2191 170.17-142.22267 170.16382-142.22626 170.16-142.23285 170.16-142.24 170.16-142.24715 170.16382-142.25376 170.17-142.25733 170.1762-142.2609 170.1838-142.2609 170.19-142.25733 170.19618-142.25376 170.2-142.24715 170.2-142.24Z" fill="#0dab76" fill-opacity=".8"/>
<path transform="matrix(2.334414,0,0,2.334414,69.882358,558)" stroke-width="1" stroke-linecap="butt" stroke-miterlimit="4" stroke-linejoin="miter" fill="none" stroke="#0dab76" stroke-opacity=".8" d="M170.2-142.24C170.2-142.23285 170.19618-142.22626 170.19-142.22267 170.1838-142.2191 170.1762-142.2191 170.17-142.22267 170.16382-142.22626 170.16-142.23285 170.16-142.24 170.16-142.24715 170.16382-142.25376 170.17-142.25733 170.1762-142.2609 170.1838-142.2609 170.19-142.25733 170.19618-142.25376 170.2-142.24715 170.2-142.24Z"/>
</g>
</svg>
