<svg xmlns="http://www.w3.org/2000/svg" xmlns:xlink="http://www.w3.org/1999/xlink" width="1056" height="816" version="1.1" viewBox="0 0 792 612"><path fill="none" stroke="#c90d0c" stroke-linecap="round" stroke-linejoin="miter" stroke-miterlimit="4" stroke-opacity=".8" stroke-width=".305" d="M0 0V-215.9" transform="matrix(2.334414,0,0,2.334414,69.882358,558)"/><path fill="none" stroke="#c90d0c" stroke-linecap="round" stroke-linejoin="miter" stroke-miterlimit="4" stroke-opacity=".8" stroke-width=".305" d="M0-215.9H279.4" transform="matrix(2.334414,0,0,2.334414,69.882358,558)"/><path fill="none" stroke="#c90d0c" stroke-linecap="round" stroke-linejoin="miter" stroke-miterlimit="4" stroke-opacity=".8" stroke-width=".305" d="M279.4-215.9V0" transform="matrix(2.334414,0,0,2.334414,69.882358,558)"/><path fill="none" stroke="#c90d0c" stroke-linecap="round" stroke-linejoin="miter" stroke-miterlimit="4" stroke-opacity=".8" stroke-width=".305" d="M279.4 0H0" transform="matrix(2.334414,0,0,2.334414,69.882358,558)"/><path fill="none" stroke="#c90d0c" stroke-linecap="round" stroke-linejoin="miter" stroke-miterlimit="4" stroke-opacity=".8" stroke-width=".102" d="M3.81 0V-212.09" transform="matrix(2.334414,0,0,2.334414,69.882358,558)"/><text fill="#c90d0c" fill-opacity=".8" font-family="Helvetica" font-size="3.429" transform="matrix(2.334414 0 0 2.334414 74.329418 112.404727)" xml:space="preserve"><tspan x="-1.144" y="0">A</tspan></text><text fill="#c90d0c" fill-opacity=".8" font-family="Helvetica" font-size="3.429" transform="matrix(2.334414 0 0 2.334414 74.329418 211.4259)" xml:space="preserve"><tspan x="-1.144" y="0">B</tspan></text><path fill="none" stroke="#c90d0c" stroke-linecap="round" stroke-linejoin="miter" stroke-miterlimit="4" stroke-opacity=".8" stroke-width=".102" d="M0-169.672H3.81" transform="matrix(2.334414,0,0,2.334414,69.882358,558)"/><text fill="#c90d0c" fill-opacity=".8" font-family="Helvetica" font-size="3.429" transform="matrix(2.334414 0 0 2.334414 74.329418 310.44709)" xml:space="preserve"><tspan x="-1.238" y="0">C</tspan></text><path fill="none" stroke="#c90d0c" stroke-linecap="round" stroke-linejoin="miter" stroke-miterlimit="4" stroke-opacity=".8" stroke-width=".102" d="M0-127.254H3.81" transform="matrix(2.334414,0,0,2.334414,69.882358,558)"/><text fill="#c90d0c" fill-opacity=".8" font-family="Helvetica" font-size="3.429" transform="matrix(2.334414 0 0 2.334414 74.329418 409.46827)" xml:space="preserve"><tspan x="-1.238" y="0">D</tspan></text><path fill="none" stroke="#c90d0c" stroke-linecap="round" stroke-linejoin="miter" stroke-miterlimit="4" stroke-opacity=".8" stroke-width=".102" d="M0-84.836H3.81" transform="matrix(2.334414,0,0,2.334414,69.882358,558)"/><text fill="#c90d0c" fill-opacity=".8" font-family="Helvetica" font-size="3.429" transform="matrix(2.334414 0 0 2.334414 74.329418 508.4894)" xml:space="preserve"><tspan x="-1.144" y="0">E</tspan></text><path fill="none" stroke="#c90d0c" stroke-linecap="round" stroke-linejoin="miter" stroke-miterlimit="4" stroke-opacity=".8" stroke-width=".102" d="M0-42.418H3.81" transform="matrix(2.334414,0,0,2.334414,69.882358,558)"/><path fill="none" stroke="#c90d0c" stroke-linecap="round" stroke-linejoin="miter" stroke-miterlimit="4" stroke-opacity=".8" stroke-width=".102" d="M3.81-212.09H275.59" transform="matrix(2.334414,0,0,2.334414,69.882358,558)"/><text fill="#c90d0c" fill-opacity=".8" font-family="Helvetica" font-size="3.429" transform="matrix(2.334414 0 0 2.334414 131.64707 58.447084)" xml:space="preserve"><tspan x="-.953" y="0">1</tspan></text><text fill="#c90d0c" fill-opacity=".8" font-family="Helvetica" font-size="3.429" transform="matrix(2.334414 0 0 2.334414 237.38823 58.447084)" xml:space="preserve"><tspan x="-.953" y="0">2</tspan></text><path fill="none" stroke="#c90d0c" stroke-linecap="round" stroke-linejoin="miter" stroke-miterlimit="4" stroke-opacity=".8" stroke-width=".102" d="M49.106668-212.09V-215.9" transform="matrix(2.334414,0,0,2.334414,69.882358,558)"/><text fill="#c90d0c" fill-opacity=".8" font-family="Helvetica" font-size="3.429" transform="matrix(2.334414 0 0 2.334414 343.1294 58.447084)" xml:space="preserve"><tspan x="-.953" y="0">3</tspan></text><path fill="none" stroke="#c90d0c" stroke-linecap="round" stroke-linejoin="miter" stroke-miterlimit="4" stroke-opacity=".8" stroke-width=".102" d="M94.403339-212.09V-215.9" transform="matrix(2.334414,0,0,2.334414,69.882358,558)"/><text fill="#c90d0c" fill-opacity=".8" font-family="Helvetica" font-size="3.429" transform="matrix(2.334414 0 0 2.334414 448.87059 58.447084)" xml:space="preserve"><tspan x="-.953" y="0">4</tspan></text><path fill="none" stroke="#c90d0c" stroke-linecap="round" stroke-linejoin="miter" stroke-miterlimit="4" stroke-opacity=".8" stroke-width=".102" d="M139.7-212.09V-215.9" transform="matrix(2.334414,0,0,2.334414,69.882358,558)"/><text fill="#c90d0c" fill-opacity=".8" font-family="Helvetica" font-size="3.429" transform="matrix(2.334414 0 0 2.334414 554.61178 58.447084)" xml:space="preserve"><tspan x="-.953" y="0">5</tspan></text><path fill="none" stroke="#c90d0c" stroke-linecap="round" stroke-linejoin="miter" stroke-miterlimit="4" stroke-opacity=".8" stroke-width=".102" d="M184.99668-212.09V-215.9" transform="matrix(2.334414,0,0,2.334414,69.882358,558)"/><text fill="#c90d0c" fill-opacity=".8" font-family="Helvetica" font-size="3.429" transform="matrix(2.334414 0 0 2.334414 660.3529 58.447084)" xml:space="preserve"><tspan x="-.953" y="0">6</tspan></text><path fill="none" stroke="#c90d0c" stroke-linecap="round" stroke-linejoin="miter" stroke-miterlimit="4" stroke-opacity=".8" stroke-width=".102" d="M230.29334-212.09V-215.9" transform="matrix(2.334414,0,0,2.334414,69.882358,558)"/><path fill="none" stroke="#c90d0c" stroke-linecap="round" stroke-linejoin="miter" stroke-miterlimit="4" stroke-opacity=".8" stroke-width=".102" d="M275.59-212.09V0" transform="matrix(2.334414,0,0,2.334414,69.882358,558)"/><text fill="#c90d0c" fill-opacity=".8" font-family="Helvetica" font-size="3.429" transform="matrix(2.334414 0 0 2.334414 717.67056 112.404727)" xml:space="preserve"><tspan x="-1.144" y="0">A</tspan></text><text fill="#c90d0c" fill-opacity=".8" font-family="Helvetica" font-size="3.429" transform="matrix(2.334414 0 0 2.334414 717.67056 211.4259)" xml:space="preserve"><tspan x="-1.144" y="0">B</tspan></text><path fill="none" stroke="#c90d0c" stroke-linecap="round" stroke-linejoin="miter" stroke-miterlimit="4" stroke-opacity=".8" stroke-width=".102" d="M279.4-169.672H275.59" transform="matrix(2.334414,0,0,2.334414,69.882358,558)"/><text fill="#c90d0c" fill-opacity=".8" font-family="Helvetica" font-size="3.429" transform="matrix(2.334414 0 0 2.334414 717.67056 310.44709)" xml:space="preserve"><tspan x="-1.238" y="0">C</tspan></text><path fill="none" stroke="#c90d0c" stroke-linecap="round" stroke-linejoin="miter" stroke-miterlimit="4" stroke-opacity=".8" stroke-width=".102" d="M279.4-127.254H275.59" transform="matrix(2.334414,0,0,2.334414,69.882358,558)"/><text fill="#c90d0c" fill-opacity=".8" font-family="Helvetica" font-size="3.429" transform="matrix(2.334414 0 0 2.334414 717.67056 409.46827)" xml:space="preserve"><tspan x="-1.238" y="0">D</tspan></text><path fill="none" stroke="#c90d0c" stroke-linecap="round" stroke-linejoin="miter" stroke-miterlimit="4" stroke-opacity=".8" stroke-width=".102" d="M279.4-84.836H275.59" transform="matrix(2.334414,0,0,2.334414,69.882358,558)"/><text fill="#c90d0c" fill-opacity=".8" font-family="Helvetica" font-size="3.429" transform="matrix(2.334414 0 0 2.334414 717.67056 508.4894)" xml:space="preserve"><tspan x="-1.144" y="0">E</tspan></text><path fill="none" stroke="#c90d0c" stroke-linecap="round" stroke-linejoin="miter" stroke-miterlimit="4" stroke-opacity=".8" stroke-width=".102" d="M279.4-42.418H275.59" transform="matrix(2.334414,0,0,2.334414,69.882358,558)"/><text fill="#c90d0c" fill-opacity=".8" font-family="Helvetica" font-size="3.429" transform="matrix(2.334414 0 0 2.334414 84.70589 552.0706)" xml:space="preserve"><tspan x="0 2.856 4.763 6.669 8.576 9.529 12.005 12.766 13.719 15.626 16.408 18.503 19.264 21.171 22.817 24.723 25.865 27.579 29.486 31.393" y="0">Made with Tinkercad®</tspan></text><path fill="none" stroke="#c90d0c" stroke-linecap="round" stroke-linejoin="miter" stroke-miterlimit="4" stroke-opacity=".8" stroke-width=".102" d="M0 0H101.6" transform="matrix(2.334414,0,0,2.334414,476.04707,558)"/><path fill="none" stroke="#c90d0c" stroke-linecap="round" stroke-linejoin="miter" stroke-miterlimit="4" stroke-opacity=".8" stroke-width=".102" d="M0-7.62H101.6" transform="matrix(2.334414,0,0,2.334414,476.04707,558)"/><path fill="none" stroke="#c90d0c" stroke-linecap="round" stroke-linejoin="miter" stroke-miterlimit="4" stroke-opacity=".8" stroke-width=".102" d="M0-15.24H101.6" transform="matrix(2.334414,0,0,2.334414,476.04707,558)"/><path fill="none" stroke="#c90d0c" stroke-linecap="round" stroke-linejoin="miter" stroke-miterlimit="4" stroke-opacity=".8" stroke-width=".102" d="M0 0V-7.62" transform="matrix(2.334414,0,0,2.334414,476.04707,558)"/><path fill="none" stroke="#c90d0c" stroke-linecap="round" stroke-linejoin="miter" stroke-miterlimit="4" stroke-opacity=".8" stroke-width=".102" d="M0-7.62V-15.24" transform="matrix(2.334414,0,0,2.334414,476.04707,558)"/><path fill="none" stroke="#c90d0c" stroke-linecap="round" stroke-linejoin="miter" stroke-miterlimit="4" stroke-opacity=".8" stroke-width=".102" d="M101.6 0V-7.62" transform="matrix(2.334414,0,0,2.334414,476.04707,558)"/><path fill="none" stroke="#c90d0c" stroke-linecap="round" stroke-linejoin="miter" stroke-miterlimit="4" stroke-opacity=".8" stroke-width=".102" d="M101.6-5.08V-15.24" transform="matrix(2.334414,0,0,2.334414,476.04707,558)"/><text fill="#c90d0c" fill-opacity=".8" font-family="Helvetica" font-size="3.429" transform="matrix(2.334414 0 0 2.334414 481.97648 534.28237)" xml:space="preserve"><tspan x="0 2.095 2.856 3.81 4.571 6.477" y="0">Title:</tspan></text><text fill="#c90d0c" fill-opacity=".8" font-family="Helvetica" font-size="3.429" transform="matrix(2.334414 0 0 2.334414 505.69413 534.28237)" xml:space="preserve"><tspan x="0 1.684 2.825 4.732 7.588 9.495 11.401 13.308 15.214 17.121 18.835 19.789 22.076 23.029 24.936 26.842 27.795 28.557" y="0">Tremendous Stantia</tspan></text><text fill="#c90d0c" fill-opacity=".8" font-family="Helvetica" font-size="3.429" transform="matrix(2.334414 0 0 2.334414 481.97648 552.0706)" xml:space="preserve"><tspan x="0 2.476 4.382 5.336 7.242" y="0">Date:</tspan></text><text fill="#c90d0c" fill-opacity=".8" font-family="Helvetica" font-size="3.429" transform="matrix(2.334414 0 0 2.334414 505.69413 552.0706)" xml:space="preserve"><tspan x="0 1.907 2.86 4.766 5.72 7.626 9.533 11.439 13.346 14.299 15.252 17.159 18.112 20.019 21.925 22.878 24.785 26.691 27.645 29.932" y="0">4/3/2024, 8:52:51 PM</tspan></text><text fill="#c90d0c" fill-opacity=".8" font-family="Helvetica" font-size="3.429" transform="matrix(2.334414 0 0 2.334414 653.92947 552.0706)" xml:space="preserve"><tspan x="0 2.287 4.194 6.1 8.007 8.96" y="0">Sheet:</tspan></text><text fill="#c90d0c" fill-opacity=".8" font-family="Helvetica" font-size="3.429" transform="matrix(2.334414 0 0 2.334414 683.57656 552.0706)" xml:space="preserve"><tspan x="0 1.907 2.86" y="0">1/1</tspan></text><path fill="none" stroke="#c90d0c" stroke-linecap="round" stroke-linejoin="miter" stroke-miterlimit="4" stroke-opacity=".8" stroke-width=".254" d="M2.54 2.54V-2.54" transform="matrix(2.334414,0,0,2.334414,241.8353,303.03529)"/><path fill="none" stroke="#c90d0c" stroke-linecap="round" stroke-linejoin="miter" stroke-miterlimit="4" stroke-opacity=".8" stroke-width=".254" d="M2.54-2.54-2.54 0" transform="matrix(2.334414,0,0,2.334414,241.8353,303.03529)"/><path fill="none" stroke="#c90d0c" stroke-linecap="round" stroke-linejoin="miter" stroke-miterlimit="4" stroke-opacity=".8" stroke-width=".254" d="M-2.54 0 2.54 2.54" transform="matrix(2.334414,0,0,2.334414,241.8353,303.03529)"/><path fill="none" stroke="#c90d0c" stroke-linecap="round" stroke-linejoin="miter" stroke-miterlimit="4" stroke-opacity=".8" stroke-width=".254" d="M-2.54-2.54V2.54" transform="matrix(2.334414,0,0,2.334414,241.8353,303.03529)"/><path fill="none" stroke="#c90d0c" stroke-linecap="round" stroke-linejoin="miter" stroke-miterlimit="4" stroke-opacity=".8" stroke-width=".152" d="M0 0H2.54" transform="matrix(-2.334414,0,0,-2.334414,253.69412,303.03529)"/><path fill="none" stroke="#c90d0c" stroke-linecap="round" stroke-linejoin="miter" stroke-miterlimit="4" stroke-opacity=".8" stroke-width=".152" d="M0 0H2.54" transform="matrix(2.334414,0,0,2.334414,229.97647,303.03529)"/><text fill="gray" fill-opacity=".73" font-family="Helvetica" font-size="2.4" transform="matrix(2.334414 0 0 2.334414 241.8353 291.17649)" xml:space="preserve"><tspan x="-1.534 .199" y="0">D1</tspan></text><path fill="none" stroke="#c90d0c" stroke-linecap="round" stroke-linejoin="miter" stroke-miterlimit="4" stroke-opacity=".8" stroke-width=".254" d="M-7.366-2.54H-10.16" transform="matrix(2.334414,0,0,2.334414,307.0588,303.03529)"/><path fill="none" stroke="#c90d0c" stroke-linecap="round" stroke-linejoin="miter" stroke-miterlimit="4" stroke-opacity=".8" stroke-width=".254" d="M-10.16-2.54V2.54" transform="matrix(2.334414,0,0,2.334414,307.0588,303.03529)"/><path fill="none" stroke="#c90d0c" stroke-linecap="round" stroke-linejoin="miter" stroke-miterlimit="4" stroke-opacity=".8" stroke-width=".254" d="M-10.16 2.54H-7.366" transform="matrix(2.334414,0,0,2.334414,307.0588,303.03529)"/><path fill="none" stroke="#c90d0c" stroke-linecap="round" stroke-linejoin="miter" stroke-miterlimit="4" stroke-opacity=".8" stroke-width=".254" d="M7.366-2.54H10.16" transform="matrix(2.334414,0,0,2.334414,307.0588,303.03529)"/><path fill="none" stroke="#c90d0c" stroke-linecap="round" stroke-linejoin="miter" stroke-miterlimit="4" stroke-opacity=".8" stroke-width=".254" d="M10.16-2.54V2.54" transform="matrix(2.334414,0,0,2.334414,307.0588,303.03529)"/><path fill="none" stroke="#c90d0c" stroke-linecap="round" stroke-linejoin="miter" stroke-miterlimit="4" stroke-opacity=".8" stroke-width=".254" d="M10.16 2.54H7.366" transform="matrix(2.334414,0,0,2.334414,307.0588,303.03529)"/><path fill="none" stroke="#c90d0c" stroke-linecap="round" stroke-linejoin="miter" stroke-miterlimit="4" stroke-opacity=".8" stroke-width=".254" d="M-8.382 0H-9.398" transform="matrix(2.334414,0,0,2.334414,307.0588,303.03529)"/><path fill="none" stroke="#c90d0c" stroke-linecap="round" stroke-linejoin="miter" stroke-miterlimit="4" stroke-opacity=".8" stroke-width=".254" d="M9.398 0H8.382" transform="matrix(2.334414,0,0,2.334414,307.0588,303.03529)"/><path fill="none" stroke="#c90d0c" stroke-linecap="round" stroke-linejoin="miter" stroke-miterlimit="4" stroke-opacity=".8" stroke-width=".254" d="M8.89-.508V.508" transform="matrix(2.334414,0,0,2.334414,307.0588,303.03529)"/><path fill="none" stroke="#c90d0c" stroke-linecap="butt" stroke-linejoin="miter" stroke-miterlimit="4" stroke-opacity=".8" stroke-width=".254" d="M7.62 0C7.62 2.722364 6.167636 5.237932 3.81 6.599114 1.452364 7.960295-1.452364 7.960295-3.81 6.599114-6.167636 5.237932-7.62 2.722364-7.62 0-7.62-2.722364-6.167636-5.237932-3.81-6.599114-1.452364-7.960295 1.452364-7.960295 3.81-6.599114 6.167636-5.237932 7.62-2.722364 7.62 0Z" transform="matrix(2.334414,0,0,2.334414,307.0588,303.03529)"/><path fill="none" stroke="#c90d0c" stroke-linecap="round" stroke-linejoin="miter" stroke-miterlimit="4" stroke-opacity=".8" stroke-width=".152" d="M0 0H2.54" transform="matrix(-2.334414,0,0,-2.334414,336.70588,303.03529)"/><path fill="none" stroke="#c90d0c" stroke-linecap="round" stroke-linejoin="miter" stroke-miterlimit="4" stroke-opacity=".8" stroke-width=".152" d="M0 0H2.54" transform="matrix(2.334414,0,0,2.334414,277.41175,303.03529)"/><text fill="#c90d0c" fill-opacity=".8" font-family="Helvetica" font-size="8.71" transform="matrix(2.334414 0 0 2.334414 307.0588 303.03529)" xml:space="preserve"><tspan x="-3.628" y="0">M</tspan></text><text fill="gray" fill-opacity=".73" font-family="Helvetica" font-size="2.4" transform="matrix(2.334414 0 0 2.334414 307.0588 283.46827)" xml:space="preserve"><tspan x="-1.667 .332" y="0">M1</tspan></text><path fill="none" stroke="#c90d0c" stroke-linecap="round" stroke-linejoin="miter" stroke-miterlimit="4" stroke-opacity=".8" stroke-width=".254" d="M10.16 17.78V-25.4" transform="matrix(2.334414,0,0,2.334414,390.0706,303.03529)"/><path fill="none" stroke="#c90d0c" stroke-linecap="round" stroke-linejoin="miter" stroke-miterlimit="4" stroke-opacity=".8" stroke-width=".254" d="M10.16-25.4H-10.16" transform="matrix(2.334414,0,0,2.334414,390.0706,303.03529)"/><path fill="none" stroke="#c90d0c" stroke-linecap="round" stroke-linejoin="miter" stroke-miterlimit="4" stroke-opacity=".8" stroke-width=".254" d="M-10.16-25.4V17.78" transform="matrix(2.334414,0,0,2.334414,390.0706,303.03529)"/><path fill="none" stroke="#c90d0c" stroke-linecap="round" stroke-linejoin="miter" stroke-miterlimit="4" stroke-opacity=".8" stroke-width=".254" d="M-10.16 17.78H10.16" transform="matrix(2.334414,0,0,2.334414,390.0706,303.03529)"/><path fill="none" stroke="#c90d0c" stroke-linecap="round" stroke-linejoin="miter" stroke-miterlimit="4" stroke-opacity=".8" stroke-width=".152" d="M0 0H2.54" transform="matrix(-2.334414,0,0,-2.334414,419.71766,297.10588)"/><text fill="gray" fill-opacity=".73" font-family="Helvetica" font-size="1.778" transform="matrix(2.334414 0 -0 2.334414 419.71766 297.10588)" xml:space="preserve"><tspan x="-7.254 -6.069" y="0">A0</tspan></text><path fill="none" stroke="#c90d0c" stroke-linecap="round" stroke-linejoin="miter" stroke-miterlimit="4" stroke-opacity=".8" stroke-width=".152" d="M0 0H2.54" transform="matrix(-2.334414,0,0,-2.334414,419.71766,303.03529)"/><text fill="gray" fill-opacity=".73" font-family="Helvetica" font-size="1.778" transform="matrix(2.334414 0 -0 2.334414 419.71766 303.03529)" xml:space="preserve"><tspan x="-7.254 -6.069" y="0">A1</tspan></text><path fill="none" stroke="#c90d0c" stroke-linecap="round" stroke-linejoin="miter" stroke-miterlimit="4" stroke-opacity=".8" stroke-width=".152" d="M0 0H2.54" transform="matrix(-2.334414,0,0,-2.334414,419.71766,308.9647)"/><text fill="gray" fill-opacity=".73" font-family="Helvetica" font-size="1.778" transform="matrix(2.334414 0 -0 2.334414 419.71766 308.9647)" xml:space="preserve"><tspan x="-7.254 -6.069" y="0">A2</tspan></text><path fill="none" stroke="#c90d0c" stroke-linecap="round" stroke-linejoin="miter" stroke-miterlimit="4" stroke-opacity=".8" stroke-width=".152" d="M0 0H2.54" transform="matrix(-2.334414,0,0,-2.334414,419.71766,314.8941)"/><text fill="gray" fill-opacity=".73" font-family="Helvetica" font-size="1.778" transform="matrix(2.334414 0 -0 2.334414 419.71766 314.8941)" xml:space="preserve"><tspan x="-7.254 -6.069" y="0">A3</tspan></text><path fill="none" stroke="#c90d0c" stroke-linecap="round" stroke-linejoin="miter" stroke-miterlimit="4" stroke-opacity=".8" stroke-width=".152" d="M0 0H2.54" transform="matrix(-2.334414,0,0,-2.334414,419.71766,320.82353)"/><text fill="gray" fill-opacity=".73" font-family="Helvetica" font-size="1.778" transform="matrix(2.334414 0 -0 2.334414 419.71766 320.82353)" xml:space="preserve"><tspan x="-7.254 -6.069" y="0">A4</tspan></text><path fill="none" stroke="#c90d0c" stroke-linecap="round" stroke-linejoin="miter" stroke-miterlimit="4" stroke-opacity=".8" stroke-width=".152" d="M0 0H2.54" transform="matrix(-2.334414,0,0,-2.334414,419.71766,326.75294)"/><text fill="gray" fill-opacity=".73" font-family="Helvetica" font-size="1.778" transform="matrix(2.334414 0 -0 2.334414 419.71766 326.75294)" xml:space="preserve"><tspan x="-7.254 -6.069" y="0">A5</tspan></text><path fill="none" stroke="#c90d0c" stroke-linecap="round" stroke-linejoin="miter" stroke-miterlimit="4" stroke-opacity=".8" stroke-width=".152" d="M0 0H2.54" transform="matrix(-2.334414,0,0,-2.334414,419.71766,279.31764)"/><text fill="gray" fill-opacity=".73" font-family="Helvetica" font-size="1.778" transform="matrix(2.334414 0 -0 2.334414 419.71766 279.31764)" xml:space="preserve"><tspan x="-10.514 -10.019 -8.636 -7.352 -6.166" y="0">IOREF</tspan></text><path fill="none" stroke="#c90d0c" stroke-linecap="round" stroke-linejoin="miter" stroke-miterlimit="4" stroke-opacity=".8" stroke-width=".152" d="M0 0H2.54" transform="matrix(-2.334414,0,0,-2.334414,419.71766,285.24705)"/><text fill="gray" fill-opacity=".73" font-family="Helvetica" font-size="1.778" transform="matrix(2.334414 0 -0 2.334414 419.71766 285.24705)" xml:space="preserve"><tspan x="-8.736 -7.452 -6.266" y="0">RES</tspan></text><path fill="none" stroke="#c90d0c" stroke-linecap="round" stroke-linejoin="miter" stroke-miterlimit="4" stroke-opacity=".8" stroke-width=".152" d="M0 0H2.54" transform="matrix(-2.334414,0,0,-2.334414,419.71766,249.67058)"/><text fill="gray" fill-opacity=".73" font-family="Helvetica" font-size="1.778" transform="matrix(2.334414 0 -0 2.334414 419.71766 249.67058)" xml:space="preserve"><tspan x="-8.044 -6.858 -6.364" y="0">VIN</tspan></text><path fill="none" stroke="#c90d0c" stroke-linecap="round" stroke-linejoin="miter" stroke-miterlimit="4" stroke-opacity=".8" stroke-width=".152" d="M0 0H2.54" transform="matrix(-2.334414,0,0,-2.334414,419.71766,255.59999)"/><text fill="gray" fill-opacity=".73" font-family="Helvetica" font-size="1.778" transform="matrix(2.334414 0 -0 2.334414 419.71766 255.59999)" xml:space="preserve"><tspan x="-7.254 -6.266" y="0">5V</tspan></text><path fill="none" stroke="#c90d0c" stroke-linecap="round" stroke-linejoin="miter" stroke-miterlimit="4" stroke-opacity=".8" stroke-width=".152" d="M0 0H2.54" transform="matrix(-2.334414,0,0,-2.334414,419.71766,261.5294)"/><text fill="gray" fill-opacity=".73" font-family="Helvetica" font-size="1.778" transform="matrix(2.334414 0 -0 2.334414 419.71766 261.5294)" xml:space="preserve"><tspan x="-8.737 -7.749 -7.254 -6.266" y="0">3.3V</tspan></text><path fill="none" stroke="#c90d0c" stroke-linecap="round" stroke-linejoin="miter" stroke-miterlimit="4" stroke-opacity=".8" stroke-width=".152" d="M0 0H2.54" transform="matrix(-2.334414,0,0,-2.334414,419.71766,273.3882)"/><text fill="gray" fill-opacity=".73" font-family="Helvetica" font-size="1.778" transform="matrix(2.334414 0 -0 2.334414 419.71766 273.3882)" xml:space="preserve"><tspan x="-9.822 -8.636 -7.352 -6.166" y="0">AREF</tspan></text><path fill="none" stroke="#c90d0c" stroke-linecap="round" stroke-linejoin="miter" stroke-miterlimit="4" stroke-opacity=".8" stroke-width=".152" d="M0 0H2.54" transform="matrix(-2.334414,0,0,-2.334414,419.71766,338.61177)"/><text fill="gray" fill-opacity=".73" font-family="Helvetica" font-size="1.778" transform="matrix(2.334414 0 -0 2.334414 419.71766 338.61177)" xml:space="preserve"><tspan x="-9.031 -7.647 -6.364" y="0">GND</tspan></text><path fill="none" stroke="#c90d0c" stroke-linecap="round" stroke-linejoin="miter" stroke-miterlimit="4" stroke-opacity=".8" stroke-width=".152" d="M0 0H2.54" transform="matrix(2.334414,0,0,2.334414,360.42353,249.67058)"/><text fill="gray" fill-opacity=".73" font-family="Helvetica" font-size="1.778" transform="matrix(2.334414 0 0 2.334414 360.42353 249.67058)" xml:space="preserve"><tspan x="5.08 6.364" y="0">RX</tspan></text><path fill="none" stroke="#c90d0c" stroke-linecap="round" stroke-linejoin="miter" stroke-miterlimit="4" stroke-opacity=".8" stroke-width=".152" d="M0 0H2.54" transform="matrix(2.334414,0,0,2.334414,360.42353,255.59999)"/><text fill="gray" fill-opacity=".73" font-family="Helvetica" font-size="1.778" transform="matrix(2.334414 0 0 2.334414 360.42353 255.59999)" xml:space="preserve"><tspan x="5.08 6.166" y="0">TX</tspan></text><path fill="none" stroke="#c90d0c" stroke-linecap="round" stroke-linejoin="miter" stroke-miterlimit="4" stroke-opacity=".8" stroke-width=".152" d="M0 0H2.54" transform="matrix(2.334414,0,0,2.334414,360.42353,261.5294)"/><text fill="gray" fill-opacity=".73" font-family="Helvetica" font-size="1.778" transform="matrix(2.334414 0 0 2.334414 360.42353 261.5294)" xml:space="preserve"><tspan x="5.08 6.364" y="0">D2</tspan></text><path fill="none" stroke="#c90d0c" stroke-linecap="round" stroke-linejoin="miter" stroke-miterlimit="4" stroke-opacity=".8" stroke-width=".152" d="M0 0H2.54" transform="matrix(2.334414,0,0,2.334414,360.42353,326.75294)"/><text fill="gray" fill-opacity=".73" font-family="Helvetica" font-size="1.778" transform="matrix(2.334414 0 0 2.334414 360.42353 326.75294)" xml:space="preserve"><tspan x="5.08 6.364 7.352" y="0">D13</tspan></text><path fill="none" stroke="#c90d0c" stroke-linecap="round" stroke-linejoin="miter" stroke-miterlimit="4" stroke-opacity=".8" stroke-width=".152" d="M0 0H2.54" transform="matrix(2.334414,0,0,2.334414,360.42353,267.4588)"/><text fill="gray" fill-opacity=".73" font-family="Helvetica" font-size="1.778" transform="matrix(2.334414 0 0 2.334414 360.42353 267.4588)" xml:space="preserve"><tspan x="5.08 6.364" y="0">D3</tspan></text><path fill="none" stroke="#c90d0c" stroke-linecap="round" stroke-linejoin="miter" stroke-miterlimit="4" stroke-opacity=".8" stroke-width=".152" d="M0 0H2.54" transform="matrix(2.334414,0,0,2.334414,360.42353,273.3882)"/><text fill="gray" fill-opacity=".73" font-family="Helvetica" font-size="1.778" transform="matrix(2.334414 0 0 2.334414 360.42353 273.3882)" xml:space="preserve"><tspan x="5.08 6.364" y="0">D4</tspan></text><path fill="none" stroke="#c90d0c" stroke-linecap="round" stroke-linejoin="miter" stroke-miterlimit="4" stroke-opacity=".8" stroke-width=".152" d="M0 0H2.54" transform="matrix(2.334414,0,0,2.334414,360.42353,279.31764)"/><text fill="gray" fill-opacity=".73" font-family="Helvetica" font-size="1.778" transform="matrix(2.334414 0 0 2.334414 360.42353 279.31764)" xml:space="preserve"><tspan x="5.08 6.364" y="0">D5</tspan></text><path fill="none" stroke="#c90d0c" stroke-linecap="round" stroke-linejoin="miter" stroke-miterlimit="4" stroke-opacity=".8" stroke-width=".152" d="M0 0H2.54" transform="matrix(2.334414,0,0,2.334414,360.42353,285.24705)"/><text fill="gray" fill-opacity=".73" font-family="Helvetica" font-size="1.778" transform="matrix(2.334414 0 0 2.334414 360.42353 285.24705)" xml:space="preserve"><tspan x="5.08 6.364" y="0">D6</tspan></text><path fill="none" stroke="#c90d0c" stroke-linecap="round" stroke-linejoin="miter" stroke-miterlimit="4" stroke-opacity=".8" stroke-width=".152" d="M0 0H2.54" transform="matrix(2.334414,0,0,2.334414,360.42353,291.17646)"/><text fill="gray" fill-opacity=".73" font-family="Helvetica" font-size="1.778" transform="matrix(2.334414 0 0 2.334414 360.42353 291.17646)" xml:space="preserve"><tspan x="5.08 6.364" y="0">D7</tspan></text><path fill="none" stroke="#c90d0c" stroke-linecap="round" stroke-linejoin="miter" stroke-miterlimit="4" stroke-opacity=".8" stroke-width=".152" d="M0 0H2.54" transform="matrix(2.334414,0,0,2.334414,360.42353,297.10588)"/><text fill="gray" fill-opacity=".73" font-family="Helvetica" font-size="1.778" transform="matrix(2.334414 0 0 2.334414 360.42353 297.10588)" xml:space="preserve"><tspan x="5.08 6.364" y="0">D8</tspan></text><path fill="none" stroke="#c90d0c" stroke-linecap="round" stroke-linejoin="miter" stroke-miterlimit="4" stroke-opacity=".8" stroke-width=".152" d="M0 0H2.54" transform="matrix(2.334414,0,0,2.334414,360.42353,303.03529)"/><text fill="gray" fill-opacity=".73" font-family="Helvetica" font-size="1.778" transform="matrix(2.334414 0 0 2.334414 360.42353 303.03529)" xml:space="preserve"><tspan x="5.08 6.364" y="0">D9</tspan></text><path fill="none" stroke="#c90d0c" stroke-linecap="round" stroke-linejoin="miter" stroke-miterlimit="4" stroke-opacity=".8" stroke-width=".152" d="M0 0H2.54" transform="matrix(2.334414,0,0,2.334414,360.42353,308.9647)"/><text fill="gray" fill-opacity=".73" font-family="Helvetica" font-size="1.778" transform="matrix(2.334414 0 0 2.334414 360.42353 308.9647)" xml:space="preserve"><tspan x="5.08 6.364 7.352" y="0">D10</tspan></text><path fill="none" stroke="#c90d0c" stroke-linecap="round" stroke-linejoin="miter" stroke-miterlimit="4" stroke-opacity=".8" stroke-width=".152" d="M0 0H2.54" transform="matrix(2.334414,0,0,2.334414,360.42353,314.8941)"/><text fill="gray" fill-opacity=".73" font-family="Helvetica" font-size="1.778" transform="matrix(2.334414 0 0 2.334414 360.42353 314.8941)" xml:space="preserve"><tspan x="5.08 6.364 7.352" y="0">D11</tspan></text><path fill="none" stroke="#c90d0c" stroke-linecap="round" stroke-linejoin="miter" stroke-miterlimit="4" stroke-opacity=".8" stroke-width=".152" d="M0 0H2.54" transform="matrix(2.334414,0,0,2.334414,360.42353,320.82353)"/><text fill="gray" fill-opacity=".73" font-family="Helvetica" font-size="1.778" transform="matrix(2.334414 0 0 2.334414 360.42353 320.82353)" xml:space="preserve"><tspan x="5.08 6.364 7.352" y="0">D12</tspan></text><path fill="none" stroke="#c90d0c" stroke-linecap="round" stroke-linejoin="miter" stroke-miterlimit="4" stroke-opacity=".8" stroke-width=".152" d="M0 0H2.54" transform="matrix(2.334414,0,0,2.334414,360.42353,332.68235)"/><text fill="gray" fill-opacity=".73" font-family="Helvetica" font-size="1.778" transform="matrix(2.334414 0 0 2.334414 360.42353 332.68235)" xml:space="preserve"><tspan x="5.08 6.266 7.479" y="0">SDA</tspan></text><path fill="none" stroke="#c90d0c" stroke-linecap="round" stroke-linejoin="miter" stroke-miterlimit="4" stroke-opacity=".8" stroke-width=".152" d="M0 0H2.54" transform="matrix(2.334414,0,0,2.334414,360.42353,338.61177)"/><text fill="gray" fill-opacity=".73" font-family="Helvetica" font-size="1.778" transform="matrix(2.334414 0 0 2.334414 360.42353 338.61177)" xml:space="preserve"><tspan x="5.08 6.266 7.55" y="0">SCL</tspan></text><text fill="#c90d0c" fill-opacity=".8" font-family="Helvetica" font-size="2.4" transform="matrix(2.334414 0 0 2.334414 390.0706 294.14118)" xml:space="preserve"><tspan x="-4.136 -2.535 -1.735 -.401 .934 1.467 2.801" y="0">Arduino</tspan></text><text fill="#c90d0c" fill-opacity=".8" font-family="Helvetica" font-size="2.4" transform="matrix(2.334414 0 0 2.334414 390.0706 300.36708)" xml:space="preserve"><tspan x="-2.667 -.934 .799" y="0">UNO</tspan></text><text fill="gray" fill-opacity=".73" font-family="Helvetica" font-size="2.4" transform="matrix(2.334414 0 0 2.334414 390.0706 240.77649)" xml:space="preserve"><tspan x="-1.534 .199" y="0">U1</tspan></text><path fill="none" stroke="#c90d0c" stroke-linecap="round" stroke-linejoin="miter" stroke-miterlimit="4" stroke-opacity=".8" stroke-width=".406" d="M-5.08-1.27V1.27" transform="matrix(2.334414,0,0,2.334414,473.08235,303.03529)"/><path fill="none" stroke="#c90d0c" stroke-linecap="round" stroke-linejoin="miter" stroke-miterlimit="4" stroke-opacity=".8" stroke-width=".406" d="M-5.08 1.27H5.08" transform="matrix(2.334414,0,0,2.334414,473.08235,303.03529)"/><path fill="none" stroke="#c90d0c" stroke-linecap="round" stroke-linejoin="miter" stroke-miterlimit="4" stroke-opacity=".8" stroke-width=".406" d="M5.08 1.27V-1.27" transform="matrix(2.334414,0,0,2.334414,473.08235,303.03529)"/><path fill="none" stroke="#c90d0c" stroke-linecap="round" stroke-linejoin="miter" stroke-miterlimit="4" stroke-opacity=".8" stroke-width=".406" d="M5.08-1.27H-5.08" transform="matrix(2.334414,0,0,2.334414,473.08235,303.03529)"/><path fill="none" stroke="#c90d0c" stroke-linecap="round" stroke-linejoin="miter" stroke-miterlimit="4" stroke-opacity=".8" stroke-width=".406" d="M-2.54-2.54H2.54" transform="matrix(2.334414,0,0,2.334414,473.08235,303.03529)"/><path fill="none" stroke="#c90d0c" stroke-linecap="round" stroke-linejoin="miter" stroke-miterlimit="4" stroke-opacity=".8" stroke-width=".152" d="M0 0H2.54" transform="matrix(2.334414,0,0,2.334414,455.2941,303.03529)"/><path fill="none" stroke="#c90d0c" stroke-linecap="round" stroke-linejoin="miter" stroke-miterlimit="4" stroke-opacity=".8" stroke-width=".152" d="M0 0H2.54" transform="matrix(-2.334414,0,0,-2.334414,490.87059,303.03529)"/><path fill="none" stroke="#c90d0c" stroke-linecap="round" stroke-linejoin="miter" stroke-miterlimit="4" stroke-opacity=".8" stroke-width=".152" d="M0 0H2.54" transform="matrix(0,2.334414,-2.334414,0,473.08235,291.17646)"/><text fill="gray" fill-opacity=".73" font-family="Helvetica" font-size="2.4" transform="matrix(2.334414 0 0 2.334414 476.04707 294.14118)" xml:space="preserve"><tspan x="0 1.733 3.334 5.105 6.572" y="0">RPOT2</tspan></text><text fill="gray" fill-opacity=".73" font-family="Helvetica" font-size="2.4" transform="matrix(2.334414 0 0 2.334414 476.04707 311.9294)" xml:space="preserve"><tspan x="0 1.335 2.669 4.004" y="0">200k</tspan></text><path fill="none" stroke="#c90d0c" stroke-linecap="round" stroke-linejoin="miter" stroke-miterlimit="4" stroke-opacity=".8" stroke-width=".254" d="M0 0-1.27 1.905" transform="matrix(2.334414,0,0,2.334414,467.15293,214.09412)"/><path fill="none" stroke="#c90d0c" stroke-linecap="round" stroke-linejoin="miter" stroke-miterlimit="4" stroke-opacity=".8" stroke-width=".254" d="M0 0 1.27 1.905" transform="matrix(2.334414,0,0,2.334414,467.15293,214.09412)"/><path fill="none" stroke="#c90d0c" stroke-linecap="round" stroke-linejoin="miter" stroke-miterlimit="4" stroke-opacity=".8" stroke-width=".152" d="M0 0H2.54" transform="matrix(0,-2.334414,2.334414,0,467.15293,220.02353)"/><text fill="gray" fill-opacity=".73" font-family="Helvetica" font-size="2.4" transform="matrix(2.334414 0 0 2.334414 464.18824 211.12943)" xml:space="preserve"><tspan x="0 1.733 3.068 4.402 5.737" y="0">U1_5V</tspan></text><path fill="none" stroke="#c90d0c" stroke-linecap="round" stroke-linejoin="miter" stroke-miterlimit="4" stroke-opacity=".8" stroke-width=".254" d="M-1.27-1.905 0 0" transform="matrix(2.334414,0,0,2.334414,336.70588,374.18824)"/><path fill="none" stroke="#c90d0c" stroke-linecap="round" stroke-linejoin="miter" stroke-miterlimit="4" stroke-opacity=".8" stroke-width=".254" d="M0 0 1.27-1.905" transform="matrix(2.334414,0,0,2.334414,336.70588,374.18824)"/><path fill="none" stroke="#c90d0c" stroke-linecap="round" stroke-linejoin="miter" stroke-miterlimit="4" stroke-opacity=".8" stroke-width=".152" d="M0 0H2.54" transform="matrix(0,2.334414,-2.334414,0,336.70588,368.25883)"/><text fill="gray" fill-opacity=".73" font-family="Helvetica" font-size="2.4" transform="matrix(2.334414 0 0 2.334414 333.74119 380.11769)" xml:space="preserve"><tspan x="0 1.733 3.068 4.402 6.27 8.003" y="0">U1_GND</tspan></text><path fill="none" stroke="#0dab76" stroke-linecap="round" stroke-linejoin="miter" stroke-miterlimit="4" stroke-opacity=".8" stroke-width=".152" d="M78.74-109.22H81.28" transform="matrix(2.334414,0,0,2.334414,69.882358,558)"/><path fill="none" stroke="#0dab76" stroke-linecap="round" stroke-linejoin="miter" stroke-miterlimit="4" stroke-opacity=".8" stroke-width=".152" d="M88.9-109.22H86.36" transform="matrix(2.334414,0,0,2.334414,69.882358,558)"/><path fill="none" stroke="#0dab76" stroke-linecap="round" stroke-linejoin="miter" stroke-miterlimit="4" stroke-opacity=".8" stroke-width=".152" d="M81.28-109.22H86.36" transform="matrix(2.334414,0,0,2.334414,69.882358,558)"/><path fill="none" stroke="#0dab76" stroke-linecap="round" stroke-linejoin="miter" stroke-miterlimit="4" stroke-opacity=".8" stroke-width=".152" d="M68.58-109.22H66.04" transform="matrix(2.334414,0,0,2.334414,69.882358,558)"/><path fill="none" stroke="#0dab76" stroke-linecap="round" stroke-linejoin="miter" stroke-miterlimit="4" stroke-opacity=".8" stroke-width=".152" d="M149.86-93.98H152.4" transform="matrix(2.334414,0,0,2.334414,69.882358,558)"/><path fill="none" stroke="#0dab76" stroke-linecap="round" stroke-linejoin="miter" stroke-miterlimit="4" stroke-opacity=".8" stroke-width=".152" d="M165.1-109.22H162.56" transform="matrix(2.334414,0,0,2.334414,69.882358,558)"/><path fill="none" stroke="#0dab76" stroke-linecap="round" stroke-linejoin="miter" stroke-miterlimit="4" stroke-opacity=".8" stroke-width=".152" d="M66.04-109.22V-83.82" transform="matrix(2.334414,0,0,2.334414,69.882358,558)"/><path fill="none" stroke="#0dab76" stroke-linecap="round" stroke-linejoin="miter" stroke-miterlimit="4" stroke-opacity=".8" stroke-width=".152" d="M114.3-81.28V-83.82" transform="matrix(2.334414,0,0,2.334414,69.882358,558)"/><path fill="none" stroke="#0dab76" stroke-linecap="round" stroke-linejoin="miter" stroke-miterlimit="4" stroke-opacity=".8" stroke-width=".152" d="M66.04-83.82H114.3" transform="matrix(2.334414,0,0,2.334414,69.882358,558)"/><path fill="none" stroke="#0dab76" stroke-linecap="round" stroke-linejoin="miter" stroke-miterlimit="4" stroke-opacity=".8" stroke-width=".152" d="M152.4-93.98V-83.82" transform="matrix(2.334414,0,0,2.334414,69.882358,558)"/><path fill="none" stroke="#0dab76" stroke-linecap="round" stroke-linejoin="miter" stroke-miterlimit="4" stroke-opacity=".8" stroke-width=".152" d="M114.3-83.82H152.4" transform="matrix(2.334414,0,0,2.334414,69.882358,558)"/><path fill="none" stroke="#0dab76" stroke-linecap="round" stroke-linejoin="miter" stroke-miterlimit="4" stroke-opacity=".8" stroke-width=".152" d="M162.56-109.22V-83.82" transform="matrix(2.334414,0,0,2.334414,69.882358,558)"/><path fill="none" stroke="#0dab76" stroke-linecap="round" stroke-linejoin="miter" stroke-miterlimit="4" stroke-opacity=".8" stroke-width=".152" d="M152.4-83.82H162.56" transform="matrix(2.334414,0,0,2.334414,69.882358,558)"/><g><path fill="#0dab76" fill-opacity=".8" d="M114.32-83.82C114.32-83.81286 114.316188-83.80625 114.31-83.80268 114.30381-83.79911 114.29619-83.79911 114.29-83.80268 114.28381-83.80625 114.28-83.81286 114.28-83.82 114.28-83.82715 114.28381-83.83375 114.29-83.83732 114.29619-83.8409 114.30381-83.8409 114.31-83.83732 114.316188-83.83375 114.32-83.82715 114.32-83.82Z" transform="matrix(2.334414,0,0,2.334414,69.882358,558)"/><path fill="none" stroke="#0dab76" stroke-linecap="butt" stroke-linejoin="miter" stroke-miterlimit="4" stroke-opacity=".8" stroke-width="1" d="M114.32-83.82C114.32-83.81286 114.316188-83.80625 114.31-83.80268 114.30381-83.79911 114.29619-83.79911 114.29-83.80268 114.28381-83.80625 114.28-83.81286 114.28-83.82 114.28-83.82715 114.28381-83.83375 114.29-83.83732 114.29619-83.8409 114.30381-83.8409 114.31-83.83732 114.316188-83.83375 114.32-83.82715 114.32-83.82Z" transform="matrix(2.334414,0,0,2.334414,69.882358,558)"/></g><g><path fill="#0dab76" fill-opacity=".8" d="M152.42-83.82C152.42-83.81286 152.41619-83.80625 152.41-83.80268 152.40381-83.79911 152.3962-83.79911 152.39-83.80268 152.38382-83.80625 152.38-83.81286 152.38-83.82 152.38-83.82715 152.38382-83.83375 152.39-83.83732 152.3962-83.8409 152.40381-83.8409 152.41-83.83732 152.41619-83.83375 152.42-83.82715 152.42-83.82Z" transform="matrix(2.334414,0,0,2.334414,69.882358,558)"/><path fill="none" stroke="#0dab76" stroke-linecap="butt" stroke-linejoin="miter" stroke-miterlimit="4" stroke-opacity=".8" stroke-width="1" d="M152.42-83.82C152.42-83.81286 152.41619-83.80625 152.41-83.80268 152.40381-83.79911 152.3962-83.79911 152.39-83.80268 152.38382-83.80625 152.38-83.81286 152.38-83.82 152.38-83.82715 152.38382-83.83375 152.39-83.83732 152.3962-83.8409 152.40381-83.8409 152.41-83.83732 152.41619-83.83375 152.42-83.82715 152.42-83.82Z" transform="matrix(2.334414,0,0,2.334414,69.882358,558)"/></g><path fill="none" stroke="#0dab76" stroke-linecap="round" stroke-linejoin="miter" stroke-miterlimit="4" stroke-opacity=".8" stroke-width=".152" d="M114.3-109.22H116.84" transform="matrix(2.334414,0,0,2.334414,69.882358,558)"/><path fill="none" stroke="#0dab76" stroke-linecap="round" stroke-linejoin="miter" stroke-miterlimit="4" stroke-opacity=".8" stroke-width=".152" d="M124.46-104.14H121.92" transform="matrix(2.334414,0,0,2.334414,69.882358,558)"/><path fill="none" stroke="#0dab76" stroke-linecap="round" stroke-linejoin="miter" stroke-miterlimit="4" stroke-opacity=".8" stroke-width=".152" d="M116.84-109.22V-104.14" transform="matrix(2.334414,0,0,2.334414,69.882358,558)"/><path fill="none" stroke="#0dab76" stroke-linecap="round" stroke-linejoin="miter" stroke-miterlimit="4" stroke-opacity=".8" stroke-width=".152" d="M116.84-104.14H121.92" transform="matrix(2.334414,0,0,2.334414,69.882358,558)"/><path fill="none" stroke="#0dab76" stroke-linecap="round" stroke-linejoin="miter" stroke-miterlimit="4" stroke-opacity=".8" stroke-width=".152" d="M149.86-111.76H154.94" transform="matrix(2.334414,0,0,2.334414,69.882358,558)"/><path fill="none" stroke="#0dab76" stroke-linecap="round" stroke-linejoin="miter" stroke-miterlimit="4" stroke-opacity=".8" stroke-width=".152" d="M172.72-114.3H185.42" transform="matrix(2.334414,0,0,2.334414,69.882358,558)"/><path fill="none" stroke="#0dab76" stroke-linecap="round" stroke-linejoin="miter" stroke-miterlimit="4" stroke-opacity=".8" stroke-width=".152" d="M154.94-111.76V-86.36" transform="matrix(2.334414,0,0,2.334414,69.882358,558)"/><path fill="none" stroke="#0dab76" stroke-linecap="round" stroke-linejoin="miter" stroke-miterlimit="4" stroke-opacity=".8" stroke-width=".152" d="M185.42-114.3V-86.36" transform="matrix(2.334414,0,0,2.334414,69.882358,558)"/><path fill="none" stroke="#0dab76" stroke-linecap="round" stroke-linejoin="miter" stroke-miterlimit="4" stroke-opacity=".8" stroke-width=".152" d="M154.94-86.36H185.42" transform="matrix(2.334414,0,0,2.334414,69.882358,558)"/><path fill="none" stroke="#0dab76" stroke-linecap="round" stroke-linejoin="miter" stroke-miterlimit="4" stroke-opacity=".8" stroke-width=".152" d="M149.86-129.54H157.48" transform="matrix(2.334414,0,0,2.334414,69.882358,558)"/><path fill="none" stroke="#0dab76" stroke-linecap="round" stroke-linejoin="miter" stroke-miterlimit="4" stroke-opacity=".8" stroke-width=".152" d="M180.34-109.22H182.88" transform="matrix(2.334414,0,0,2.334414,69.882358,558)"/><path fill="none" stroke="#0dab76" stroke-linecap="round" stroke-linejoin="miter" stroke-miterlimit="4" stroke-opacity=".8" stroke-width=".152" d="M157.48-129.54V-142.24" transform="matrix(2.334414,0,0,2.334414,69.882358,558)"/><path fill="none" stroke="#0dab76" stroke-linecap="round" stroke-linejoin="miter" stroke-miterlimit="4" stroke-opacity=".8" stroke-width=".152" d="M170.18-144.78V-142.24" transform="matrix(2.334414,0,0,2.334414,69.882358,558)"/><path fill="none" stroke="#0dab76" stroke-linecap="round" stroke-linejoin="miter" stroke-miterlimit="4" stroke-opacity=".8" stroke-width=".152" d="M157.48-142.24H170.18" transform="matrix(2.334414,0,0,2.334414,69.882358,558)"/><path fill="none" stroke="#0dab76" stroke-linecap="round" stroke-linejoin="miter" stroke-miterlimit="4" stroke-opacity=".8" stroke-width=".152" d="M182.88-109.22V-142.24" transform="matrix(2.334414,0,0,2.334414,69.882358,558)"/><path fill="none" stroke="#0dab76" stroke-linecap="round" stroke-linejoin="miter" stroke-miterlimit="4" stroke-opacity=".8" stroke-width=".152" d="M170.18-142.24H182.88" transform="matrix(2.334414,0,0,2.334414,69.882358,558)"/><g><path fill="#0dab76" fill-opacity=".8" d="M170.2-142.24C170.2-142.23285 170.19618-142.22626 170.19-142.22267 170.1838-142.2191 170.1762-142.2191 170.17-142.22267 170.16382-142.22626 170.16-142.23285 170.16-142.24 170.16-142.24715 170.16382-142.25376 170.17-142.25733 170.1762-142.2609 170.1838-142.2609 170.19-142.25733 170.19618-142.25376 170.2-142.24715 170.2-142.24Z" transform="matrix(2.334414,0,0,2.334414,69.882358,558)"/><path fill="none" stroke="#0dab76" stroke-linecap="butt" stroke-linejoin="miter" stroke-miterlimit="4" stroke-opacity=".8" stroke-width="1" d="M170.2-142.24C170.2-142.23285 170.19618-142.22626 170.19-142.22267 170.1838-142.2191 170.1762-142.2191 170.17-142.22267 170.16382-142.22626 170.16-142.23285 170.16-142.24 170.16-142.24715 170.16382-142.25376 170.17-142.25733 170.1762-142.2609 170.1838-142.2609 170.19-142.25733 170.19618-142.25376 170.2-142.24715 170.2-142.24Z" transform="matrix(2.334414,0,0,2.334414,69.882358,558)"/></g></svg>